<svg width="312" height="392" viewBox="0 0 312 392" fill="none" xmlns="http://www.w3.org/2000/svg">
<path d="M37.9479 40.9044C46.9233 54.1131 57.6082 59.6522 83.2521 66.0435C92.6548 68.6001 104.195 72.0088 108.896 73.7131L117.444 77.1218L108.896 69.8783C100.348 62.6348 100.348 62.6348 111.033 64.7653C117.016 66.0435 123 67.3218 125.137 67.3218C126.847 67.3218 128.129 70.7305 128.129 74.9914C128.129 79.2522 130.266 84.7914 133.258 87.774C137.104 91.6088 135.822 93.7392 127.701 96.2957C117.444 100.13 117.444 100.557 133.258 109.93C142.233 115.044 148.644 120.583 147.362 122.713C146.507 124.417 150.353 125.27 156.764 124.417C171.296 123.139 194.803 134.217 199.932 145.722C202.496 150.835 204.633 152.113 204.633 149.13C205.06 146.574 208.052 144.017 211.471 144.017C215.318 144.017 216.6 146.574 214.89 150.835C213.608 154.244 216.173 161.487 221.301 166.6C227.712 173.417 229.849 181.513 229.849 196C229.849 207.078 231.132 218.157 232.841 220.713C236.688 227.104 243.526 225.826 243.526 218.583C243.526 215.174 245.663 212.191 247.8 212.191C254.638 212.191 252.929 225.826 244.808 234.348C240.962 238.609 239.679 242.017 241.816 242.017C243.953 242.017 248.227 238.183 251.219 233.07C254.211 227.957 258.058 225.4 259.34 226.678C260.622 227.957 267.46 225.826 273.871 222.417C284.556 217.304 285.838 214.748 281.992 207.93C279 202.391 278.573 187.904 280.282 170.435L282.847 141.461L251.219 109.078C222.584 79.2522 217.455 76.2696 189.247 67.7479C163.175 60.0783 156.764 59.6522 149.499 63.9131C141.805 68.6001 139.669 68.174 134.967 62.2088C131.975 57.9479 128.556 55.8175 127.274 56.6696C125.992 57.9479 119.581 56.6696 112.742 54.1131C105.904 51.5566 93.0822 49.4261 84.1069 49.8522C73.8493 50.7044 61.4548 47.2957 49.0603 40.0522L29.4 29.4001L37.9479 40.9044ZM207.625 135.922C208.907 138.478 205.488 137.2 199.077 133.365C193.093 129.104 187.964 125.27 187.964 123.991C187.964 121.009 204.633 131.235 207.625 135.922Z" fill="black"/>
<path d="M40.0849 119.304C38.3753 129.531 37.0932 139.331 37.5205 141.887C37.9479 144.017 40.0849 161.487 42.6493 180.235C61.8822 324.252 66.5836 339.591 95.2192 355.357C113.597 365.157 119.153 366.435 140.096 363.878C181.981 358.765 216.173 333.2 238.825 289.739C243.953 279.939 241.389 246.278 235.833 246.278C234.123 246.278 228.567 253.096 223.011 261.191C217.882 269.287 205.488 281.217 196.085 287.609C186.255 294.426 173.433 302.948 167.022 306.783C161.038 311.044 149.926 314.452 142.233 314.452C128.984 314.452 128.556 314.026 128.984 294C129.411 281.644 124.282 260.339 116.162 237.757C106.759 213.044 102.485 193.87 102.485 176.826C102.485 152.539 89.2356 111.635 79.4055 104.817C76.8411 103.113 67.8658 101.409 58.8904 101.409C43.9315 101.409 43.0767 102.261 40.0849 119.304ZM116.162 298.261C113.597 300.817 109.751 294.852 105.049 282.07C95.2192 253.096 96.9288 249.261 109.323 273.548C116.162 286.757 118.726 295.704 116.162 298.261Z" fill="black"/>
<path d="M143.942 138.478C142.233 139.757 140.951 145.296 141.378 149.983C141.378 158.078 141.805 158.078 145.652 148.704C149.926 138.478 149.071 133.365 143.942 138.478Z" fill="black"/>
</svg>
