<svg width="40" height="40" viewBox="0 0 40 40" fill="none" xmlns="http://www.w3.org/2000/svg">
<path d="M15.4856 21.5307C15.1078 21.1425 15.1078 20.5241 15.4856 20.1359L29.6594 5.56989C29.7817 5.44688 29.8783 5.30085 29.9438 5.14024C30.0093 4.97962 30.0423 4.80762 30.0408 4.63418C30.0394 4.46074 30.0036 4.28931 29.9354 4.12981C29.8673 3.9703 29.7682 3.8259 29.6439 3.70494C29.5196 3.58398 29.3725 3.48888 29.2112 3.42514C29.0499 3.36139 28.8776 3.33027 28.7042 3.33357C28.5307 3.33687 28.3597 3.37453 28.2009 3.44437C28.0422 3.51421 27.8988 3.61484 27.7792 3.74044L12.0383 19.9186C11.8001 20.1635 11.6667 20.4917 11.6667 20.8333C11.6667 21.175 11.8001 21.5032 12.0383 21.7481L27.7792 37.9262C27.8988 38.0518 28.0422 38.1525 28.2009 38.2223C28.3597 38.2921 28.5307 38.3298 28.7042 38.3331C28.8776 38.3364 29.0499 38.3053 29.2112 38.2415C29.3725 38.1778 29.5196 38.0827 29.6439 37.9617C29.7682 37.8408 29.8673 37.6964 29.9354 37.5369C30.0036 37.3774 30.0394 37.2059 30.0408 37.0325C30.0423 36.859 30.0093 36.687 29.9438 36.5264C29.8783 36.3658 29.7817 36.2198 29.6594 36.0968L15.4856 21.5307Z" fill="#D1680E"/>
</svg>
