<svg width="40" height="40" viewBox="0 0 40 40" fill="none" xmlns="http://www.w3.org/2000/svg">
<path d="M25.3572 21.5307C25.735 21.1425 25.735 20.5241 25.3572 20.1359L11.1834 5.56989C11.0611 5.44688 10.9644 5.30085 10.899 5.14024C10.8335 4.97962 10.8005 4.80762 10.802 4.63418C10.8034 4.46074 10.8392 4.28931 10.9073 4.12981C10.9755 3.9703 11.0746 3.8259 11.1989 3.70494C11.3232 3.58398 11.4702 3.48888 11.6316 3.42514C11.7929 3.36139 11.9652 3.33027 12.1386 3.33357C12.312 3.33687 12.4831 3.37453 12.6418 3.44437C12.8006 3.51421 12.9439 3.61484 13.0635 3.74044L28.8045 19.9186C29.0427 20.1635 29.176 20.4917 29.176 20.8333C29.176 21.175 29.0427 21.5032 28.8045 21.7481L13.0635 37.9262C12.9439 38.0518 12.8006 38.1525 12.6418 38.2223C12.4831 38.2921 12.312 38.3298 12.1386 38.3331C11.9652 38.3364 11.7929 38.3053 11.6316 38.2415C11.4702 38.1778 11.3232 38.0827 11.1989 37.9617C11.0746 37.8408 10.9755 37.6964 10.9073 37.5369C10.8392 37.3774 10.8034 37.2059 10.802 37.0325C10.8005 36.859 10.8335 36.687 10.899 36.5264C10.9644 36.3658 11.0611 36.2198 11.1834 36.0968L25.3572 21.5307Z" fill="#D1680E"/>
</svg>
