<svg width="40" height="40" viewBox="0 0 40 40" fill="none" xmlns="http://www.w3.org/2000/svg">
<path d="M18.4694 25.3571C18.8576 25.7348 19.4759 25.7348 19.8641 25.3571L34.4302 11.1833C34.5532 11.061 34.6992 10.9643 34.8598 10.8988C35.0205 10.8334 35.1925 10.8004 35.3659 10.8018C35.5393 10.8033 35.7108 10.8391 35.8703 10.9072C36.0298 10.9754 36.1742 11.0745 36.2951 11.1988C36.4161 11.3231 36.5112 11.4701 36.5749 11.6314C36.6387 11.7928 36.6698 11.9651 36.6665 12.1385C36.6632 12.3119 36.6255 12.483 36.5557 12.6417C36.4859 12.8005 36.3852 12.9438 36.2596 13.0634L20.0815 28.8044C19.8366 29.0426 19.5084 29.1759 19.1667 29.1759C18.8251 29.1759 18.4969 29.0426 18.252 28.8044L2.07385 13.0634C1.94825 12.9438 1.84762 12.8005 1.77778 12.6417C1.70795 12.483 1.67029 12.3119 1.66699 12.1385C1.66368 11.9651 1.6948 11.7928 1.75855 11.6314C1.82229 11.4701 1.9174 11.3231 2.03835 11.1988C2.15931 11.0745 2.30372 10.9754 2.46322 10.9072C2.62272 10.8391 2.79415 10.8033 2.96759 10.8018C3.14103 10.8004 3.31304 10.8334 3.47365 10.8988C3.63426 10.9643 3.7803 11.061 3.9033 11.1833L18.4694 25.3571Z" fill="#BD0200"/>
</svg>
