<svg width="419" height="489" viewBox="0 0 419 489" fill="none" xmlns="http://www.w3.org/2000/svg">
<path d="M387.941 71.3739C388.963 72.9854 390.265 75.36 390.817 76.6443C392.108 79.6814 393.554 86.3209 393.67 89.8596C393.786 93.3982 393.196 99.6957 392.464 102.754C392.14 104.053 391.968 105.169 392.054 105.222C392.14 105.274 392.655 105.077 393.222 104.795C394.455 104.132 397.332 104.004 399.943 104.502C402.749 105.001 406.519 107.272 407.596 109.115C408.015 109.845 408.466 110.909 408.61 111.51V111.51C408.742 112.183 408.441 112.867 407.855 113.223L406.315 114.161C403.098 116.13 400.98 118.299 398.698 122.022V122.022C397.743 123.58 398.418 125.622 400.114 126.303L400.413 126.423C405.251 128.365 410.828 129.616 414.107 129.538C415.56 129.483 416.942 129.542 417.114 129.648C418.431 130.455 418.799 135.961 417.838 140.1C417.23 142.762 417.031 143.152 413.765 148.479C410.552 153.72 410.196 154.171 407.988 156.167C404.542 159.216 399.112 162.546 394.491 164.363C386.499 167.502 377.716 168.974 364.102 169.454C349.429 169.994 336.583 169.094 319.901 166.353C315.126 165.593 312.76 165.403 310.12 165.597C308.194 165.717 304.915 165.795 302.853 165.752C297.168 165.577 284.282 164.1 278.204 162.896C274.408 162.145 265.727 166.279 258.358 172.322C254.542 175.46 252.126 178.116 249.123 182.501C225.623 216.718 202.081 245.157 144.875 308.517C74.3116 386.66 53.7605 412.598 13.1967 474.457C9.65371 479.851 5.94166 485.456 4.96028 486.864L4.41373 487.637C3.71587 488.625 2.37122 488.902 1.34017 488.27V488.27L0.652814 487.848C0.0201227 487.46 -0.178336 486.633 0.209542 486V486C0.578259 485.399 4.79951 478.963 9.54101 471.743C53.1543 405.488 72.324 381.225 142.853 303.139C188.482 252.621 208.298 229.424 228.415 203.102C238.521 189.832 239.778 187.845 242.983 179.919C248.157 167.172 249.328 156.778 246.41 149.197C245.707 147.386 245.076 146.487 242.949 144.237C241.523 142.772 239.584 140.599 238.674 139.449C234.688 134.445 230.18 126.243 229.607 122.937V122.937C229.418 121.886 228.825 120.951 227.955 120.331L225.363 118.483C219.434 114.336 217.766 112.171 211.9 100.851C202.123 82.0903 195.928 65.3286 194.299 53.1391C193.41 46.6835 193.627 43.8221 195.115 41.2667C196.351 39.1871 197.637 38.4389 199.866 38.4659C202.741 38.5337 205.147 40.5213 207.732 44.9824C209.308 47.6823 209.606 48.4168 215.223 62.9721C217.303 68.3847 219.469 73.85 220.01 75.0881V75.0881C220.145 75.4076 220.625 75.2688 220.568 74.9266L220.429 74.0838C218.081 59.917 219.692 43.2126 225.064 26.0947C227.542 18.1963 229.132 14.6394 233.071 8.14925C236.319 2.85091 236.576 2.49616 237.979 1.62229C241.011 -0.301902 244.084 0.597425 245.833 3.91545C247.367 6.74746 248.458 12.6173 248.427 17.6813V17.6813C248.423 18.5736 249.449 19.0777 250.153 18.5292L250.455 18.2941C253.618 15.8988 263.75 9.462 265.751 8.63994C268.881 7.3274 271.248 8.02986 273.967 11.1152C274.736 11.981 275.444 12.6906 275.582 12.6574C275.675 12.6352 276.998 12.8553 278.493 13.1807C280.034 13.495 282.196 13.9535 283.369 14.1606C285.014 14.499 285.857 14.8584 287.265 15.8398C289.25 17.2934 290.177 18.6101 292.017 22.6146C292.66 24.0726 294.448 27.4544 295.995 30.1368C297.525 32.8477 299.02 35.616 299.289 36.333V36.333C299.593 37.1106 300.351 37.6149 301.186 37.5945L301.836 37.5787C303.865 37.4829 306.132 37.7696 312.499 38.9539C314.368 39.3116 317.176 39.615 318.79 39.6189C320.656 39.6597 322.071 39.8576 322.673 40.2263C323.188 40.5424 324.664 42.3137 325.919 44.1867C327.192 46.031 328.277 47.6027 328.335 47.6378C328.363 47.6554 328.358 47.0215 328.337 46.2205C328.261 44.4798 328.45 44.0438 329.448 43.8286C331.129 43.401 335.204 46.845 340.622 53.2401L342.199 55.1084C343.383 56.5108 345.132 57.3102 346.967 57.2876V57.2876C350.656 57.1846 356.002 57.783 358.801 58.5529C361.875 59.4522 368.92 63.7715 371.116 66.1028C374.897 70.1547 378.966 77.8505 380.748 84.2628C381.267 86.1172 381.751 87.3202 381.829 86.9349C381.908 86.5497 382.262 85.0723 382.609 83.6698C382.957 82.2674 383.735 79.1982 384.317 76.8358C384.898 74.4734 385.397 71.6665 385.373 70.5486C385.386 67.4432 385.357 67.4257 387.941 71.3739ZM386.677 72.2145C386.624 72.3005 386.362 73.7556 386.093 75.4815C385.823 77.2074 385.076 80.611 384.395 83.0704C382.945 88.3283 382.475 91.6655 382.782 94.5722C383.341 99.9588 383.06 105.816 382.06 110.404C381.567 112.623 381.13 113.656 379.691 116.004C377.946 118.914 377.946 118.914 378.752 119.014C380.242 119.219 385.129 113.625 387.99 108.444C390.957 103.091 392.533 96.7279 392.629 89.6941C392.713 85.0569 391.082 78.4617 389.052 75.0891C387.589 72.6554 386.905 71.8422 386.677 72.2145ZM359.962 63.0868C356.399 62.0848 351.574 61.7276 345.424 62.0549C342.501 62.1941 336.104 62.4095 331.183 62.4663C320.131 62.6257 315.235 63.0918 310.603 64.3496C304.843 65.9021 301.082 68.2456 298.287 71.9697V71.9697C297.549 72.9471 297.585 74.3044 298.373 75.2417L299.624 76.7299C310.59 89.7576 314.93 101.126 313.844 114.016C313.59 117.13 313.735 117.022 315.662 112.529C320.481 101.456 322.821 90.439 322.217 81.912C321.929 78.268 322.195 78.1553 322.767 81.658C323.381 85.5413 323.467 89.7711 322.982 94.1625C321.935 104.16 318.642 112.938 311.155 125.922L309.522 128.737C308.905 129.8 310.158 130.962 311.171 130.266V130.266C324.528 121.078 328.68 117.004 334.65 107.266C339.391 99.5333 340.894 95.4109 341.783 87.918C342.172 84.6492 342.434 84.9282 342.394 88.5288C342.171 103.996 331.955 119.76 315.203 130.374C312.763 131.912 310.074 133.534 309.241 133.929C308.419 134.371 307.827 134.757 307.942 134.827C308.343 135.073 313.617 134.248 316.245 133.495C321.531 132.007 328.711 128.844 336.161 124.663C344.531 119.943 353.408 112.855 360.539 105.209C361.278 104.427 361.971 103.701 362.466 103.205C362.93 102.738 363.182 102.839 362.849 103.407C361.989 104.877 359.898 107.871 358.423 109.625C355.205 113.523 352.296 116.469 348.474 119.681C345.286 122.376 338.084 127.182 333.944 129.372C332.948 129.904 332.182 130.381 332.24 130.416C332.383 130.503 339.841 127.786 346.521 125.182C356.976 121.111 363.89 119.281 370.278 118.824C374.464 118.553 374.69 118.376 377.457 113.413C379.638 109.47 380.778 105.874 381.371 101.115C382.362 92.6208 380.155 82.4019 375.826 75.4526C374.645 73.5861 371.483 69.8743 369.649 68.2378C367.69 66.4849 362.846 63.9094 359.962 63.0868ZM283.704 17.0849C282.652 16.8732 280.829 16.5043 279.627 16.2796V16.2796C278.776 16.1195 278.141 17.0481 278.599 17.7831L280.5 20.8338C284.494 27.3017 288.304 35.5482 289.673 40.6429L290.213 42.6869C290.396 43.3797 291.335 43.4858 291.668 42.8513V42.8513C292.754 40.7588 294.334 39.4026 296.861 38.43C297.798 38.0587 298.563 37.582 298.536 37.3686C298.538 37.1727 297.684 35.5456 296.618 33.7494C295.563 31.9993 293.821 28.6065 292.743 26.2513C291.682 23.8674 290.358 21.4004 289.8 20.7037C288.393 19.0136 285.97 17.5674 283.704 17.0849ZM330.631 46.7206C330.038 46.594 329.444 46.6632 329.304 46.8923C328.918 47.5224 329.579 49.4646 330.507 50.5854C331.824 52.1017 333.519 54.9929 334.023 56.4842V56.4842C334.285 57.2734 335.04 57.7918 335.87 57.7521L338.281 57.6368L338.5 57.6263C339.965 57.5563 340.709 55.8325 339.755 54.7183V54.7183C336.946 51.4593 333.824 48.324 332.611 47.5404C332.141 47.2132 331.252 46.8648 330.631 46.7206ZM320.509 42.4066C317.996 42.5208 316.114 42.3127 310.546 41.3032C304.369 40.1956 301.95 40.0918 298.809 40.8454C295.638 41.5814 293.174 43.2229 292.222 45.1612C291.452 46.7383 291.366 47.3942 290.638 58.4148L290.343 62.8163C290.201 64.9382 290.925 67.0271 292.35 68.6059V68.6059C293.576 69.9485 294.888 71.3438 295.236 71.6755V71.6755C295.554 71.9883 296.084 71.9051 296.291 71.5098L297.031 70.0967C298.492 67.3279 300.081 65.701 303.356 63.5717C308.07 60.5113 314.906 58.3584 321.241 57.9868C322.758 57.8918 326.111 57.8202 328.612 57.8556C331.129 57.8623 333.222 57.7267 333.281 57.566C333.484 56.7844 331.677 53.6271 329.399 50.8514C328.066 49.1678 326.337 46.8467 325.536 45.6464C323.793 42.9622 322.722 42.2664 320.509 42.4066ZM269.637 12.0072C267.828 12.0014 265.587 13.1496 259.216 17.2428C252.735 21.3868 249.863 23.566 246.932 26.4188C237.581 35.5017 231.918 47.4373 228.756 64.8067C228.142 68.252 227.074 77.4486 227.305 77.3932C227.398 77.371 227.633 76.2152 227.86 74.8174C228.086 73.4195 228.764 70.6432 229.37 68.6901C230.375 65.4444 230.798 64.5612 233.555 60.0648C236.118 55.8834 236.871 54.8477 238.137 53.8112C240.559 51.789 242.441 50.7757 245.024 50.0341C248.427 49.0468 251.838 49.0102 259.821 49.8067C267.442 50.6169 270.063 50.6477 274.114 50.0181C277.524 49.4687 278.218 49.8153 280.191 53.1527C282.124 56.4264 288.133 64.3655 289.135 64.98C289.25 65.0502 289.283 63.9674 289.21 62.5436C289.12 61.1485 289.23 57.4334 289.467 54.3475C289.966 47.3636 289.79 44.6943 288.649 40.4488C286.908 33.9044 281.864 24.586 275.644 16.4779C273.151 13.2161 271.55 12.037 269.637 12.0072ZM241.814 4.87958C238.964 5.2211 236.7 7.69417 232.864 14.7211C228.086 23.4156 224.416 34.7999 222.06 48.0921C219.758 61.1026 220.061 71.021 223.136 80.7872C224.488 85.2019 226.381 90.3419 226.696 90.5351C226.81 90.6053 226.617 89.1861 226.259 87.3909C223.134 71.9203 223.233 54.4064 226.457 43.1043C227.595 39.1916 228.579 36.3664 228.689 36.8284C228.716 37.0418 228.342 39.4523 227.792 42.1492C225.811 52.3223 224.869 61.6354 224.986 69.8639C225.061 74.0474 225.608 80.8051 225.894 80.9806C226.066 81.086 226.061 80.965 226.008 78.0953C226.013 76.9949 226.175 73.9025 226.408 71.2084C228.204 50.2825 233.577 35.4116 243.074 24.9991L243.897 24.0977C244.93 22.9661 245.654 21.5878 246.001 20.0953V20.0953C246.307 18.8249 246.695 16.7775 246.834 15.5229C247.173 13.1697 246.511 8.98049 245.543 7.08725C244.837 5.66894 243.215 4.71436 241.814 4.87958ZM403.051 107.787C400.358 106.845 397.411 106.575 395.136 107.072C392.157 107.688 391.715 108.088 388.842 112.71C386.689 116.157 385.978 117.061 384.613 118.194C383.69 118.929 382.941 119.573 382.952 119.619C382.963 119.665 383.991 119.98 385.198 120.326C386.433 120.689 388.919 121.583 390.738 122.344C394.015 123.683 394.061 123.672 395.18 122.939C395.981 122.405 396.89 121.308 398.439 118.908C400.755 115.324 402.443 113.6 405.421 111.762C406.424 111.155 407.306 110.553 407.341 110.495C407.411 110.381 406.589 109.601 405.582 108.865C405.37 108.696 404.205 108.218 403.051 107.787ZM413.232 132.508C409.187 132.551 405.838 131.522 395.59 127.091C384.992 122.525 379.836 121.295 372.09 121.589C366.298 121.782 357.485 123.945 347.332 127.65C335.682 131.935 325.331 135.322 318.538 137.147C316.054 137.791 315.973 137.86 316.852 138.162C318.523 138.714 324.892 139.702 327.443 139.847C331.123 140.015 334.509 139.569 339.511 138.223C349.313 135.603 351.472 135.232 354.736 135.499C359.583 135.949 362.561 137.775 363.986 141.17C364.336 142.015 364.542 143.284 364.478 144.033C364.276 145.84 363.579 146.398 358.625 148.759C356.472 149.764 353.849 151.15 352.783 151.797C348.019 154.747 339.732 158.494 332.883 160.796C330.6 161.564 328.882 162.245 328.997 162.315C329.398 162.561 343.23 161.465 347.672 160.84C355.76 159.73 363.231 157.572 369.551 154.59C372.491 153.201 379.434 148.946 379.837 148.287C379.943 148.115 380.244 147.945 380.486 147.936C381.223 147.955 378.981 150.52 376.216 152.844C367.777 159.925 355.972 163.563 337.887 164.652C335.506 164.808 333.097 164.947 332.566 164.976C330.687 165.085 335.688 165.668 341.93 166.028C362.873 167.282 380.833 165.881 391.562 162.134C404.39 157.665 413.835 148.364 416.537 137.529C416.944 135.966 417.278 134.201 417.358 133.619C417.415 132.433 417.519 132.457 413.232 132.508ZM277.249 53.5164C276.679 53.4821 275.698 53.6687 275.027 53.9273C273.026 54.7494 268.301 54.8079 260.777 54.0966C256.828 53.7247 252.539 53.459 251.253 53.4986C243.558 53.9033 237.996 57.7047 233.529 65.7626C227.925 75.8032 226.823 88.7214 230.794 97.5398L230.874 97.7161C231.576 99.2775 232.668 100.632 234.044 101.651L238.153 104.691C243.668 108.742 247.906 112.049 250.82 114.624C251.842 115.527 252.322 115.387 251.935 114.283C251.161 112.075 252.205 104.716 254.131 98.4886C257.675 86.988 262.63 77.2984 266.424 74.5807C267.567 73.7447 268.43 73.8796 268.178 74.8682C268.089 75.2073 266.204 78.8593 264.004 83.0269C259.515 91.5053 258.516 93.6505 256.551 99.1052C254.899 103.727 252.962 111.642 252.857 114.257C252.759 116.088 252.821 116.245 254.242 117.589C262.121 125.177 265.18 129.378 266.123 133.817C266.409 135.214 266.704 136.341 266.796 136.318C268.558 135.822 275.341 133.243 276.748 132.49C279.446 131.11 282.968 128.58 285.497 126.19C287.351 124.45 288.052 123.5 290.429 119.559C292.957 115.435 293.31 114.667 294.01 111.983C294.423 110.345 294.885 107.791 294.98 106.351C295.12 104.901 295.288 103.664 295.38 103.642C295.732 103.582 295.53 109.053 295.114 111.596C294.09 117.509 290.623 123.934 285.994 128.465C282.696 131.723 274.931 136.419 271.002 137.557C269.315 138.059 270.028 138.181 274.619 138.277C279.245 138.316 283.032 138.116 290.749 137.29C296.805 136.668 297.174 136.58 299.082 135.267C303.373 132.381 304.799 130.891 307.679 126.194C310.014 122.385 310.391 121.513 311.249 118.571C314.854 106.005 312.363 95.415 302.943 83.3354C301.668 81.687 297.679 77.0743 294.07 73.1278C287.49 65.8631 283.192 60.4696 280.833 56.5408C279.438 54.1884 278.763 53.6173 277.249 53.5164ZM201.718 43.0294C200.986 43.1319 200.27 44.4272 200.345 45.6551C200.392 47.3782 205.133 60.7267 208.233 67.9466C212.888 78.7996 218.804 87.9823 225.06 94.1031C225.188 94.2275 225.315 94.3495 225.439 94.4687C226.924 95.8953 227.461 95.5387 226.637 93.6515V93.6515C223.666 86.8649 217.648 72.0638 214.496 63.7084C209.63 50.7562 207.839 47.0575 205.223 44.7049C204.063 43.6395 202.572 42.9223 201.718 43.0294ZM358.456 139.907C353.833 138.964 351.179 139.308 342.495 141.904C339.444 142.831 335.72 143.7 334.214 143.841C330.397 144.22 325.251 143.744 317.895 142.309C314.41 141.63 310.309 140.928 308.801 140.753C305.251 140.31 298.651 140.598 291.199 141.506C273.444 143.664 262.632 142.276 250.411 136.243C245.119 133.628 239.945 129.984 235.503 125.724C233.288 123.617 231.368 123.149 231.1 124.679C230.967 125.346 235.634 132.581 238.304 135.874C247.587 147.278 259.466 154.639 274.228 158.133C282.517 160.102 299.398 161.94 306.596 161.703C317.201 161.309 327.807 158.985 339.068 154.5C346.488 151.523 352.322 148.756 355.002 146.892C356.492 145.875 358.897 144.394 360.397 143.619C361.868 142.826 363.136 142.107 363.171 142.05C363.4 141.677 360.382 140.3 358.456 139.907ZM195.888 46.6265C193.963 53.8791 197.313 66.9263 206.059 86.2762C211.983 99.3652 216.766 107.696 220.474 111.545C222.608 113.721 228.677 118.347 231.812 120.111C232.918 120.75 234.617 122.028 235.593 122.942C242.171 129.181 251.876 134.303 261.504 136.66C263.246 137.097 264.804 137.383 264.96 137.321C265.638 136.987 265.219 133.814 264.253 131.725C262.921 128.82 260.476 126.06 255.111 121.313C248.861 115.826 245.2 112.991 238.423 108.364C235.063 106.067 231.024 103.079 229.23 101.506C220.002 93.4844 213.045 82.9148 206.804 67.3856C203.911 60.2138 199.53 47.756 198.883 44.9555L198.693 44.0986C198.546 43.4347 197.679 43.2639 197.292 43.8226V43.8226C196.725 44.618 196.102 45.8911 195.888 46.6265Z" fill="#EFE0C9"/>
</svg>
