<svg width="276" height="364" viewBox="0 0 276 364" fill="none" xmlns="http://www.w3.org/2000/svg">
<path d="M71.3074 22.4558C68.9162 25.0632 67.6217 27.7633 65.2424 35.1707C63.3793 40.9442 62.3777 43.4148 60.793 45.8988C57.5633 50.9436 56.3137 53.3183 55.7599 55.4576V55.4576C55.388 56.8591 54.2601 57.9326 52.842 58.2349L50.1583 58.807C43.043 60.3038 40.8096 61.0693 38.0117 62.9455C36.5051 63.9728 35.2295 65.0703 34.3398 66.1359C31.7915 69.1794 30.5991 69.3345 22.8695 67.7589C15.4652 66.2281 14.1702 66.3398 10.4258 68.8012C7.97255 70.4139 7.77408 70.6183 6.4226 72.8381C1.1635 81.5468 0.763334 94.384 5.40874 106.345C9.00815 115.703 17.1949 128.775 24.0215 136.122C25.0939 137.303 26.1485 138.57 26.3175 138.94V138.94C26.4769 139.26 26.2437 139.636 25.8863 139.635L24.7016 139.632C22.1648 139.599 18.2674 140.534 14.9581 141.969C11.8208 143.329 7.28327 146.497 5.28023 148.738C2.05989 152.334 -0.5793 158.84 0.115455 161.416C1.04426 164.91 4.6999 165.577 15.9703 164.381C24.5902 163.485 26.2431 163.693 43.8558 167.87C47.3048 168.672 51.6283 169.455 53.4789 169.569C56.6917 169.787 64.3672 169.143 67.7407 168.367V168.367C68.1645 168.268 68.4435 168.797 68.1228 169.091L67.6044 169.566C63.2677 173.49 60.8089 177.288 59.7521 181.644C58.8975 185.238 59.2477 188.078 60.8943 190.583C61.9298 192.158 62.3475 192.512 64.0301 193.44C68.95 196.086 75.3828 195.408 81.236 191.597L82.5354 190.761C83.2983 190.27 84.3142 190.485 84.8125 191.243V191.243C86.8495 194.342 91.2748 195.279 95.5204 193.524C98.0386 192.46 99.4169 191.406 105.366 185.942C121.809 170.843 134.017 161.228 138.492 159.877C140.321 159.34 140.629 159.359 142.827 160.17C144.135 160.642 146.024 161.545 147.04 162.135C148.773 163.14 149.079 163.494 153.007 168.567C158.285 175.416 171.671 195.611 175.679 202.776C177.179 205.452 182.736 215.593 188.039 225.347C205.081 256.674 216.187 275.594 235.217 305.837C244.66 320.821 261.329 346.291 268.632 356.838L272.854 362.976C273.301 363.627 274.187 363.8 274.847 363.366V363.366V363.366C275.503 362.935 275.685 362.054 275.254 361.398L253.831 328.808C231.831 295.341 227.58 288.593 214.938 267.392C205.882 252.154 200.975 243.508 190.234 223.904C180.805 206.692 177.467 200.714 172.668 192.626C168.165 185.045 158.3 170.376 155.561 167.221C153.885 165.29 153.724 164.989 153.154 162.997C152.484 160.516 152.305 157.712 152.633 154.834C152.797 153.284 153.232 152.258 154.636 149.893C156.836 146.264 158.049 142.989 158.221 140.325C158.427 137.489 158.093 136.192 156.684 134.049C156.022 133.042 155.302 131.666 155.11 130.979C154.623 129.339 155.776 124.623 157.504 121.232C158.711 118.848 159.013 118.464 160.08 117.948C166.829 114.658 179.999 106 186.23 100.795C193.159 95.0199 195.491 92.1551 196.062 88.7474C196.49 86.2473 195.683 85.0764 192.752 83.7118C188.633 81.8337 187.054 80.7264 185.422 78.5816C184.598 77.4963 183.148 75.1212 182.208 73.298C181.268 71.4748 179.454 68.3774 178.164 66.4149C175.389 62.137 173.694 60.5146 171.562 60.1408V60.1408C170.8 60.0087 170.256 59.3282 170.296 58.5556L170.344 57.613C170.522 53.9456 169.656 48.6344 166.823 36.1106C162.63 17.7495 160.964 13.076 156.165 6.28217C154.288 3.59579 153.123 2.21686 152.236 1.54256C150.999 0.617432 149.338 0.229562 148.641 0.687901C147.634 1.34995 146.831 3.61612 145.462 9.8043C144.209 15.3247 143.658 17.1297 142.303 19.9066C141.399 21.795 140.583 23.3668 140.506 23.4177C140.402 23.4856 139.514 23.0342 138.481 22.4189C135.705 20.841 132.404 19.7568 127.053 18.7622C121.3 17.6622 116.767 17.4614 110.164 17.993C107.446 18.1897 103.655 18.4994 101.726 18.6584C97.1464 19.0059 95.1924 18.959 88.8103 18.4206C79.5843 17.6066 74.7771 18.7326 71.3074 22.4558ZM75.0213 23.3799C77.8392 22.3781 81.595 22.1281 87.3005 22.5936C93.9482 23.1423 98.2169 23.1099 104.795 22.4839C117.308 21.322 123.811 21.8183 132.415 24.6682C134.382 25.2981 136.649 25.9899 137.453 26.2008V26.2008C138.219 26.382 138.621 27.2239 138.281 27.9331L137.57 29.4158C135.363 34.0471 134.429 36.6211 133.624 40.5158C132.546 45.5144 132.629 49.8606 133.978 61.252C135.297 72.0346 135.389 76.338 134.509 79.9494C133.779 82.8332 133.234 83.5239 130.802 84.4939V84.4939C130.028 84.8216 129.187 84.1914 129.285 83.356L129.474 81.7425C130.541 73.1267 129.203 65.3525 124.963 55.6395C123.35 51.892 116.917 41.9934 113.753 38.3044C113.298 37.7822 112.861 37.2953 112.487 36.8897C111.758 36.1002 111.557 36.2472 112.117 37.1644C113.021 38.6444 114.619 41.142 116.468 43.9533C123.784 55.0833 126.261 60.3706 127.966 68.4215C129.014 73.3911 129.353 81.896 128.641 84.6942C128.289 86.0719 127.916 85.3923 128.115 83.7822C128.613 79.7569 127.814 74.6605 125.841 69.6335C124.821 67.0127 124.16 65.7827 121.164 61.2805C117.26 55.3411 114.589 52.0667 108.628 46.0368C101.433 38.7476 92.006 31.8896 85.9187 29.4931C83.7898 28.6736 80.3658 27.9658 80.312 28.334C80.2324 28.7192 83.723 31.0474 88.6075 33.8647C94.5252 37.2972 97.1192 39.1054 101.619 43.0258C109.265 49.6495 115.58 56.6673 120.316 63.8721C125.001 70.9994 126.856 75.7342 127.431 82.235C127.719 85.4853 127.656 85.8964 126.84 86.174C126.239 86.3843 126.222 86.2471 126.627 84.6126C128.458 77.2703 122.851 69.417 110.538 62.1632C95.7836 53.4451 82.7647 51.9809 60.8183 56.5702C58.8615 56.969 57.0766 57.2917 56.9054 57.2563C56.3143 57.2011 57.1469 54.3608 58.0972 53.2184C60.6624 50.2008 63.1327 44.6197 66.1603 35.048C67.5867 30.5231 68.6467 28.31 70.1576 26.614C71.6686 24.9181 72.6757 24.2561 75.0213 23.3799ZM14.7676 69.3864C16.6463 69.15 17.931 69.304 21.7991 70.2376C26.6259 71.3917 28.1334 71.5471 30.1338 71.0458V71.0458C30.5501 70.9352 30.8914 71.3844 30.6733 71.7558L29.9585 72.9732C22.6162 85.714 19.2233 94.7862 17.9992 105.132C17.4819 109.578 17.4462 112.449 17.8638 116.797C18.2075 120.639 18.0547 120.407 16.3102 114.49C13.1732 103.867 11.9747 93.0422 12.9643 84.4774C13.4721 80.1864 13.4484 79.8691 12.8977 82.857C11.3531 91.084 11.8881 101.124 14.3542 110.783C15.5746 115.565 18.03 122.901 19.5845 126.391L20.0324 127.393C20.1364 127.625 19.8332 127.823 19.6622 127.634V127.634C17.0068 124.72 9.88358 112.871 7.42554 107.275C2.90657 96.9692 1.80413 87.1908 4.30515 79.5186C5.73966 75.0622 7.28815 72.8608 10.3774 70.978C12.1674 69.8753 12.8462 69.614 14.7676 69.3864ZM40.4374 64.2726C44.6911 62.5858 61.3256 58.9735 70.479 57.7641C80.0699 56.4891 85.4174 56.6351 92.8807 58.3119C101.576 60.2881 111.332 65.3397 118.859 71.7826C125.346 77.3187 127.535 82.0556 125.325 85.8384C124.562 87.1535 124.407 87.2553 121.793 88.567C117.485 90.7333 111.112 95.3292 108.643 98.0989C103.144 104.192 99.789 111.353 97.7451 121.239L97.2384 123.69C97.0204 124.744 95.6579 125.044 95.0175 124.179V124.179C93.1141 121.621 91.6817 120.454 81.6578 113.138C73.7577 107.422 70.304 104.699 66.9977 101.695C59.6613 94.9792 54.5938 87.3266 52.7538 80.252C52.6596 79.8975 52.5653 79.5615 52.4763 79.262C52.2156 78.3845 51.7941 78.3796 51.8751 79.2913C51.9324 79.937 52.0552 80.7886 52.2383 81.7743C53.2249 86.932 55.8039 92.3743 59.5022 97.0439C63.9231 102.644 68.1415 106.417 78.0119 113.612C85.9119 119.329 90.2527 122.725 93.1154 125.392C95.9102 127.956 96.6151 128.972 96.5215 130.18V130.18C96.4869 130.599 96.0286 130.841 95.6633 130.632L94.7307 130.1C93.4496 129.389 90.5746 128.616 83.025 127.033C72.4196 124.796 69.9727 124.111 65.075 122.005C59.3825 119.534 52.1194 114.73 49.0728 111.333C47.8389 109.962 47.3836 110.114 48.3682 111.612C50.4053 114.71 54.8015 118.81 58.771 121.304C64.6526 125.02 70.2373 126.933 82.4867 129.421C90.0282 130.935 92.7578 131.656 93.9961 132.358V132.358C94.3427 132.562 94.153 133.095 93.7551 133.034L93.5719 133.006C92.4244 132.836 89.2448 132.781 86.5183 132.909C75.3895 133.42 61.4874 132.019 53.3606 129.558C50.7173 128.744 48.4947 127.838 38.1871 123.297C37.3307 122.92 36.5507 122.603 35.9814 122.39C35.3645 122.16 35.2557 122.359 35.7809 122.757C36.3843 123.213 37.3012 123.866 38.3245 124.575C46.9352 130.416 56.515 133.512 69.6902 134.652C77.0744 135.308 81.0251 135.411 85.4414 135.097C94.7025 134.445 96.3053 134.464 96.8824 135.342C97.3917 136.117 96.8745 136.568 93.6855 137.961C87.8403 140.546 79.318 142.266 70.5902 142.603C59.0673 143.077 48.907 140.955 40.3917 136.271C37.8037 134.866 37.265 134.665 37.8864 135.329C38.9587 136.51 42.0737 138.605 44.765 139.942C54.2572 144.649 67.8885 145.526 82.8827 142.4C89.0794 141.137 92.4978 140.037 95.3282 138.435C97.5475 137.198 97.7195 137.122 97.9815 137.689C98.3026 138.403 96.3624 141.527 93.7552 144.425C91.139 147.365 86.6376 150.25 82.3167 151.722C72.9873 154.97 63.7821 154.919 52.1553 151.578C42.1712 148.711 34.8182 144.558 29.3192 138.668C26.6889 135.848 22.9144 129.712 21.5583 126.018C18.5258 117.804 17.8841 109.683 19.5791 100.728C20.6526 95.104 21.7206 91.6653 23.9224 86.5196C28.1077 76.8526 33.5624 68.3852 37.2389 65.8204C37.7642 65.4381 39.2001 64.7531 40.4374 64.2726ZM150.1 4.42584C152.211 5.33091 155.824 9.98274 158.082 14.7116C160.289 19.3629 162.771 27.7531 165.833 40.7927C168.476 52.1839 169.323 56.5093 169.336 58.3865V58.3865C169.318 59.4955 168.791 60.5346 167.907 61.2041L167.085 61.8261C165.888 62.7612 163.534 64.8631 161.904 66.4897C160.282 68.0734 158.739 69.4949 158.498 69.579C158.232 69.6801 158.627 68.1999 159.421 66.0879C161.052 61.7614 163.018 53.22 163.283 49.3475C163.632 44.4212 163 40.1401 161.469 36.9674C160.471 34.8867 160.39 35.4947 161.199 40.3256C162.41 47.8504 162.299 53.0268 160.773 59.7625C159.724 64.2985 158.31 68.2235 156.915 70.5459C156.126 71.8779 155.695 72.2351 152.39 74.408C150.376 75.7321 148.31 76.9787 147.795 77.2068C146.875 77.5523 146.884 77.5095 148.199 75.6837C154.461 66.8701 157.132 55.4619 155.702 43.3842C155.084 38.1689 153.433 32.3383 151.923 30.04C151.142 28.8521 151.254 30.0357 152.633 36.7474C156.736 57.165 155.532 64.2799 145.976 76.0722L144.814 77.4932C143.773 78.7658 142.435 79.7621 140.917 80.394L138.932 81.2208L138.805 81.2726C137.003 82.0092 135.103 80.4532 135.469 78.5413V78.5413C136.588 72.5915 136.535 68.7427 135.233 58.0973C134.639 53.1993 134.144 47.6076 134.165 45.6706C134.221 39.6796 135.564 34.8027 138.904 28.5758C143.086 20.7602 145.524 14.7932 146.395 10.0418C147.425 4.51995 148.048 3.55544 150.1 4.42584ZM16.3884 143.47C19.8851 142.207 23.2476 141.809 26.5704 142.25C29.4394 142.62 29.4394 142.62 32.0142 144.737C35.2798 147.398 40.0957 150.223 44.4215 151.965C47.7725 153.35 47.7725 153.35 45.9831 153.047C44.9899 152.886 41.8906 152.335 39.0998 151.802C25.548 149.246 21.95 148.949 18.2747 149.996C16.1622 150.608 13.7274 152.024 13.3881 152.802C13.2575 153.109 13.884 152.994 15.353 152.472C20.2155 150.755 23.7545 150.906 37.8117 153.5C57.8874 157.204 65.1432 157.834 73.6362 156.689C77.8827 156.116 81.0259 155.159 84.8096 153.264C88.8079 151.301 93.2981 147.499 95.3756 144.358C95.4206 144.291 95.4655 144.226 95.5102 144.162C96.0151 143.44 96.3238 143.603 95.8472 144.344C95.2296 145.305 94.1906 146.705 93.141 147.935C90.8178 150.646 87.7316 153.377 79.8054 159.66L74.6474 163.787C73.606 164.62 72.4008 165.224 71.1103 165.561V165.561C68.2939 166.34 60.8405 167.097 56.5378 167.078C52.7237 167.07 49.7956 166.554 35.1516 163.237C26.5586 161.304 23.2085 161.102 14.7856 162.016C9.57913 162.591 7.73588 162.656 5.62987 162.266C1.837 161.615 0.662076 160.391 1.22836 157.652C1.72457 155.143 4.44975 151.244 7.51012 148.53C9.4151 146.87 13.5617 144.514 16.3884 143.47ZM122.139 90.7806C123.944 89.9266 128.594 87.9424 132.487 86.3819C141.88 82.6113 144.063 81.6569 148.382 79.2248C154.008 76.0813 154.542 75.6562 162.881 67.8074C168.426 62.5719 169.939 61.9474 172.628 63.6191C173.874 64.39 174.265 64.8725 177.193 69.3828C178.959 72.0685 181.657 76.2858 183.201 78.7472C186.399 83.8935 186.996 84.4631 190.46 85.6255C194.257 86.9015 195.203 87.7218 194.977 89.4604C194.501 92.8429 179.64 104.609 166.228 112.28C161.092 115.212 157.352 116.894 153.969 117.823V117.823C153.449 117.965 153.118 117.283 153.551 116.963L154.571 116.207C163.373 109.681 171.526 100.143 176.966 89.9095C178.389 87.2359 178.993 85.397 177.692 87.6943C176.175 90.393 171.027 97.6967 168.288 101.125C163.286 107.298 158.328 111.851 151.578 116.436L150.119 117.426C148.727 118.37 147.119 118.947 145.444 119.105L143.991 119.241C138.22 119.744 137.515 120.022 129.426 125.044C125.639 127.385 122.413 129.285 122.284 129.258C122.027 129.205 123.451 127.826 126.89 124.788C128.821 123.112 133.822 119.861 146.532 112.135C154.311 107.428 159.036 103.028 162.398 97.4523C164.261 94.3787 165.778 90.2743 166.009 87.7559C166.111 86.5051 165.973 86.7442 165.271 89.1653C163.676 94.6149 160.105 99.4775 154.28 104.231C151.453 106.57 148.837 108.216 137.367 115.016C131.422 118.517 127.916 121.229 121.966 126.805C117.835 130.703 116.465 131.826 113.331 133.923C110.078 136.062 109.304 136.46 107.466 136.928C104.71 137.63 102.663 137.497 101.049 136.56C97.5567 134.455 96.7126 129.795 98.3192 121.269C100.067 112.169 104.077 104.429 110.044 98.7679C112.459 96.4779 118.166 92.7263 122.139 90.7806ZM102.575 140.513C103.225 140.603 104.554 140.543 105.524 140.387V140.387C106.487 140.19 107.412 140.863 107.521 141.84L107.553 142.122C108.487 150.126 107.493 155.253 102.637 167.95C100.336 173.901 98.8917 178.512 98.7503 180.491C98.6944 181.193 98.9555 180.578 99.4548 178.918C99.9017 177.404 101.561 172.615 103.192 168.288C106.35 159.814 107.866 154.639 108.397 150.776C108.892 147.085 108.989 142.732 108.622 141.049C108.306 139.667 108.349 139.565 109.157 139.219C109.621 139.024 110.757 138.389 111.635 137.812L112.092 137.512C112.799 137.047 113.717 137.057 114.414 137.538V137.538C116.957 139.269 119.389 143.476 120.822 148.525C121.007 149.135 121.189 149.694 121.342 150.13C121.561 150.751 121.885 150.751 121.873 150.093C121.853 149.063 121.673 147.367 121.405 145.923C120.624 142.036 118.107 137.699 115.878 136.391V136.391C115.222 136.01 115.251 135.374 115.815 134.867C116.005 134.696 116.218 134.51 116.44 134.32V134.32C117.322 133.578 118.507 133.307 119.624 133.592L121.045 133.956C124.519 134.852 127.381 136.337 130.023 138.668C131.966 140.386 135.133 145.147 136.194 147.999C136.633 149.116 137.064 149.942 137.194 149.857C137.529 149.636 136.992 146.513 136.278 144.357C135.571 142.269 132.975 138.207 131.407 136.723C129.337 134.755 124.964 132.378 122.499 131.891C119.032 131.174 120.877 130.886 124.644 131.553C127.957 132.149 133.414 132.519 141.367 132.69C149.92 132.874 152.445 133.396 154.892 135.486C156.085 136.514 156.255 136.772 156.733 138.344C157.413 140.559 156.845 143.633 155.154 146.63C152.535 151.31 149.822 153.427 143.903 155.395C137.04 157.724 136.696 157.876 132.494 160.823C128.318 163.754 113.814 175.951 107.777 181.62C105.923 183.357 103.491 185.621 102.353 186.702C97.2482 191.426 91.5379 193.035 87.7123 190.816C86.0386 189.845 84.7293 188.191 84.5919 186.913C84.5431 186.501 84.6529 185.431 84.7959 184.523L84.8909 183.992C84.9271 183.789 84.6526 183.691 84.5516 183.87V183.87C84.2226 184.382 83.8715 185.649 83.7189 186.71L83.6995 186.842C83.5373 187.942 82.8553 188.897 81.8673 189.407V189.407C77.3871 191.649 72.7016 192.51 68.7376 191.825C65.5439 191.298 63.3573 190.11 61.7336 188.034C60.169 186.104 59.7695 184.258 60.3764 181.862C61.5379 177.216 64.6521 174.133 81.8141 160.521C90.9378 153.303 95.0464 148.864 97.429 143.6V143.6C97.5525 143.328 97.9629 143.457 97.9081 143.751L97.8814 143.894C97.0475 148.252 92.7314 156.932 88.2504 163.28C87.0479 164.995 83.9627 168.909 81.3716 171.944C79.5695 174.087 77.9912 176.046 77.1768 177.099C76.7739 177.62 76.8759 178.003 77.4408 177.664C77.5232 177.615 77.6103 177.56 77.7015 177.5C82.453 174.377 90.746 163.082 95.2043 153.605C97.064 149.683 98.5841 145.244 99.1016 142.094L99.3541 140.612C99.4417 140.098 99.9653 139.781 100.461 139.942V139.942C101 140.143 101.933 140.38 102.575 140.513Z" fill="#efe0c9"/>
</svg>
