<svg width="293" height="383" viewBox="0 0 293 383" fill="none" xmlns="http://www.w3.org/2000/svg">
<path d="M315.531 59.3637C316.311 60.6593 317.3 62.5647 317.715 63.5925C318.682 66.0227 319.706 71.3103 319.734 74.1165C319.761 76.9227 319.179 81.9022 318.543 84.3121C318.263 85.3355 318.106 86.2168 318.173 86.2601C318.24 86.3034 318.652 86.1569 319.106 85.9433C320.096 85.441 322.377 85.3919 324.437 85.8337C326.652 86.2805 329.598 88.1492 330.418 89.6288C330.737 90.2149 331.074 91.0666 331.178 91.5451V91.5451C331.27 92.0807 331.019 92.6171 330.548 92.889L329.31 93.6043C326.726 95.1055 325.008 96.7857 323.131 99.6943V99.6943C322.346 100.911 322.844 102.542 324.175 103.112L324.41 103.213C328.209 104.84 332.605 105.933 335.205 105.931C336.357 105.914 337.451 105.986 337.585 106.073C338.614 106.737 338.806 111.106 337.968 114.369C337.438 116.467 337.273 116.772 334.588 120.934C331.946 125.028 331.656 125.38 329.87 126.921C327.084 129.274 322.72 131.814 319.025 133.169C312.635 135.511 305.648 136.517 294.852 136.649C283.214 136.809 273.052 135.861 259.883 133.386C256.113 132.696 254.242 132.503 252.146 132.608C250.618 132.668 248.018 132.67 246.384 132.599C241.883 132.356 231.699 130.951 226.904 129.885C223.91 129.221 216.955 132.339 211.006 136.993C207.925 139.41 205.962 141.47 203.502 144.89C184.257 171.576 165.083 193.682 118.596 242.846C61.2547 303.48 44.4965 323.659 11.2246 371.937C8.31869 376.147 5.27495 380.521 4.47161 381.618L4.02439 382.221C3.45338 382.991 2.38281 383.186 1.57732 382.666V382.666L1.04034 382.32C0.54606 382.001 0.40389 381.342 0.722793 380.847V380.847C1.02594 380.378 4.48833 375.355 8.37728 369.72C44.1458 318.014 59.7788 299.137 117.091 238.547C154.17 199.348 170.296 181.328 186.717 160.837C194.967 150.506 196 148.954 198.684 142.732C203.017 132.725 204.134 124.51 201.96 118.45C201.436 117.003 200.953 116.279 199.308 114.457C198.205 113.27 196.708 111.512 196.008 110.585C192.941 106.546 189.518 99.9652 189.124 97.3344V97.3344C188.993 96.4982 188.541 95.7464 187.863 95.2394L185.843 93.7277C181.22 90.3332 179.938 88.5872 175.496 79.5103C168.091 64.4658 163.488 51.0705 162.419 41.3816C161.832 36.2499 162.057 33.9864 163.282 31.9886C164.299 30.3633 165.332 29.7938 167.098 29.8559C169.375 29.962 171.245 31.581 173.212 35.1631C174.412 37.3313 174.635 37.9188 178.82 49.5551C180.37 53.8821 181.986 58.2524 182.393 59.2434V59.2434C182.493 59.4991 182.876 59.3978 182.838 59.1256L182.743 58.4552C181.141 47.1864 182.722 33.9789 187.291 20.5124C189.399 14.2988 190.723 11.5092 193.963 6.43822C196.634 2.29898 196.844 2.02256 197.971 1.35567C200.409 -0.113783 202.828 0.654932 204.153 3.31609C205.317 5.58821 206.074 10.2595 205.957 14.2717V14.2717C205.938 14.9787 206.742 15.3969 207.31 14.9751L207.553 14.7943C210.103 12.9539 218.25 8.03812 219.851 7.42321C222.355 6.44022 224.217 7.04004 226.316 9.53449C226.909 10.2346 227.457 10.8099 227.568 10.786C227.641 10.7702 228.686 10.9687 229.864 11.2538C231.08 11.531 232.785 11.9338 233.711 12.1193C235.008 12.4174 235.669 12.7176 236.767 13.521C238.314 14.709 239.024 15.7693 240.409 18.9761C240.892 20.1432 242.247 22.8556 243.425 25.0094C244.587 27.1855 245.721 29.4064 245.922 29.9795V29.9795C246.148 30.6012 246.74 31.0146 247.402 31.0137L247.917 31.0131C249.526 30.9741 251.318 31.2427 256.341 32.2972C257.816 32.6148 260.036 32.9065 261.314 32.939C262.792 33.0054 263.91 33.188 264.38 33.4912C264.783 33.751 265.919 35.1816 266.88 36.6886C267.855 38.1733 268.687 39.4386 268.731 39.4674C268.754 39.4819 268.761 38.9795 268.759 38.3444C268.731 36.9636 268.888 36.6215 269.683 36.4693C271.023 36.1611 274.189 38.9645 278.366 44.1309L279.582 45.6401C280.494 46.7731 281.865 47.4384 283.32 47.454V47.454C286.245 47.4396 290.471 48.0113 292.674 48.6725C295.093 49.4412 300.597 52.9924 302.295 54.8798C305.217 58.1596 308.301 64.3321 309.597 69.4458C309.973 70.9247 310.335 71.8868 310.404 71.583C310.474 71.2791 310.781 70.1149 311.082 69.0099C311.383 67.9049 312.056 65.487 312.56 63.6256C313.064 61.7642 313.51 59.5491 313.512 58.6628C313.578 56.2023 313.556 56.1879 315.531 59.3637ZM314.514 60.0068C314.471 60.0739 314.237 61.2222 313.992 62.5849C313.746 63.9476 313.092 66.631 312.508 68.5675C311.263 72.7075 310.83 75.3434 311.02 77.6523C311.365 81.9309 311.036 86.5667 310.159 90.1842C309.728 91.9337 309.363 92.7442 308.179 94.5789C306.744 96.8532 306.744 96.8532 307.38 96.947C308.558 97.1361 312.532 92.7927 314.894 88.7393C317.342 84.5517 318.707 79.5384 318.912 73.9664C319.063 70.2934 317.891 65.0375 316.344 62.328C315.229 60.3727 314.702 59.7159 314.514 60.0068ZM293.511 52.2864C290.706 51.4274 286.89 51.0564 282.01 51.2035C279.692 51.2605 274.618 51.3145 270.718 51.2697C261.957 51.1945 258.069 51.4744 254.375 52.3867C249.783 53.5118 246.76 55.3003 244.477 58.2002V58.2002C243.875 58.9613 243.878 60.0375 244.485 60.7946L245.45 61.9967C253.902 72.5201 257.133 81.6079 256.038 91.802C255.78 94.2654 255.897 94.1824 257.505 90.6573C261.526 81.9703 263.582 73.2832 263.258 66.5153C263.097 63.6225 263.31 63.538 263.699 66.324C264.114 69.4124 264.106 72.7658 263.641 76.2367C262.629 84.1399 259.86 91.0356 253.69 101.188L252.344 103.388C251.836 104.22 252.808 105.163 253.624 104.631V104.631C264.375 97.5928 267.74 94.4403 272.648 86.833C276.546 80.792 277.812 77.5527 278.653 71.6314C279.021 69.0483 279.224 69.2742 279.126 72.1266C278.668 84.3792 270.285 96.6843 256.817 104.789C254.855 105.964 252.695 107.2 252.027 107.498C251.367 107.833 250.892 108.128 250.981 108.186C251.294 108.388 255.489 107.83 257.585 107.282C261.801 106.199 267.548 103.823 273.528 100.646C280.247 97.0591 287.41 91.6041 293.2 85.675C293.73 85.1404 294.23 84.6393 294.616 84.2647C295.088 83.8061 295.308 83.9088 294.954 84.4642C294.191 85.6618 292.586 87.8388 291.443 89.1358C288.822 92.1664 286.463 94.4471 283.376 96.9234C280.8 99.0006 275.006 102.677 271.685 104.337C270.886 104.741 270.271 105.104 270.316 105.133C270.428 105.205 276.387 103.188 281.728 101.247C290.087 98.2112 295.599 96.8876 300.669 96.6416C303.991 96.5031 304.174 96.3674 306.457 92.4851C308.257 89.4003 309.226 86.5717 309.783 82.8114C310.723 76.0983 309.161 67.9604 305.857 62.3747C304.955 60.8741 302.517 57.8752 301.094 56.5449C299.573 55.1201 295.782 52.9909 293.511 52.2864ZM233.923 14.4426C233.093 14.2557 231.655 13.9301 230.707 13.7302V13.7302C230.035 13.5877 229.515 14.312 229.864 14.9027L231.315 17.3549C234.362 22.553 237.231 29.1572 238.223 33.2193L238.613 34.8489C238.746 35.4011 239.488 35.5023 239.764 35.0057V35.0057C240.662 33.3673 241.939 32.3215 243.959 31.5969C244.708 31.3197 245.323 30.956 245.306 30.7864C245.311 30.6312 244.664 29.3262 243.852 27.8834C243.048 26.4774 241.729 23.7571 240.918 21.8711C240.121 19.9628 239.116 17.9837 238.687 17.4214C237.603 16.0565 235.709 14.8663 233.923 14.4426ZM270.567 38.7825C270.1 38.6714 269.628 38.7154 269.513 38.8944C269.195 39.3866 269.684 40.9377 270.399 41.8428C271.415 43.0684 272.705 45.3903 273.078 46.5812V46.5812C273.27 47.2114 273.859 47.6359 274.518 47.6196L276.431 47.5722L276.604 47.5679C277.766 47.5391 278.388 46.1868 277.652 45.2864V45.2864C275.485 42.6527 273.069 40.1113 272.121 39.4682C271.755 39.2004 271.057 38.9081 270.567 38.7825ZM262.625 35.1794C260.632 35.2241 259.144 35.0248 254.751 34.1233C249.876 33.1329 247.961 33.0065 245.458 33.5464C242.933 34.0718 240.95 35.3276 240.16 36.8462C239.522 38.0818 239.441 38.6 238.663 47.3196L238.349 50.8021C238.198 52.4809 238.734 54.1494 239.834 55.4264V55.4264C240.781 56.5127 241.795 57.6423 242.065 57.9115V57.9115C242.311 58.1652 242.733 58.1089 242.904 57.7994L243.516 56.6932C244.725 54.5258 246.013 53.2656 248.647 51.6381C252.438 49.2989 257.895 47.7177 262.922 47.5388C264.125 47.4912 266.784 47.4955 268.764 47.5692C270.759 47.6205 272.42 47.5512 272.47 47.4249C272.645 46.8093 271.27 44.2744 269.516 42.0333C268.491 40.6749 267.163 38.8041 266.55 37.8384C265.218 35.6796 264.382 35.1087 262.625 35.1794ZM222.868 10.1624C221.435 10.1248 219.638 10.9937 214.515 14.121C209.304 17.2866 206.988 18.961 204.613 21.1681C197.038 28.195 192.333 37.5497 189.511 51.2558C188.961 53.9747 187.947 61.2428 188.131 61.2031C188.205 61.1872 188.413 60.2756 188.618 59.1721C188.823 58.0685 189.41 55.8809 189.926 54.3442C190.782 51.7907 191.133 51.0985 193.4 47.5858C195.507 44.3191 196.123 43.5122 197.145 42.7139C199.101 41.1557 200.611 40.3871 202.671 39.8465C205.385 39.1262 208.089 39.1595 214.401 39.9362C220.425 40.7173 222.501 40.7895 225.722 40.3645C228.435 39.9914 228.978 40.2786 230.481 42.9593C231.953 45.5887 236.569 51.9893 237.353 52.4946C237.442 52.5523 237.488 51.6949 237.456 50.5653C237.41 49.4581 237.566 46.5163 237.81 44.0753C238.332 38.5502 238.241 36.4318 237.415 33.0468C236.155 27.8291 232.328 20.3531 227.547 13.8146C225.631 11.1844 224.383 10.2209 222.868 10.1624ZM200.951 4.00676C198.687 4.22541 196.847 6.14379 193.68 11.6421C189.734 18.4446 186.619 27.3987 184.509 37.8887C182.448 48.1564 182.507 56.0215 184.766 63.8165C185.756 67.3394 187.162 71.447 187.409 71.6058C187.498 71.6635 187.37 70.5354 187.12 69.1063C184.926 56.7902 185.323 42.9136 188.085 34.0166C189.058 30.9368 189.889 28.716 189.968 29.0841C189.985 29.2537 189.645 31.157 189.16 33.284C187.404 41.3092 186.488 48.6719 186.431 55.1944C186.414 58.5109 186.724 63.8757 186.947 64.0201C187.082 64.1067 187.08 64.0107 187.09 61.7357C187.114 60.8638 187.299 58.4164 187.533 56.2857C189.338 39.7365 193.867 28.0506 201.582 19.9728L202.251 19.2735C203.09 18.3957 203.689 17.3167 203.991 16.1403V16.1403C204.257 15.1392 204.602 13.524 204.735 12.5323C205.047 10.6737 204.598 7.34207 203.866 5.8242C203.332 4.68741 202.064 3.90141 200.951 4.00676ZM326.841 88.4934C324.724 87.698 322.393 87.4302 320.582 87.7824C318.21 88.2168 317.853 88.525 315.492 92.1352C313.723 94.828 313.142 95.531 312.04 96.4043C311.295 96.9695 310.69 97.466 310.698 97.5028C310.706 97.5396 311.515 97.8082 312.464 98.1041C313.437 98.4145 315.39 99.168 316.818 99.8039C319.39 100.925 319.427 100.917 320.327 100.357C320.971 99.9484 321.712 99.0952 322.983 97.2223C324.884 94.4241 326.252 93.0889 328.646 91.6865C329.452 91.2239 330.161 90.7627 330.19 90.718C330.248 90.6285 329.611 89.9954 328.826 89.3942C328.662 89.2563 327.747 88.8565 326.841 88.4934ZM334.457 108.269C331.251 108.229 328.616 107.352 320.576 103.655C312.262 99.8428 308.198 98.7738 302.054 98.8661C297.461 98.9129 290.438 100.466 282.326 103.217C273.016 106.4 264.752 108.895 259.335 110.217C257.356 110.683 257.29 110.735 257.981 110.991C259.295 111.458 264.324 112.358 266.342 112.52C269.255 112.72 271.947 112.428 275.935 111.452C283.75 109.555 285.468 109.3 288.049 109.572C291.882 110.016 294.209 111.518 295.276 114.234C295.537 114.91 295.678 115.92 295.613 116.512C295.42 117.94 294.858 118.369 290.889 120.15C289.165 120.907 287.061 121.958 286.204 122.451C282.375 124.702 275.741 127.519 270.271 129.219C268.448 129.786 267.075 130.294 267.164 130.351C267.477 130.554 278.458 129.938 281.99 129.523C288.419 128.791 294.378 127.217 299.44 124.97C301.796 123.923 307.375 120.678 307.707 120.163C307.794 120.029 308.035 119.9 308.227 119.897C308.811 119.925 306.987 121.917 304.754 123.708C297.938 129.165 288.517 131.833 274.166 132.366C272.277 132.446 270.365 132.512 269.944 132.525C268.453 132.577 272.405 133.131 277.345 133.53C293.917 134.906 308.175 134.123 316.745 131.35C326.991 128.042 334.646 120.844 336.985 112.308C337.335 111.077 337.632 109.684 337.706 109.225C337.774 108.286 337.855 108.307 334.457 108.269ZM228.143 43.1938C227.692 43.1563 226.911 43.2862 226.375 43.4789C224.774 44.0938 221.029 44.054 215.08 43.3531C211.958 42.9863 208.563 42.6976 207.544 42.7055C201.439 42.8858 196.962 45.7966 193.275 52.1004C188.652 59.9545 187.542 70.1709 190.529 77.2313V77.2313C191.096 78.5738 191.999 79.7483 193.15 80.642L196.229 83.0322C200.525 86.3429 203.823 89.041 206.085 91.1341C206.879 91.8682 207.262 91.7664 206.975 90.8844C206.402 89.1204 207.363 83.3081 209.003 78.4088C212.021 69.3602 216.125 61.7724 219.181 59.688C220.102 59.0464 220.783 59.1691 220.566 59.9479C220.488 60.2149 218.929 63.0745 217.109 66.3368C213.398 72.9733 212.566 74.655 210.91 78.9415C209.517 82.5741 207.838 88.8108 207.706 90.8808C207.595 92.3301 207.641 92.455 208.743 93.5463C214.848 99.703 217.196 103.087 217.862 106.623C218.063 107.735 218.276 108.633 218.35 108.617C219.755 108.256 225.177 106.335 226.306 105.765C228.469 104.72 231.305 102.779 233.353 100.932C234.854 99.5872 235.427 98.8474 237.382 95.7677C239.461 92.5458 239.754 91.9432 240.358 89.8291C240.715 88.5386 241.128 86.5235 241.229 85.3846C241.367 84.2377 241.522 83.2604 241.596 83.2445C241.876 83.2034 241.616 87.5354 241.24 89.5426C240.32 94.2095 237.456 99.2379 233.705 102.743C231.032 105.265 224.794 108.845 221.66 109.675C220.314 110.042 220.876 110.152 224.513 110.312C228.178 110.426 231.182 110.337 237.312 109.824C242.122 109.442 242.417 109.378 243.953 108.373C247.406 106.164 248.563 105.009 250.93 101.34C252.85 98.3642 253.165 97.68 253.898 95.3646C256.984 85.4729 255.203 77.0355 247.959 67.2916C246.979 65.9621 243.902 62.2341 241.114 59.041C236.033 53.1643 232.725 48.8121 230.928 45.6558C229.865 43.7662 229.341 43.3014 228.143 43.1938ZM168.483 33.5059C167.9 33.5737 167.31 34.5871 167.346 35.5614C167.352 36.9277 170.866 47.5918 173.19 53.3695C176.681 62.0545 181.201 69.4389 186.047 74.4033C186.146 74.5042 186.244 74.6032 186.341 74.6999C187.491 75.8575 187.924 75.5847 187.305 74.0742V74.0742C185.074 68.6422 180.576 56.8038 178.23 50.1253C174.611 39.7731 173.259 36.8095 171.229 34.8975C170.33 34.0321 169.161 33.4366 168.483 33.5059ZM290.917 113.133C287.27 112.301 285.161 112.525 278.233 114.424C275.798 115.103 272.831 115.724 271.636 115.808C268.603 116.038 264.534 115.568 258.732 114.296C255.983 113.694 252.746 113.064 251.554 112.897C248.749 112.481 243.514 112.589 237.592 113.173C223.483 114.559 214.941 113.262 205.367 108.258C201.221 106.09 197.188 103.107 193.746 99.6506C192.029 97.9407 190.516 97.5351 190.276 98.7426C190.158 99.2687 193.724 105.087 195.78 107.744C202.928 116.951 212.206 123.001 223.84 126.039C230.373 127.75 243.716 129.514 249.425 129.458C257.835 129.339 266.282 127.691 275.287 124.343C281.221 122.119 285.895 120.033 288.052 118.604C289.252 117.826 291.184 116.696 292.387 116.109C293.567 115.508 294.585 114.961 294.614 114.916C294.802 114.626 292.436 113.479 290.917 113.133ZM163.797 36.2499C162.14 41.9619 164.556 52.3618 171.133 67.8545C175.589 78.3345 179.227 85.0232 182.095 88.1412C183.747 89.9038 188.471 93.6808 190.923 95.136C191.788 95.6621 193.111 96.7058 193.868 97.4478C198.966 102.512 206.563 106.748 214.15 108.791C215.522 109.169 216.752 109.424 216.877 109.378C217.419 109.126 217.145 106.604 216.418 104.931C215.416 102.604 213.528 100.373 209.364 96.5134C204.511 92.0514 201.662 89.7381 196.376 85.9474C193.755 84.0664 190.609 81.6246 189.216 80.3456C182.05 73.8208 176.73 65.3183 172.068 52.8989C169.906 47.163 166.662 37.2114 166.2 34.9804L166.066 34.2979C165.962 33.7692 165.278 33.618 164.96 34.0536V34.0536C164.497 34.6736 163.98 35.6711 163.797 36.2499Z" fill="#efe0c9"/>
</svg>
