<svg width="40" height="40" viewBox="0 0 40 40" fill="none" xmlns="http://www.w3.org/2000/svg">
<path d="M31.5 19.75C31.5 19.9489 31.421 20.1397 31.2803 20.2803C31.1397 20.421 30.9489 20.5 30.75 20.5H20.5V30.75C20.5 30.9489 20.421 31.1397 20.2803 31.2803C20.1397 31.421 19.9489 31.5 19.75 31.5C19.5511 31.5 19.3603 31.421 19.2197 31.2803C19.079 31.1397 19 30.9489 19 30.75V20.5H8.75C8.55109 20.5 8.36032 20.421 8.21967 20.2803C8.07902 20.1397 8 19.9489 8 19.75C8 19.5511 8.07902 19.3603 8.21967 19.2197C8.36032 19.079 8.55109 19 8.75 19H19V8.75C19 8.55109 19.079 8.36032 19.2197 8.21967C19.3603 8.07902 19.5511 8 19.75 8C19.9489 8 20.1397 8.07902 20.2803 8.21967C20.421 8.36032 20.5 8.55109 20.5 8.75V19H30.75C30.9489 19 31.1397 19.079 31.2803 19.2197C31.421 19.3603 31.5 19.5511 31.5 19.75Z" fill="#0D0D0D"/>
</svg>
