<svg width="187" height="436" viewBox="0 0 187 436" fill="none" xmlns="http://www.w3.org/2000/svg">
<path d="M-44.4986 0.0518951C-46.2999 0.294334 -50.3009 1.03895 -51.6865 1.41991C-55.8781 2.56282 -62.6504 5.43739 -71.4318 9.81852C-80.9927 14.5979 -82.5688 15.585 -87.6264 20.0007C-91.8352 23.6892 -92.4241 24.0528 -101.483 28.6937C-107.164 31.6029 -109.19 32.5207 -113.347 34.0792C-117.712 35.7243 -120.466 37.0404 -121.211 37.8716C-121.886 38.5816 -121.973 38.6162 -125.558 39.1357C-128.121 39.5167 -128.728 39.482 -129.871 38.9625C-130.494 38.6855 -131.066 38.5469 -131.482 38.5816C-132.036 38.6335 -132.14 38.7028 -132.261 39.1876C-132.452 39.8976 -132.746 40.0535 -134.132 40.2093C-136.453 40.4518 -137.596 41.6466 -136.505 42.6683C-135.968 43.1705 -135.379 43.361 -133.162 43.7419C-132.088 43.9151 -130.962 44.1922 -130.668 44.348C-130.373 44.5039 -128.866 45.8892 -127.325 47.4477C-122.804 52.002 -113.607 59.0845 -108.688 61.8379C-103.942 64.4874 -98.8327 66.6346 -89.445 69.9248C-82.8459 72.2279 -81.5296 72.5223 -74.8959 73.0938C-73.2331 73.2323 -70.2713 73.544 -68.3141 73.7691C-62.6677 74.4445 -59.2382 74.6176 -54.0248 74.4964C-45.6417 74.3059 -37.8822 73.4747 -26.9184 71.6045C-21.7396 70.7387 -17.6693 69.9075 -13.599 68.9377C-5.26785 66.9463 0.032196 66.6519 7.11624 67.8122C9.90483 68.2797 11.1346 68.3836 15.1702 68.5048C21.3536 68.6953 21.9598 68.8512 28.94 71.795C31.1396 72.7301 34.9501 74.3059 37.427 75.3103C39.9038 76.3147 42.8309 77.5095 43.9221 77.9598C45.5849 78.6524 46.1391 78.791 47.2996 78.8602C48.4427 78.9295 48.7372 78.8775 48.9277 78.6524C49.3088 78.2022 48.7025 77.0939 47.1957 75.5181C46.243 74.5137 45.6715 73.7172 45.1345 72.6608C43.212 68.7992 40.7871 65.9593 34.5864 60.2101C26.1167 52.3657 24.3327 51.1189 18.8075 49.0928C16.1229 48.1058 14.3215 47.188 10.3205 44.7809C3.70413 40.7981 -1.09363 38.772 -8.22963 36.9884C-9.78848 36.5901 -14.465 35.3433 -18.6046 34.2178C-35.0243 29.7327 -37.5531 29.2825 -40.7574 30.2695C-42.4028 30.7717 -42.4374 30.8064 -42.524 32.4861L-42.5933 33.577L-40.3417 33.9926C-36.9469 34.5987 -29.5511 36.4862 -25.2729 37.8196C-23.1771 38.4777 -18.8124 39.8457 -15.5735 40.8501C-3.4492 44.6251 -1.54396 45.439 6.51003 50.2357C11.2212 53.041 13.1611 54.08 15.6379 55.1017C19.2752 56.6083 20.9379 57.6646 26.2553 61.9245C28.2991 63.5696 30.0831 64.9549 30.187 64.9895C30.3083 65.0415 30.4122 65.1454 30.4122 65.2147C30.4122 65.2839 29.6501 65.0242 28.7321 64.6086C24.0036 62.5306 21.319 61.9591 15.5166 61.734C13.1784 61.6474 10.2166 61.4569 8.93489 61.3184C5.48813 60.9201 0.776978 60.7989 -2.23677 61.0413C-7.27701 61.4396 -10.2734 61.9937 -15.6601 63.5003C-22.9693 65.561 -36.4099 68.2624 -44.7584 69.3707C-54.1807 70.6002 -62.1827 70.7214 -73.1638 69.7863C-80.2479 69.1802 -81.8414 68.7819 -89.7048 65.5956C-91.8006 64.7644 -94.5719 63.6562 -95.8536 63.154C-98.7634 62.0111 -102.972 59.9157 -105.466 58.3746C-108.013 56.8161 -109.952 55.3441 -113.174 52.5908C-114.646 51.3267 -116.984 49.4565 -118.37 48.4521C-121.245 46.3741 -123.913 44.2614 -123.913 44.0883C-123.913 43.9497 -123.341 43.8632 -116.465 42.9627C-107.458 41.7852 -104.254 41.1271 -95.1954 38.6508C-88.527 36.8326 -85.2535 36.088 -81.2178 35.5165C-79.5031 35.2741 -76.9916 34.7892 -75.6233 34.4602C-73.9952 34.0446 -72.956 33.8714 -72.5923 33.9407C-72.2805 33.9926 -71.6396 34.3563 -71.172 34.7373C-70.0462 35.6377 -66.7553 37.9928 -64.7634 39.3262C-62.6157 40.7462 -59.7752 42.27 -56.2764 43.8285C-51.8078 45.8373 -50.197 46.6511 -46.144 48.937C-40.9479 51.8808 -39.5449 52.5561 -33.2403 55.171C-30.1919 56.4351 -26.1736 58.1494 -24.3203 58.9806C-20.2154 60.8335 -18.5526 61.405 -16.9591 61.5262C-15.9372 61.6128 -15.6774 61.5781 -15.4349 61.3357C-15.0019 60.8855 -15.0539 60.7296 -15.9719 59.8638C-16.5088 59.327 -17.7732 58.5477 -19.7304 57.526C-23.9912 55.2922 -24.1991 55.1883 -25.9657 54.7381C-27.7844 54.2532 -28.5638 53.9761 -30.9886 52.8332C-33.2749 51.7596 -34.1583 51.4132 -35.925 50.9111C-38.3325 50.2011 -41.0172 49.0582 -46.0054 46.5992C-48.5862 45.3178 -51.7212 43.8632 -52.9682 43.3783C-57.4889 41.612 -59.0824 40.6596 -65.4043 35.9667L-69.5092 32.919L-68.6952 32.7112C-65.9066 32.0012 -58.4415 31.88 -54.0421 32.4861C-50.9937 32.9017 -48.3957 32.9363 -47.3911 32.59C-47.01 32.4515 -45.9535 31.9146 -45.0355 31.3951C-44.1348 30.8756 -43.2515 30.3908 -43.061 30.3388C-42.8705 30.2695 -42.6799 30.0964 -42.628 29.9232C-42.576 29.7674 -42.4894 29.4903 -42.4201 29.3171C-42.3162 29.0747 -42.4028 29.0227 -42.9571 29.0227C-44.36 29.0227 -44.1002 28.763 -41.3463 27.4123C-37.4838 25.5421 -34.7472 24.5377 -31.006 23.568C-24.1298 21.8017 -16.1624 21.6112 -10.2908 23.0658C-8.74925 23.4468 -3.96881 25.1265 0.101486 26.7023C1.66032 27.3084 2.68222 27.9145 5.99042 30.1483C7.56657 31.2047 9.43718 32.3822 10.1473 32.7632C11.2212 33.3173 11.8967 33.8887 14.131 36.1399C16.9023 38.9279 18.5477 40.2786 19.5869 40.6249C20.3664 40.8847 20.5396 40.7462 20.5396 39.863C20.5396 38.5469 19.6735 37.404 14.3042 31.5683C13.5768 30.7717 12.9706 30.3561 11.6888 29.7154C10.7882 29.2479 9.09077 28.2608 7.9303 27.4989C3.2538 24.4511 -2.3407 22.2519 -8.73193 20.9878C-12.1614 20.3124 -14.2745 20.1046 -18.1715 20.1046C-21.4451 20.122 -22.034 20.1566 -24.0605 20.5722C-25.2902 20.8319 -27.2821 21.1263 -28.4599 21.2302C-30.954 21.4553 -32.253 21.767 -37.9861 23.568C-42.7146 25.0399 -43.6325 25.4555 -45.3646 26.8408C-46.0228 27.3777 -46.9927 28.0184 -47.495 28.2608C-48.3957 28.711 -48.413 28.711 -50.0931 28.5032C-52.2061 28.2262 -61.6111 28.2262 -64.2438 28.4859C-66.9805 28.763 -69.5612 29.2479 -73.4583 30.2176C-75.7446 30.789 -78.0655 31.222 -80.4384 31.5337C-86.0502 32.261 -88.7002 32.7285 -93.3594 33.8541C-98.6248 35.1182 -100.097 35.4472 -99.8892 35.2568C-99.8199 35.1702 -98.5729 34.5987 -97.1526 33.958C-93.8098 32.4688 -90.4323 30.789 -89.1506 29.9578C-87.5571 28.9362 -86.4486 28.0357 -83.1231 25.0572C-79.4858 21.7844 -78.0309 20.7454 -74.3763 18.8059C-72.904 18.0093 -70.0981 16.4681 -68.1409 15.3772C-59.7925 10.667 -51.8424 7.16906 -47.2352 6.1647C-42.7839 5.19496 -35.1802 4.91789 -29.9494 5.52398C-20.7696 6.59761 -13.4084 8.32928 -6.60152 11.0307C-4.71359 11.7753 -4.57503 11.8099 -4.57503 11.4463C-4.57503 10.9787 -3.88222 9.36829 -3.46652 8.84879L-3.05083 8.32928L-2.60051 9.2817C-1.925 10.719 -2.01161 11.2731 -3.06816 11.9485L-3.5358 12.2602L-0.903107 13.5936C2.68222 15.4118 12.1911 20.8839 14.1656 22.2692C15.2049 22.9792 16.9369 24.5377 18.998 26.5984C23.9863 31.5683 27.1386 35.1355 30.672 39.8457C34.0495 44.348 35.4005 46.5992 38.9512 53.699C40.2848 56.3658 41.9129 59.5521 42.5884 60.7989C45.8793 66.929 46.9185 68.9377 47.8192 70.9292C50.2094 76.1588 51.0062 77.6827 51.9415 78.6524C52.9807 79.7087 53.5003 79.83 54.1065 79.1892C55.8905 77.2844 53.3098 69.9421 46.0872 56.3831C37.808 40.8327 36.3358 38.824 24.5752 26.9101C18.6343 20.8839 17.0928 19.7064 7.80907 14.1131C-1.56128 8.46782 -9.19958 5.10838 -17.8251 2.87452C-24.9612 1.00432 -35.4227 -0.38102 -37.3972 0.277016C-37.7783 0.398232 -38.7828 0.95237 -39.6315 1.5065C-40.4629 2.07795 -41.225 2.52818 -41.3116 2.52818C-41.3809 2.52818 -41.4675 1.95673 -41.5021 1.26407L-41.5541 0.0172653L-42.7665 -5.34058e-05C-43.4247 -5.34058e-05 -44.2041 0.0172653 -44.4986 0.0518951Z" fill="#EFE0C9"/>
<path d="M-205.7 15.0133C-206.843 15.6713 -204.972 17.1606 -195.706 22.9616C-193.316 24.4682 -189.471 26.9099 -187.132 28.4164C-184.794 29.923 -181.607 31.9663 -180.031 32.9707C-170.643 38.9623 -162.814 44.5209 -157.289 49.1099C-155.886 50.2701 -155.627 50.5645 -155.782 50.7723C-156.094 51.1359 -155.869 52.0364 -155.159 53.1966C-153.756 55.4651 -152.561 58.5648 -151.799 61.803C-151.591 62.6342 -151.487 63.4827 -151.539 63.6732C-151.608 63.8637 -151.972 64.1754 -152.37 64.3832C-156.804 66.6344 -165.031 74.8598 -170.92 82.9467C-173.848 86.9642 -174.644 88.5919 -176.861 95.0857C-177.658 97.4581 -178.767 100.35 -179.286 101.493C-181.555 106.376 -182.144 107.762 -182.872 109.77C-184.725 114.879 -186.162 120.178 -188.345 130.065C-189.02 133.113 -190.302 138.637 -191.203 142.36C-194.996 158.119 -197.022 168.162 -199.153 181.929C-200.105 188.024 -200.123 188.25 -200.296 194.484C-200.434 199.298 -200.556 201.116 -200.971 204.441C-201.768 210.709 -202.201 216.51 -201.959 217.498C-201.803 218.138 -201.075 218.415 -199.17 218.554L-197.611 218.675L-197.594 213.774C-197.594 209.982 -197.49 208.025 -197.195 205.22C-196.953 202.848 -196.762 199.54 -196.659 195.696C-196.537 190.882 -196.433 189.254 -196.07 186.778C-194.372 175.158 -190.839 159.729 -186.301 144.092C-185.158 140.178 -183.772 135.07 -183.235 132.75C-180.239 119.918 -179.581 117.909 -174.592 106.723C-171.492 99.7612 -170.903 98.3932 -169.656 95.1203C-168.045 90.8951 -167.248 89.5617 -163.178 84.1242C-161.914 82.4445 -160.372 80.3492 -159.766 79.5007C-159.16 78.6349 -157.566 76.4529 -156.233 74.652C-154.899 72.8338 -153.132 70.4094 -152.301 69.2319C-151.47 68.0717 -150.742 67.1712 -150.708 67.2404C-150.656 67.3271 -150.569 67.9158 -150.5 68.5565C-150.119 72.2277 -150.725 82.964 -151.903 93.6138C-152.561 99.6227 -152.925 101.458 -154.483 106.601C-155.886 111.26 -156.302 112.87 -156.562 114.879C-157.081 118.775 -157.462 119.537 -159.662 121.009C-160.234 121.407 -161.845 122.689 -163.213 123.866C-164.581 125.044 -167.075 127.035 -168.755 128.316C-172.219 130.949 -172.341 131.07 -173.761 133.131C-174.35 133.962 -175.112 135.018 -175.476 135.468C-175.839 135.936 -176.636 137.39 -177.26 138.724C-178.195 140.75 -178.386 141.339 -178.437 142.274C-178.611 145.166 -177.173 145.529 -175.857 142.949C-175.666 142.568 -175.129 141.702 -174.662 141.01C-174.003 140.04 -173.778 139.52 -173.64 138.672C-173.432 137.425 -173.449 137.46 -172.41 136.213C-171.96 135.693 -171.423 134.949 -171.198 134.585C-170.054 132.663 -165.932 128.49 -162.312 125.563C-160.823 124.368 -158.831 123.018 -158.761 123.191C-158.692 123.399 -161.81 131.156 -163.888 135.953C-167.075 143.347 -169.344 148.213 -173.709 156.993C-178.108 165.859 -179.407 168.838 -181.676 175.262C-183.789 181.236 -185.348 185.098 -188.085 191.107C-190.96 197.427 -191.168 198.085 -192.069 203.471C-192.658 207.073 -193.298 209.826 -194.338 213.307C-194.996 215.523 -195.602 218.156 -195.619 218.762C-195.619 219.039 -195.481 219.195 -195.169 219.264C-194.199 219.506 -190.752 221.48 -190.181 222.104L-189.609 222.744L-189.28 221.255C-188.951 219.627 -188.327 217.446 -186.994 213.134C-186.093 210.276 -185.643 207.973 -185.14 203.575C-184.69 199.834 -184.309 198.57 -181.676 191.973C-178.819 184.856 -177.658 181.635 -175.701 175.522C-174.921 173.097 -174.021 170.448 -173.692 169.651C-173.363 168.838 -173.103 168.128 -173.103 168.041C-173.103 167.972 -173.363 167.799 -173.657 167.677C-173.969 167.539 -174.385 167.262 -174.558 167.054C-174.869 166.708 -174.869 166.673 -174.575 166.344C-174.229 165.946 -173.518 165.894 -172.826 166.205C-172.254 166.465 -172.064 166.257 -171.423 164.491C-171.163 163.798 -170.868 163.227 -170.782 163.227C-170.332 163.227 -168.79 164.491 -166.937 166.379C-164.547 168.838 -164.321 169.253 -163.715 172.595C-163.369 174.431 -163.351 174.743 -163.559 175.764C-163.732 176.647 -163.732 177.028 -163.577 177.513C-163.403 178.033 -163.421 178.206 -163.646 178.552C-164.062 179.176 -164.01 180.63 -163.577 181.063C-162.849 181.79 -161.723 181.323 -161.082 179.99C-160.095 177.963 -160.095 176.128 -161.082 172.665C-161.931 169.721 -162.589 168.457 -164.304 166.586C-165.101 165.721 -166.261 164.353 -166.902 163.521C-167.924 162.205 -169.084 161.132 -169.673 160.941C-169.795 160.889 -169.206 159.383 -168.253 157.235C-163.386 146.257 -158.658 134.499 -156.077 126.931C-155.644 125.684 -154.968 123.347 -154.587 121.736C-154.189 120.126 -153.565 117.528 -153.184 115.952C-152.821 114.377 -152.058 111.727 -151.539 110.065C-150.326 106.307 -148.698 99.9171 -148.057 96.471C-147.798 95.0338 -147.555 93.8389 -147.538 93.8043C-147.503 93.7697 -147.157 94.0121 -146.741 94.3411C-146.325 94.6701 -145.65 95.155 -145.217 95.432C-143.727 96.3672 -140.783 98.7742 -139.674 99.9517C-137.683 102.082 -136.487 104.246 -135.968 106.688C-134.981 111.346 -134.963 111.485 -135.171 115C-135.275 116.801 -135.396 118.758 -135.448 119.329C-135.552 120.559 -135.344 121.251 -134.755 121.528C-134.409 121.684 -134.236 121.667 -133.872 121.424C-133.231 121.009 -132.816 120.247 -132.227 118.429C-131.759 116.957 -131.724 116.749 -131.88 115.571C-131.967 114.879 -132.053 113.511 -132.053 112.524C-132.053 110.879 -132.123 110.55 -132.85 108.281C-134.496 103.242 -135.171 102.116 -139.553 97.181C-142.931 93.3887 -144.974 91.8821 -146.741 91.8821C-147.14 91.8821 -147.313 91.8128 -147.243 91.657C-147.001 90.999 -146.585 88.7305 -146.637 88.2456C-146.689 87.7434 -146.793 87.6569 -147.59 87.3452C-148.075 87.172 -148.525 86.8949 -148.594 86.7218C-148.82 86.2022 -149.183 83.3623 -149.201 82.1328C-149.201 80.1414 -148.49 79.2409 -146.897 79.2409C-146.533 79.2409 -146.187 79.1197 -146.014 78.9119C-145.546 78.4097 -145.356 76.4703 -145.338 72.2277C-145.321 66.9288 -145.875 63.4135 -147.365 59.2574C-147.711 58.3051 -147.954 57.5085 -147.919 57.4738C-147.746 57.3007 -134.651 69.2146 -131.603 72.3489C-129.369 74.6174 -129.49 74.3057 -128.849 78.808C-127.723 86.6525 -127.464 92.1592 -127.983 96.904C-128.468 101.372 -128.555 103.571 -128.416 107.554C-128.191 114.532 -128.641 117.199 -131.794 127.122C-132.313 128.732 -133.474 132.715 -134.392 135.936C-137.665 147.486 -139.051 151.071 -144.264 161.513C-146.932 166.812 -150.777 174.119 -155.488 182.795C-161.013 192.942 -162.832 196.596 -164.616 200.977C-166.331 205.203 -167.041 206.623 -169.604 210.9C-172.514 215.714 -173.761 218.242 -176.809 225.377C-183.46 240.944 -185.868 247.629 -187.219 254.33C-188.431 260.408 -188.691 268.235 -187.739 270.088C-187.409 270.712 -186.976 270.729 -186.284 270.158C-185.106 269.153 -184.915 268.478 -182.456 256.027C-180.62 246.728 -180.256 245.603 -173.224 228.511C-169.743 220.008 -168.063 216.372 -165.135 210.848C-162.988 206.813 -160.684 201.964 -160.528 201.151C-160.424 200.683 -160.511 200.51 -161.1 199.886C-162.035 198.917 -162.191 198.57 -162.191 197.497C-162.191 195.575 -160.823 194.414 -158.484 194.345C-157.411 194.31 -157.393 194.31 -156.752 193.497C-156.389 193.029 -155.54 191.592 -154.847 190.293C-154.154 188.977 -151.418 184.128 -148.75 179.505C-140.939 165.98 -138.618 161.807 -135.535 155.642C-132.053 148.698 -130.321 143.953 -126.701 131.624C-126.043 129.338 -124.987 125.909 -124.363 124.005C-121.782 116.022 -121.644 115.225 -121.679 108.16C-121.696 104.714 -121.627 102.757 -121.419 101.095C-120.605 94.4969 -120.674 92.4189 -121.921 85.3884L-122.025 84.8689L-121.765 85.3018C-121.367 86.0118 -118.994 92.4362 -117.885 95.865C-113.988 107.779 -111.182 120.68 -108.757 137.65C-107.129 149.183 -106.731 155.019 -107.077 162.517C-107.32 167.695 -107.545 169.877 -108.584 177.253C-110.455 190.535 -111.148 197.358 -111.425 205.272C-112.048 222.762 -109.035 241.498 -102.436 261.24C-96.5986 278.729 -89.2374 293.726 -79.1396 308.774C-71.2415 320.532 -62.6506 330.853 -51.3577 342.109C-40.3938 353.07 -32.2186 359.841 -20.3368 367.841C-17.2884 369.885 -11.6246 373.573 -9.99652 374.543C-9.85796 374.629 -9.63278 374.387 -9.35567 373.815C-9.11317 373.348 -8.61089 372.707 -8.21251 372.378C-7.67558 371.911 -7.57166 371.72 -7.72754 371.599C-7.84879 371.495 -9.85796 370.231 -12.1962 368.776C-19.7306 364.066 -24.8401 360.551 -29.0836 357.157C-33.6562 353.52 -41.3984 346.559 -44.672 343.165C-49.9027 337.71 -50.4223 337.277 -52.1024 337C-52.9858 336.862 -53.592 336.238 -53.592 335.459C-53.592 335.13 -53.4881 334.784 -53.3495 334.714C-53.1763 334.61 -53.4881 334.143 -54.6832 332.844C-70.3408 315.545 -82.2053 297.362 -90.3286 278.175C-97.2221 261.898 -102.678 241.776 -104.41 226.26C-105.657 215.09 -105.571 203.194 -104.15 191.453C-103.838 188.821 -103.527 186.795 -101.847 176.37C-100.53 168.145 -100.08 162.396 -100.236 155.348C-100.357 150.101 -100.6 147.088 -101.483 140.196C-103.977 120.749 -107.545 105.493 -112.551 92.8519C-112.897 91.986 -113.14 91.276 -113.105 91.2414C-113.001 91.1375 -109.433 94.9991 -106.939 97.9257C-103.371 102.064 -99.5603 106.896 -90.9175 118.204C-89.4972 120.056 -85.7906 124.732 -82.7076 128.594C-79.6072 132.455 -76.2644 136.698 -75.2771 138.031C-71.813 142.672 -61.6633 158.222 -54.5446 169.79C-51.0978 175.383 -51.1325 175.262 -52.0158 177.998C-52.3103 178.933 -52.8645 181.375 -53.2629 183.453C-53.644 185.514 -54.1116 187.799 -54.2848 188.509C-54.8564 190.83 -55.3067 193.445 -56.0342 198.692C-56.4152 201.514 -56.9175 204.96 -57.1427 206.346C-58.0607 211.887 -58.5629 216.199 -59.5675 226.952C-59.9139 230.624 -60.3816 235.368 -60.6068 237.516C-61.2822 243.819 -61.4728 246.832 -61.7326 254.573C-61.8192 257.239 -61.9924 261.136 -62.0963 263.231C-62.2868 267.041 -62.1483 270.92 -61.7326 273.223C-61.646 273.725 -61.3689 276.115 -61.1264 278.539C-60.4509 285.206 -59.758 288.202 -57.9914 291.838C-57.16 293.587 -56.6577 294.072 -56.242 293.518C-55.9476 293.137 -56.0342 291.977 -56.5538 289.466C-56.9521 287.544 -57.3159 284.496 -57.5757 280.981C-57.9048 276.305 -58.3551 272.565 -59.0479 268.686C-59.1345 268.166 -58.8574 253.464 -58.6149 245.828C-58.4071 239.784 -58.2339 237.273 -57.2293 225.654C-55.8436 209.792 -55.5665 207.783 -52.4662 192.146C-51.5655 187.626 -50.5956 182.604 -50.3011 180.994C-50.024 179.383 -49.7469 178.033 -49.7122 177.981C-49.6429 177.912 -47.7204 181.115 -44.3256 186.951C-43.3037 188.717 -42.455 190.189 -42.4203 190.206C-42.3857 190.241 -41.8314 189.964 -41.1732 189.583C-40.5324 189.202 -39.6317 188.752 -39.1814 188.596C-38.4193 188.319 -38.3847 188.267 -38.5579 187.921C-39.0602 186.985 -44.62 177.86 -47.5818 173.097C-53.6613 163.365 -61.3689 151.521 -66.8248 143.572L-69.1977 140.109L-68.4529 139.901C-67.9679 139.745 -66.2359 139.676 -63.0489 139.676C-59.1345 139.659 -57.0907 139.763 -50.8207 140.282C-43.4942 140.871 -41.97 141.062 -38.5232 141.772C-37.6226 141.962 -35.2323 142.395 -33.2405 142.724C-25.7581 143.988 -18.8646 146.083 -11.3475 149.391C-7.6929 151.001 5.17616 157.46 7.46245 158.829C8.70952 159.573 11.0131 161.166 12.5893 162.361C14.1828 163.556 16.3132 165.011 17.3178 165.617C19.4309 166.881 20.9897 168.076 23.8129 170.639C29.3035 175.626 32.7502 178.119 34.1359 178.119C35.6428 178.119 33.2699 175.002 27.8139 169.859C26.1512 168.283 24.1593 166.5 23.3972 165.911C22.1502 164.941 17.1792 161.495 11.7926 157.893C9.33305 156.248 5.55721 154.378 -5.35464 149.426C-10.2563 147.192 -16.1453 145.027 -21.7224 143.399C-26.1911 142.101 -28.1137 141.65 -31.5085 141.148C-33.1193 140.906 -36.3928 140.317 -38.7484 139.832C-42.9573 138.984 -49.6429 138.066 -55.6012 137.494C-57.7142 137.304 -59.81 137.235 -63.1182 137.287L-67.7081 137.356L-68.9725 137.91C-69.6653 138.222 -70.3062 138.429 -70.3928 138.377C-70.4967 138.308 -70.8951 137.789 -71.2934 137.2C-72.4712 135.451 -75.433 131.572 -78.6893 127.485C-83.92 120.957 -87.5227 116.368 -90.4845 112.489C-99.5257 100.644 -106.575 92.1419 -114.317 83.7433C-118.388 79.3275 -120.674 76.3491 -122.735 72.8338C-124.086 70.5306 -124.294 70.3748 -126.009 70.2362C-127.273 70.1497 -127.464 70.0977 -127.827 69.6648C-128.33 69.076 -128.347 68.8163 -127.879 67.9851C-127.377 67.0846 -127.533 66.6171 -128.624 65.6819C-130.633 63.9849 -134.357 61.855 -135.552 61.7164C-135.881 61.6818 -137.388 60.3657 -140.835 57.1448C-157.289 41.6983 -165.69 35.4124 -184.534 24.3989C-192.935 19.4983 -200.712 15.7579 -203.933 15.0652C-205.267 14.7881 -205.319 14.7881 -205.7 15.0133ZM-121.99 80.2107C-121.679 80.886 -121.661 81.0765 -121.852 81.5094C-122.077 82.0809 -122.215 82.1674 -123.566 82.7043L-124.467 83.0679L-124.346 82.2367C-124.207 81.2843 -123.913 80.5224 -123.289 79.4487C-122.856 78.7041 -122.839 78.7041 -122.596 79.0504C-122.441 79.2583 -122.181 79.7778 -121.99 80.2107Z" fill="#EFE0C9"/>
<path d="M-95.1607 72.4532C-96.2172 72.7822 -95.4551 73.8038 -93.7231 74.3753C-93.1342 74.5658 -91.8005 74.9294 -90.7613 75.1719C-87.5397 75.9165 -78.4465 78.514 -74.2896 79.882C-62.4944 83.7436 -52.7257 87.7265 -45.3645 91.6574C-39.1638 94.9822 -16.0757 108.489 -12.9753 110.602C-8.1949 113.857 -4.40173 117.182 3.80814 125.304C14.6507 136.04 19.154 141.079 25.8224 149.911C41.6186 170.916 51.6817 193.532 60.0129 226.866C62.074 235.144 64.7413 247.733 65.4861 252.668C65.8498 255.127 66.2136 256.72 66.4734 257.032C66.5773 257.17 67.1315 257.517 67.6858 257.794C68.8982 258.4 69.2273 258.937 68.7943 259.577C68.5865 259.906 68.3093 260.045 67.6338 260.132C66.8544 260.235 66.7678 260.287 66.8544 260.616C66.8891 260.807 67.6512 265.777 68.5172 271.63C71.1845 289.657 72.4836 297.328 74.1636 305.086C78.2513 323.978 82.7026 335.84 98.0485 368.777C106.328 386.543 109.203 391.981 116.287 403.323C124.531 416.501 129.381 423.116 135.097 428.917C136.101 429.956 136.933 430.822 136.933 430.84C136.933 430.874 135.357 430.389 133.434 429.783C129.849 428.658 120.496 425.939 110.866 423.238C103.262 421.108 97.1998 419.255 91.8997 417.454C85.266 415.203 60.3246 405.834 57.7266 404.605C54.938 403.289 54.4703 403.202 53.7602 403.86C53.4831 404.137 52.9461 404.795 52.5651 405.332C52.2014 405.869 51.6991 406.458 51.4393 406.648L50.9889 406.977L54.2452 408.345C75.3761 417.125 85.5605 420.969 97.3557 424.588C102.084 426.06 106.137 427.168 117.014 430.008C135.564 434.874 136.604 435.1 142.96 435.879L143.861 436L143.497 435.359C143.272 434.996 143.012 434.303 142.908 433.818C142.735 433.073 142.631 432.918 142.198 432.779C141.107 432.45 140.882 432.294 140.691 431.757C140.12 430.147 140.31 430.476 125.675 408.259C120.374 400.206 118.798 397.73 116.373 393.626C109.913 382.682 103.175 369.331 94.2726 349.815C85.0408 329.554 82.131 321.727 78.5803 307.545C75.7225 296.133 73.9212 286.228 71.9813 271.457C71.4963 267.786 70.7862 262.417 70.4051 259.508C69.0888 249.395 67.9456 242.52 66.2655 234.399C62.7322 217.273 58.506 202.207 53.5177 189.012C52.3399 185.878 49.4474 178.726 49.153 178.172C49.049 178.016 48.7892 178.172 48.1657 178.812C47.698 179.297 47.2304 179.678 47.1265 179.678C46.884 179.678 45.5503 178.102 44.6843 176.786C43.9915 175.73 43.2987 174.189 43.4372 174.05C43.4719 173.998 44.1474 173.79 44.9441 173.565C45.7235 173.323 46.451 173.063 46.5549 172.959C46.6588 172.855 46.1912 171.73 45.0654 169.531C38.5529 156.612 29.0267 143.123 17.2661 130.152C13.7501 126.273 3.89474 116.143 1.0542 113.476C-5.63148 107.19 -9.94426 104.125 -20.1113 98.3589C-23.2117 96.61 -26.4679 94.6532 -29.066 93.0081C-29.7242 92.5925 -30.6768 92.1422 -31.1791 92.0383C-31.8892 91.8825 -32.1144 91.744 -32.1837 91.4496C-32.3222 90.9128 -34.5392 89.5794 -40.8612 86.2026C-49.5041 81.579 -65.5255 76.055 -76.801 73.8038C-82.0318 72.7475 -84.6472 72.4705 -89.9646 72.4012C-92.5799 72.3492 -94.9182 72.3839 -95.1607 72.4532ZM31.3649 153.097C31.8845 153.599 31.9018 153.946 31.4515 154.396C31.0705 154.777 30.4123 154.846 30.1005 154.534C29.7714 154.205 29.858 153.391 30.2391 153.01C30.6894 152.56 30.8626 152.578 31.3649 153.097Z" fill="#EFE0C9"/>
<path d="M-37.8652 195.921L-39.043 196.216L-38.073 197.947C-33.0847 206.917 -26.7628 218.693 -16.3013 238.572C-12.0578 246.625 -8.02213 254.227 -7.34663 255.456C-5.06034 259.525 -3.18973 262.608 -2.89529 262.781C-2.68744 262.885 -2.32371 262.833 -1.66554 262.591C-1.16325 262.4 -0.712914 262.279 -0.678276 262.313C-0.643635 262.348 -0.730236 262.85 -0.868797 263.404C-1.23253 264.755 -1.11129 266.192 -0.539711 267.162C-0.314545 267.578 0.551476 268.963 1.36553 270.245C2.19691 271.526 2.99365 272.963 3.14954 273.431C3.58255 274.695 3.40934 276.098 2.02371 282.972C0.828602 288.947 0.187744 292.687 -1.35377 302.54C-2.37568 309.069 -2.61816 311.268 -2.94725 316.913C-3.43222 325.19 -3.43222 325.675 -3.05117 328.256C-2.84333 329.537 -2.63548 331.182 -2.58352 331.892C-2.18515 336.568 -0.210625 341.676 0.932522 340.966C1.38285 340.672 1.52142 339.598 1.4175 337.26C1.31357 335.044 1.03645 331.719 0.880562 330.732L0.776638 330.195L0.378269 330.593C-0.55703 331.528 -1.61357 331.286 -2.08123 330.074C-2.32371 329.398 -2.32371 329.295 -2.06391 328.671C-1.7175 327.84 -1.18056 327.234 -0.522392 326.957L-0.0200996 326.749L-0.0547409 322.437C-0.0720596 320.065 -0.158661 317.138 -0.245266 315.909C-0.45311 313.034 -0.0893822 308.151 0.620754 304.012C0.724678 303.493 1.07109 300.757 1.40017 297.951C2.17959 291.475 2.59528 288.635 3.23614 285.483C3.91163 282.106 5.17602 277.691 5.45315 277.691C5.50511 277.691 5.8342 278.176 6.14597 278.764C6.47505 279.37 8.31102 282.661 10.2336 286.089C15.6375 295.717 17.3523 298.886 21.0069 305.9C26.8958 317.225 29.4765 321.744 33.0446 327.113C35.0364 330.074 38.8296 335.407 41.0466 338.317C41.8606 339.39 42.8652 340.897 43.2636 341.676L44.0084 343.061L43.9564 348.516C43.9218 351.789 44.0084 356.222 44.1643 359.599C44.3201 362.698 44.4414 366.508 44.4414 368.084C44.4414 371.617 44.6319 373.244 45.394 376.136C45.7231 377.366 46.1215 379.167 46.26 380.102C46.7623 383.271 47.611 384.968 48.8581 385.331C49.2391 385.435 49.9666 385.556 50.4689 385.608L51.4042 385.695L51.3003 385.193C51.2483 384.916 50.9885 384.206 50.746 383.617C50.5035 383.028 50.1051 382.11 49.88 381.556C49.6548 381.02 49.3431 379.929 49.1872 379.132C49.0486 378.353 48.5463 376.205 48.0787 374.405C47.1953 370.924 47.1087 370.352 46.4332 363.928C45.775 357.677 45.6018 354.889 45.7058 352.222C45.8097 349.832 46.0868 347.425 46.3293 346.992C46.3986 346.871 47.4378 348.36 49.0313 350.888C59.8565 368.222 69.7638 381.556 79.8962 392.414C82.6502 395.375 90.9467 403.497 91.6741 403.947C91.9512 404.103 92.4189 404.293 92.748 404.362L93.3369 404.484L93.2156 403.739C93.0251 402.596 92.5921 401.748 91.1891 399.86C90.4617 398.908 89.0068 396.882 87.9156 395.358C86.8417 393.834 83.6028 389.383 80.7276 385.487C74.5789 377.123 72.4312 374.145 72.5178 374.076C72.5524 374.041 73.0547 374.076 73.6263 374.162C74.1978 374.231 75.8433 374.422 77.2635 374.578C78.9956 374.768 80.3293 375.011 81.2646 375.322L82.6502 375.79L82.4077 374.924C82.0613 373.712 81.5763 373.279 80.1734 372.933C79.5325 372.759 78.3028 372.413 77.4367 372.153C75.6181 371.599 73.2799 371.513 71.9808 371.963C71.5478 372.101 71.1494 372.171 71.0975 372.101C70.7857 371.755 66.8713 366.127 65.07 363.443C63.0262 360.361 61.3981 357.763 55.8209 348.672C51.4735 341.589 50.3303 339.858 50.3303 340.343C50.3303 340.983 50.0012 341.416 49.3604 341.693C48.8581 341.901 48.6849 341.901 48.2172 341.711C47.3339 341.33 46.9528 340.793 46.9528 339.927C46.9528 338.94 47.5937 338.23 48.5117 338.23C48.8408 338.23 49.1179 338.195 49.1179 338.161C49.1179 338.039 47.5591 335.806 43.229 329.727C35.5214 318.922 34.7939 317.727 28.3334 306.004C20.5912 291.925 16.3304 284.392 7.0293 268.34C-5.0257 247.542 -7.45055 243.334 -12.4042 234.416C-14.015 231.524 -15.2967 229.135 -15.2621 229.083C-15.0369 228.875 -12.7852 228.684 -11.5901 228.788C-9.92737 228.927 -8.66298 229.187 -2.58352 230.641C3.30542 232.061 4.72569 232.529 8.79599 234.33C18.3222 238.555 22.9814 241.603 29.6324 247.923C30.8795 249.084 33.2178 251.283 34.8459 252.772C38.206 255.889 39.0547 256.824 40.7348 259.248C41.9299 260.98 42.2244 261.309 44.6319 263.612C45.3594 264.305 46.5545 265.742 47.2992 266.816C50.1917 270.972 50.6248 271.561 51.9238 272.842C54.1062 275.024 55.5091 275.526 55.0068 273.933C54.6777 272.963 53.3787 270.4 52.1836 268.426C49.8453 264.547 48.3731 262.556 46.1388 260.235C44.9263 258.971 43.1943 257.067 42.311 255.993C40.4057 253.707 38.9508 252.304 36.1622 250.088C35.0537 249.205 32.8887 247.369 31.3645 246.001C28.0909 243.109 25.5968 241.187 22.6177 239.3C14.8062 234.347 8.17245 231.438 -2.15051 228.425C-7.58912 226.832 -8.73226 226.589 -11.3996 226.485C-13.582 226.399 -13.9111 226.416 -15.0715 226.78C-16.18 227.126 -16.3706 227.143 -16.6304 226.935C-16.8036 226.797 -17.3405 225.827 -17.8428 224.788C-19.0379 222.243 -25.6197 210.173 -28.9105 204.441C-33.5697 196.354 -33.7429 196.06 -34.1933 195.835C-34.7821 195.54 -36.4622 195.575 -37.8652 195.921Z" fill="#EFE0C9"/>
<path d="M38.0851 317.623C37.7214 317.779 37.8253 318.645 38.2583 319.026C38.8646 319.597 39.2629 319.736 41.3587 320.186C46.1045 321.19 51.5431 323.13 56.3755 325.554C63.9965 329.381 71.6348 336.1 77.8874 344.447C80.243 347.598 82.1656 349.382 83.2048 349.382C83.6032 349.382 83.6205 349.347 83.5512 348.533C83.4646 347.685 83.0316 346.698 81.1956 343.234C80.1044 341.139 80.0005 341.018 78.6149 339.979C77.9567 339.477 76.9175 338.49 76.3113 337.78C74.5273 335.667 73.54 334.68 72.1544 333.676C71.4442 333.139 69.7988 331.875 68.5171 330.853C64.9144 327.996 62.2125 326.316 58.2634 324.463C57.2761 324.013 54.6954 322.766 52.4957 321.727C48.1137 319.614 46.0352 318.783 43.4545 318.125C41.8263 317.692 38.5701 317.398 38.0851 317.623Z" fill="#EFE0C9"/>
<path d="M-6.63686 372.794C-7.24307 374.37 -7.45091 374.803 -7.74536 375.236C-7.91857 375.513 -8.05713 375.756 -8.02249 375.773C-7.98785 375.808 -5.58031 377.383 -2.67048 379.254C12.5368 389.107 17.5251 391.877 32.9403 398.977C37.6168 401.125 37.9632 401.194 39.0717 400.189C39.7645 399.566 41.0809 397.904 40.9596 397.8C40.925 397.782 40.1975 397.453 39.3315 397.09C28.6448 392.57 19.4996 387.998 9.71361 382.284C6.16292 380.206 -1.52734 375.513 -4.33324 373.695C-6.48097 372.327 -6.46365 372.327 -6.63686 372.794Z" fill="#EFE0C9"/>
<path d="M96.2297 386.024C97.1823 387.462 98.8104 390.579 99.3473 391.981C99.6591 392.778 100.577 394.232 101.045 394.648C101.512 395.064 102.292 395.064 102.586 394.648C102.967 394.129 102.846 392.535 102.274 390.457C101.772 388.674 101.651 388.414 100.889 387.583C100.421 387.063 99.8496 386.249 99.6245 385.747L99.2088 384.829L97.7539 384.812C96.9571 384.795 96.0738 384.708 95.762 384.639L95.2078 384.5L96.2297 386.024Z" fill="#EFE0C9"/>
<path d="M52.0794 390.422C51.785 390.786 51.5425 391.236 51.5425 391.426C51.5425 392.171 52.9281 392.691 53.1706 392.033C53.3092 391.704 52.9801 389.955 52.7722 389.816C52.6856 389.781 52.3912 390.041 52.0794 390.422Z" fill="#EFE0C9"/>
<path d="M43.0728 403.462C43.1594 403.566 46.381 405.038 47.2124 405.35C47.5762 405.488 47.5588 405.436 47.0392 404.986C46.0693 404.155 44.8742 403.583 43.8869 403.462C43.3846 403.41 43.0036 403.41 43.0728 403.462Z" fill="#EFE0C9"/>
</svg>
