<svg width="72" height="72" viewBox="0 0 72 72" fill="none" xmlns="http://www.w3.org/2000/svg">
<path d="M42.7052 16.2503C43.1835 15.974 43.7952 16.1378 44.0714 16.6161L50.5096 27.7646C50.6882 28.0739 51.0183 28.2645 51.3755 28.2645H57.5C58.0523 28.2645 58.5 28.7122 58.5 29.2645V31.7645C58.5 32.3168 58.0523 32.7645 57.5 32.7645H56.7944C56.2743 32.7645 55.841 33.1632 55.7978 33.6814L54.171 53.2012C54.1242 53.7635 53.8678 54.2876 53.4528 54.6698C53.0377 55.0519 52.4942 55.2642 51.93 55.2645H20.07C19.5054 55.2648 18.9614 55.0527 18.5458 54.6705C18.1303 54.2883 17.8736 53.7639 17.8267 53.2012L16.1999 33.6814C16.1567 33.1632 15.7235 32.7645 15.2034 32.7645H14.5C13.9477 32.7645 13.5 32.3168 13.5 31.7645V29.2645C13.5 28.7122 13.9477 28.2645 14.5 28.2645H20.6222C20.9794 28.2645 21.3095 28.0739 21.4882 27.7646L27.9265 16.6159C28.2026 16.1377 28.8142 15.9738 29.2924 16.25L31.4575 17.5C31.9358 17.7761 32.0996 18.3877 31.8235 18.866L27.2631 26.7645C26.8782 27.4311 27.3593 28.2645 28.1291 28.2645H43.869C44.6387 28.2645 45.1199 27.4313 44.7351 26.7646L40.1762 18.8657C39.9002 18.3876 40.064 17.7762 40.542 17.5L42.7052 16.2503ZM51.2662 33.8473C51.3147 33.2644 50.8546 32.7645 50.2697 32.7645H21.7283C21.1433 32.7645 20.6832 33.2646 20.7318 33.8476L22.0658 49.8476C22.109 50.3659 22.5423 50.7645 23.0623 50.7645H48.9397C49.4598 50.7645 49.8931 50.3657 49.9362 49.8473L51.2662 33.8473ZM37.25 37.2645C37.8023 37.2645 38.25 37.7122 38.25 38.2645V45.2645C38.25 45.8168 37.8023 46.2645 37.25 46.2645H34.75C34.1977 46.2645 33.75 45.8168 33.75 45.2645V38.2645C33.75 37.7122 34.1977 37.2645 34.75 37.2645H37.25ZM28.25 37.2645C28.8023 37.2645 29.25 37.7122 29.25 38.2645V45.2645C29.25 45.8168 28.8023 46.2645 28.25 46.2645H25.75C25.1977 46.2645 24.75 45.8168 24.75 45.2645V38.2645C24.75 37.7122 25.1977 37.2645 25.75 37.2645H28.25ZM46.25 37.2645C46.8023 37.2645 47.25 37.7122 47.25 38.2645V45.2645C47.25 45.8168 46.8023 46.2645 46.25 46.2645H43.75C43.1977 46.2645 42.75 45.8168 42.75 45.2645V38.2645C42.75 37.7122 43.1977 37.2645 43.75 37.2645H46.25Z" fill="#0D0D0D"/>
</svg>
