<svg width="46" height="45" viewBox="0 0 46 45" fill="none" xmlns="http://www.w3.org/2000/svg">
<path d="M4.36574 0.0960693C2.13758 0.0960693 0.29232 1.94133 0.29232 4.16949V40.8303C0.29232 43.0584 2.13758 44.9037 4.36574 44.9037H41.0265C43.2547 44.9037 45.1 43.0584 45.1 40.8303V4.16949C45.1 1.94133 43.2547 0.0960693 41.0265 0.0960693H4.36574ZM4.36574 4.16949H41.0265V40.8303H30.4601V27.0825H35.7433L36.5071 20.9724H30.4621V17.0252C30.4621 15.2451 30.898 14.0353 33.452 14.0353H36.7617V8.4975C36.1975 8.42622 34.2402 8.30605 31.9896 8.30605C27.295 8.30605 24.0974 11.131 24.0974 16.3898V20.9724H18.751V27.0825H24.0954V40.8303H4.36574V4.16949Z" fill="#0D0D0D"/>
</svg>
