<svg width="161" height="205" viewBox="0 0 161 205" fill="none" xmlns="http://www.w3.org/2000/svg">
<path d="M15.7398 33.7976C15.2502 34.5062 14.6196 35.5463 14.3466 36.1058C13.7081 37.4285 12.9273 40.2924 12.8042 41.8056C12.681 43.3189 12.8184 45.9958 13.0844 47.2867C13.203 47.8349 13.2575 48.3079 13.218 48.3321C13.1785 48.3564 12.9522 48.2827 12.704 48.1735C12.1654 47.9155 10.881 47.9187 9.70266 48.1836C8.43666 48.4533 6.70429 49.499 6.18525 50.3073C5.98291 50.6275 5.75978 51.091 5.68323 51.3503C5.61199 51.6347 5.74124 51.9315 5.99803 52.073L6.65693 52.4362C8.05652 53.2119 8.96052 54.0954 9.90692 55.6391C10.3051 56.2887 10.0311 57.1403 9.32878 57.4358L9.05083 57.5527C6.84676 58.4791 4.32623 59.1258 2.86056 59.1584C2.21177 59.1641 1.59211 59.2172 1.5131 59.2657C0.907346 59.637 0.631837 61.9952 0.978686 63.7431C1.19686 64.8673 1.27833 65.0298 2.6324 67.2385C3.96463 69.4115 4.11472 69.5973 5.06273 70.4048C6.54314 71.6374 8.90595 72.95 10.937 73.6327C14.4501 74.8118 18.3505 75.2634 24.4322 75.1946C30.9873 75.1297 36.7531 74.4866 44.2729 72.9807C46.4247 72.5601 47.4873 72.4315 48.6649 72.461C49.5241 72.4735 50.9898 72.4408 51.9134 72.3811C54.4607 72.1918 60.2563 71.3018 63.0004 70.6651C64.7138 70.2682 68.5152 71.8587 71.6909 74.2903C73.335 75.5534 74.3627 76.6387 75.6183 78.4504C85.4445 92.5871 95.4062 104.255 119.728 130.156C149.729 162.1 158.403 172.761 175.309 198.356C176.785 200.588 178.333 202.906 178.744 203.488L178.917 203.728C179.242 204.181 179.861 204.306 180.336 204.015L180.704 203.79C180.966 203.629 181.048 203.286 180.887 203.023C180.734 202.774 178.975 200.111 176.999 197.124C158.817 169.713 150.728 159.74 120.741 127.82C101.341 107.168 92.941 97.6632 84.4694 86.8295C80.2147 81.367 79.6919 80.5439 78.4177 77.2243C76.3589 71.886 76.0442 67.4717 77.5025 64.176C77.8534 63.3891 78.1538 62.9925 79.1511 61.989C79.8189 61.3346 80.7299 60.3676 81.1606 59.8585C83.0446 57.6416 85.2267 54.0491 85.5499 52.6257C85.6563 52.1711 85.9262 51.7716 86.3081 51.5032L87.5385 50.6386C90.2751 48.7485 91.0648 47.7906 93.9178 42.8394C98.6701 34.6325 101.779 27.3511 102.754 22.1138C103.282 19.3396 103.242 18.1223 102.628 17.0612C102.117 16.1981 101.556 15.9045 100.558 15.961C99.2706 16.0478 98.1537 16.9449 96.9074 18.9016C96.1479 20.0861 95.9996 20.4057 93.1933 26.7334C92.1536 29.0862 91.0744 31.4633 90.8073 32.0029C90.7414 32.1402 90.5337 32.0688 90.5663 31.92L90.6402 31.5825C91.9759 25.4865 91.5912 18.3867 89.5321 11.1861C88.5823 7.86369 87.9426 6.37699 86.3105 3.68524C84.9637 1.48841 84.856 1.34212 84.2459 0.99725C82.9281 0.236719 81.5346 0.682565 80.6854 2.13445C79.9418 3.37451 79.3357 5.90268 79.2477 8.06422C79.2305 8.46679 78.7724 8.68852 78.446 8.4522L78.3279 8.3667C76.9609 7.40762 72.5566 4.86332 71.6776 4.55262C70.3037 4.05521 69.2304 4.40278 67.9518 5.77483C67.59 6.15999 67.2591 6.47724 67.1977 6.46583C67.1568 6.45823 66.5604 6.57882 65.8849 6.74785C65.1891 6.91307 64.2124 7.15236 63.6832 7.26441C62.9406 7.44198 62.5559 7.61244 61.9061 8.0598C60.9885 8.72039 60.5474 9.30122 59.6435 11.048C59.3264 11.6835 58.4582 13.1634 57.7118 14.3398C56.9728 15.5281 56.2483 16.7402 56.1132 17.0517C55.9589 17.3958 55.6204 17.6202 55.2434 17.6284L54.9487 17.6349C54.0428 17.6348 53.0225 17.8028 50.1499 18.4367C49.3063 18.627 48.0434 18.8131 47.3215 18.8472C46.4856 18.9023 45.8483 19.0152 45.5717 19.1848C45.3347 19.3301 44.6389 20.1161 44.0394 20.941C43.4327 21.7541 42.9154 22.447 42.8891 22.4632C42.8759 22.4713 42.8911 22.2005 42.9167 21.8581C42.9855 21.1134 42.91 20.931 42.4674 20.8592C41.7239 20.7105 39.8312 22.2629 37.2781 25.1025L36.5191 25.9495C35.9662 26.5664 35.1854 26.9309 34.3574 26.9584C32.7091 26.9887 30.3046 27.3518 29.0369 27.7369C27.6434 28.1827 24.404 30.1687 23.3744 31.2083C21.601 33.0144 19.6253 36.3822 18.6987 39.1559C18.4295 39.9581 18.1887 40.4815 18.1613 40.3186C18.1339 40.1557 18.0052 39.532 17.8779 38.9402C17.7507 38.3484 17.4642 37.0536 17.2516 36.0566C17.039 35.0597 16.8721 33.8713 16.9053 33.3935C16.9623 32.0679 16.9754 32.0598 15.7398 33.7976ZM16.2885 34.1311C16.3103 34.1667 16.3981 34.7827 16.4842 35.5142C16.5702 36.2456 16.8359 37.6838 17.0908 38.7202C17.6339 40.936 17.7769 42.3514 17.5813 43.5986C17.2226 45.9097 17.2303 48.4047 17.5855 50.3435C17.7617 51.2811 17.9361 51.7133 18.533 52.6871C19.2551 53.8945 19.2551 53.8945 18.8926 53.9533C18.2217 54.0706 16.1474 51.7806 14.9715 49.6261C13.7519 47.4003 13.1748 44.7153 13.2734 41.714C13.3289 39.7358 14.1915 36.8871 15.1679 35.4062C15.8716 34.3376 16.1939 33.9767 16.2885 34.1311ZM28.4262 29.696C30.0405 29.1965 32.2066 28.9469 34.9521 28.9628C36.257 28.9634 39.1152 28.9266 41.3159 28.8518C46.258 28.6974 48.4394 28.7978 50.487 29.2416C53.0327 29.7885 54.6687 30.7134 55.8445 32.2471C56.152 32.6459 56.1318 33.2072 55.7964 33.5828L55.1503 34.3065C49.981 40.0897 47.8105 45.031 48.0366 50.5125C48.0878 51.8372 48.025 51.794 47.2533 49.9145C45.32 45.2834 44.4945 40.6268 44.9365 36.9739C45.1386 35.4123 45.0218 35.3695 44.6956 36.8765C44.3427 38.5469 44.2189 40.3546 44.3478 42.2198C44.6146 46.4674 45.9114 50.149 49.0002 55.542L49.6545 56.6762C49.9337 57.1601 49.3784 57.6946 48.9055 57.3972C43.114 53.7428 41.3379 52.0869 38.8627 48.0495C36.8972 44.8433 36.3077 43.1135 36.0605 39.9321C35.9525 38.5443 35.8294 38.6687 35.7749 40.2052C35.5632 46.8048 39.817 53.3297 47.0992 57.5243C48.1601 58.1319 49.3306 58.7703 49.6956 58.9223C50.0547 59.0943 50.3115 59.2473 50.2588 59.2796C50.0745 59.3926 47.7312 59.1463 46.5702 58.8779C44.2349 58.3491 41.0857 57.1428 37.8367 55.5077C34.1862 53.6612 30.3568 50.8135 27.32 47.6922C27.1705 47.5409 27.0254 47.3947 26.8916 47.2613C26.4369 46.8078 26.2628 46.9008 26.6155 47.4374C27.042 48.0864 27.6873 48.9703 28.1781 49.5352C29.5393 51.135 30.7816 52.3339 32.427 53.6288C33.7996 54.7151 36.9253 56.6219 38.7339 57.4737C39.1689 57.6808 39.5016 57.8689 39.4753 57.8851C39.4095 57.9254 36.1269 56.9153 33.1905 55.9381C28.594 54.4102 25.5371 53.7682 22.6879 53.7015C20.8206 53.67 20.7228 53.5992 19.5847 51.5359C18.6882 49.8962 18.2503 48.3839 18.0808 46.3639C17.8082 42.757 19.0014 38.3494 21.0787 35.2952C21.6445 34.4745 23.1342 32.826 23.9877 32.0904C24.8997 31.3025 27.119 30.1053 28.4262 29.696ZM63.4744 8.5197C63.9496 8.40813 64.7727 8.21394 65.315 8.09383C65.6755 8.01357 65.9484 8.41565 65.7407 8.72102L64.8329 10.0559C62.9154 12.8978 61.0445 16.4955 60.3295 18.6983L60.0318 19.6281C59.9375 19.9228 59.534 19.9564 59.3922 19.6814C58.9484 18.8098 58.2687 18.2626 57.1575 17.8982C56.7458 17.7585 56.413 17.5704 56.4293 17.4787C56.4324 17.3951 56.8475 16.6832 57.3606 15.8948C57.8679 15.1264 58.7157 13.6427 59.2455 12.6154C59.768 11.5762 60.4103 10.4962 60.674 10.1875C61.3376 9.43761 62.451 8.77134 63.4744 8.5197ZM41.8801 22.1178C42.1477 22.0518 42.4121 22.0694 42.4703 22.1644C42.6305 22.4257 42.2955 23.2682 41.8575 23.7654C41.2379 24.4394 40.4213 25.7079 40.1656 26.3548C40.0301 26.7038 39.694 26.9336 39.3197 26.9333L38.237 26.9326L38.1744 26.9326C37.5434 26.9322 37.2121 26.1835 37.6362 25.7162C38.9588 24.2682 40.4187 22.8667 40.9777 22.5077C41.1943 22.3585 41.5994 22.1919 41.8801 22.1178ZM46.4962 20.0721C47.6184 20.0703 48.4647 19.9436 50.9762 19.4004C53.7626 18.8032 54.847 18.7102 56.2375 18.9687C57.6412 19.2191 58.7108 19.8704 59.0977 20.6788C59.4104 21.3367 59.4361 21.615 59.5398 26.3057L59.5807 28.074C59.6032 29.0461 59.2393 29.9874 58.5687 30.6914C57.9931 31.2893 57.378 31.9115 57.2155 32.0602C57.0659 32.2009 56.8231 32.1592 56.7292 31.9765L56.444 31.4222C55.8459 30.2694 55.1679 29.6068 53.7451 28.7636C51.6977 27.5518 48.682 26.7702 45.8547 26.7391C45.1781 26.729 43.6789 26.7659 42.5595 26.8314C41.4327 26.885 40.4991 26.8692 40.4758 26.8018C40.4006 26.4721 41.273 25.0877 42.3483 23.8567C42.9782 23.1111 43.7987 22.0852 44.1813 21.5566C45.0153 20.3754 45.5084 20.0568 46.4962 20.0721ZM69.8711 6.06854C70.6807 6.02966 71.6602 6.47478 74.4286 8.09418C77.2451 9.73306 78.4867 10.6057 79.7407 11.7647C83.7422 15.4546 86.0356 20.4366 87.1007 27.7891C87.3064 29.2478 87.5989 33.1529 87.4966 33.1339C87.4557 33.1263 87.3735 32.6376 87.3003 32.0453C87.2271 31.453 86.9798 30.2813 86.7478 29.4596C86.3636 28.094 86.192 27.7254 85.049 25.8611C83.9861 24.1274 83.67 23.7004 83.1244 23.2833C82.0815 22.4686 81.2597 22.0739 80.1191 21.8092C78.6162 21.4562 77.0906 21.5092 73.5023 22.01C70.0761 22.5093 68.9026 22.5753 67.1028 22.388C65.5879 22.2221 65.2705 22.384 64.3204 23.8487C63.3894 25.2854 60.5411 28.796 60.0802 29.0786C60.0275 29.1109 60.0344 28.6492 60.0956 28.0398C60.1642 27.4424 60.1896 25.8584 60.1457 24.5456C60.0631 21.5737 60.1956 20.4305 60.7915 18.5948C61.7022 15.7656 64.1469 11.6854 67.0933 8.09828C68.2742 6.65544 69.0148 6.11975 69.8711 6.06854ZM82.4644 2.4652C83.7325 2.55366 84.6962 3.56397 86.2708 6.48703C88.234 10.1031 89.6467 14.8899 90.4336 20.5178C91.2018 26.0265 90.8666 30.2674 89.2938 34.4991C88.5999 36.4113 87.6496 38.644 87.5048 38.7328C87.4521 38.7651 87.5674 38.1552 87.7635 37.3815C89.4731 30.7132 89.7818 23.2374 88.5663 18.4767C88.1359 16.829 87.7528 15.6425 87.6939 15.842C87.6776 15.9337 87.7966 16.9553 87.9885 18.0957C88.6702 22.3994 88.904 26.3568 88.6859 29.8725C88.568 31.6602 88.1876 34.5565 88.0559 34.6372C87.9769 34.6857 87.9814 34.6339 88.063 33.4076C88.083 32.9378 88.0727 31.6207 88.0227 30.4751C87.6404 21.5767 85.5353 15.3355 81.4957 11.0809L81.1505 10.7177C80.7094 10.2537 80.4091 9.67404 80.2844 9.04606C80.1731 8.50982 80.0406 7.64348 80.0038 7.11057C79.8993 6.11266 80.2802 4.31069 80.7511 3.48288C81.0958 2.86308 81.8406 2.42286 82.4644 2.4652ZM8.24553 49.6488C9.46957 49.1924 10.7938 49.0178 11.8017 49.1841C13.1221 49.3875 13.3117 49.549 14.5043 51.4646C15.3983 52.8934 15.6985 53.2648 16.2864 53.7213C16.6846 54.0163 17.007 54.2762 17.0011 54.2961C16.9952 54.3161 16.5287 54.4713 15.9819 54.6432C15.4218 54.8232 14.2914 55.2548 13.4621 55.6162C11.9688 56.2539 11.9483 56.2501 11.4624 55.9599C11.1151 55.748 10.7303 55.2977 10.0852 54.3045C9.12113 52.8206 8.40084 52.1186 7.10489 51.3937C6.66851 51.1547 6.2862 50.9153 6.27165 50.8916C6.24252 50.8441 6.62613 50.4945 7.09152 50.1602C7.18959 50.0837 7.7205 49.8563 8.24553 49.6488ZM3.19244 60.409C5.00154 60.3456 6.52084 59.8389 11.1955 57.7409C16.0295 55.5779 18.3615 54.9488 21.8217 54.9187C24.4096 54.8843 28.3093 55.6303 32.7776 57.0081C37.9044 58.603 42.4679 59.8407 45.4708 60.4832C46.5691 60.7084 46.6041 60.7359 46.2049 60.8827C45.4459 61.1519 42.5764 61.7021 41.432 61.8155C39.782 61.9612 38.2757 61.839 36.0645 61.3648C31.7311 60.4435 30.7728 60.3284 29.3069 60.5083C27.129 60.7978 25.7595 61.6374 25.0534 63.1159C24.8802 63.4835 24.7621 64.0297 24.776 64.348C24.8298 65.1155 25.1303 65.3397 27.2997 66.248C28.2428 66.6338 29.3887 67.173 29.8528 67.4276C31.9251 68.5914 35.5574 70.0242 38.5759 70.8695C39.582 71.1512 40.3369 71.4073 40.2842 71.4396C40.0999 71.5526 33.9326 71.3635 31.9574 71.1857C28.3606 70.8747 25.0614 70.1036 22.2935 68.9577C21.0059 68.4237 17.9849 66.7468 17.8174 66.4737C17.7738 66.4025 17.6424 66.336 17.5343 66.3369C17.204 66.3597 18.1559 67.4099 19.3461 68.3466C22.9797 71.2001 28.189 72.5157 36.259 72.6166C37.3212 72.6353 38.3966 72.6458 38.6334 72.6477C39.4721 72.6564 37.2225 73.0062 34.4222 73.2852C25.026 74.2424 17.0177 74.0056 12.2923 72.6221C6.6425 70.972 2.60328 67.191 1.6124 62.6194C1.46188 61.9601 1.34808 61.213 1.32378 60.9665C1.32197 60.4611 1.2752 60.4735 3.19244 60.409ZM65.6294 23.9447C65.8852 23.9187 66.3205 23.9785 66.6155 24.0755C67.4944 24.3862 69.6075 24.3161 72.9883 23.8609C74.7627 23.6226 76.6875 23.4228 77.2618 23.4139C80.697 23.4317 83.1091 24.9428 84.9458 28.2934C87.2512 32.4675 87.4846 37.961 85.5298 41.8061C85.1574 42.5391 84.6166 43.1733 83.9516 43.6567L82.0933 45.0075C79.5439 46.8482 77.5811 48.3456 76.2255 49.5034C75.7497 49.9095 75.5379 49.8596 75.7333 49.3803C76.1241 48.4219 75.8051 45.3009 75.0686 42.6809C73.7144 37.8419 71.6922 33.8046 70.0493 32.7206C69.5547 32.3866 69.1658 32.4616 69.2584 32.8786C69.2917 33.0216 70.0614 34.543 70.962 36.2781C72.7998 39.8077 73.204 40.7035 73.9734 42.9929C74.6194 44.9332 75.3266 48.2736 75.3212 49.3879C75.3283 50.1678 75.2974 50.2357 74.6342 50.8384C70.9562 54.2369 69.5026 56.0919 68.9914 58.0065C68.8351 58.6087 68.6806 59.0955 68.6397 59.0879C67.8613 58.9116 64.8782 57.9467 64.2637 57.6536C63.0842 57.1187 61.5595 56.1093 60.4759 55.1398C59.6811 54.4344 59.3868 54.043 58.4026 52.4081C57.3543 50.6981 57.2118 50.377 56.9527 49.2452C56.8008 48.5541 56.6454 47.4731 56.6321 46.8604C56.5984 46.2439 56.5484 45.719 56.5075 45.7114C56.3512 45.6929 56.3315 48.025 56.4665 49.1022C56.8058 51.6062 58.2275 54.2799 60.2078 56.121C61.6179 57.4458 64.998 59.2947 66.733 59.7014C67.4778 59.8819 67.1562 59.9484 65.1 60.0817C63.0292 60.1912 61.3386 60.1821 57.9023 59.9851C55.2052 59.8414 55.0417 59.811 54.2143 59.2889C52.3523 58.1432 51.7443 57.5356 50.5504 55.5882C49.5822 54.0089 49.431 53.6441 49.1064 52.4053C47.746 47.1127 49.074 42.5409 53.5322 37.1937C54.1359 36.4642 56.0136 34.4144 57.7081 32.6567C60.7984 29.4225 62.8303 27.0332 63.9651 25.3082C64.6366 24.2757 64.9498 24.0183 65.6294 23.9447ZM99.6375 17.9467C99.9633 17.9757 100.257 18.5143 100.199 19.0401C100.143 19.7768 97.7534 25.5716 96.221 28.7166C93.9194 33.4442 91.0875 37.4839 88.1649 40.2233C88.0934 40.2898 88.023 40.3549 87.9543 40.4181C87.2817 41.0371 87.0631 40.8815 87.4683 40.0622C88.9345 37.1047 91.9251 30.6641 93.5039 27.0331C95.9419 21.405 96.8177 19.7898 98.0358 18.7326C98.576 18.2544 99.2577 17.9182 99.6375 17.9467ZM27.5535 62.4655C29.6412 61.9698 30.8216 62.063 34.6552 62.9966C36.0017 63.3311 37.6508 63.6272 38.3214 63.6572C40.0221 63.7418 42.3344 63.4352 45.6544 62.6742C47.2275 62.3143 49.0767 61.9321 49.755 61.8267C51.3526 61.5661 54.2999 61.5564 57.6163 61.7942C65.5173 62.3582 70.3834 61.5479 75.9729 58.7257C78.3938 57.5029 80.7822 55.8427 82.8554 53.9344C83.8891 52.9903 84.7576 52.752 84.8468 53.3998C84.8929 53.6819 82.659 56.8649 81.3977 58.3244C77.0147 63.3804 71.5511 66.7626 64.8754 68.5517C61.1266 69.5592 53.5361 70.6837 50.3199 70.7276C45.5826 70.7727 40.8836 69.9939 35.9353 68.3059C32.6749 67.1842 30.1201 66.12 28.9586 65.378C28.3122 64.9738 27.2658 64.39 26.6104 64.0893C25.9681 63.7805 25.4149 63.4988 25.4004 63.475C25.3057 63.3207 26.6836 62.672 27.5535 62.4655ZM102.174 19.3652C102.889 22.423 101.128 28.0611 96.8249 36.4989C93.9104 42.2067 91.6024 45.86 89.8657 47.5782C88.867 48.5499 86.0583 50.6475 84.6202 51.4639C84.1125 51.7588 83.3265 52.3386 82.8712 52.7485C79.8024 55.5448 75.3565 57.9273 71.001 59.1271C70.2129 59.3488 69.5097 59.5022 69.4411 59.4789C69.1447 59.3501 69.3961 57.987 69.8701 57.0756C70.5246 55.8085 71.6743 54.5808 74.1704 52.4461C77.0778 49.9775 78.7727 48.6934 81.8984 46.581C83.4482 45.5329 85.3156 44.1756 86.1501 43.468C90.4408 39.8573 93.7665 35.2044 96.8718 28.4483C98.3106 25.328 100.522 19.9207 100.868 18.712L100.98 18.3041C101.059 18.0197 101.433 17.9549 101.602 18.1962C101.84 18.5245 102.093 19.0555 102.174 19.3652Z" fill="#D1680E"/>
</svg>
