<svg width="45" height="46" viewBox="0 0 45 46" fill="none" xmlns="http://www.w3.org/2000/svg">
<path fill-rule="evenodd" clip-rule="evenodd" d="M22.4394 12.4836C19.7385 12.4836 17.1483 13.5565 15.2385 15.4663C13.3287 17.3761 12.2558 19.9663 12.2558 22.6672C12.2558 25.368 13.3287 27.9583 15.2385 29.868C17.1483 31.7778 19.7385 32.8507 22.4394 32.8507C25.1402 32.8507 27.7304 31.7778 29.6402 29.868C31.55 27.9583 32.6229 25.368 32.6229 22.6672C32.6229 19.9663 31.55 17.3761 29.6402 15.4663C27.7304 13.5565 25.1402 12.4836 22.4394 12.4836ZM16.3292 22.6672C16.3292 24.2877 16.973 25.8418 18.1188 26.9877C19.2647 28.1336 20.8189 28.7773 22.4394 28.7773C24.0599 28.7773 25.614 28.1336 26.7599 26.9877C27.9058 25.8418 28.5495 24.2877 28.5495 22.6672C28.5495 21.0467 27.9058 19.4925 26.7599 18.3467C25.614 17.2008 24.0599 16.5571 22.4394 16.5571C20.8189 16.5571 19.2647 17.2008 18.1188 18.3467C16.973 19.4925 16.3292 21.0467 16.3292 22.6672Z" fill="#0D0D0D"/>
<path d="M34.6598 8.41028C34.1196 8.41028 33.6016 8.62486 33.2196 9.00682C32.8377 9.38877 32.6231 9.90682 32.6231 10.447C32.6231 10.9872 32.8377 11.5052 33.2196 11.8872C33.6016 12.2691 34.1196 12.4837 34.6598 12.4837C35.2 12.4837 35.718 12.2691 36.1 11.8872C36.4819 11.5052 36.6965 10.9872 36.6965 10.447C36.6965 9.90682 36.4819 9.38877 36.1 9.00682C35.718 8.62486 35.2 8.41028 34.6598 8.41028Z" fill="#0D0D0D"/>
<path fill-rule="evenodd" clip-rule="evenodd" d="M8.18273 0.263672C6.02205 0.263672 3.94987 1.122 2.42204 2.64983C0.894214 4.17766 0.0358887 6.24984 0.0358887 8.41051V36.9245C0.0358887 39.0851 0.894214 41.1573 2.42204 42.6851C3.94987 44.213 6.02205 45.0713 8.18273 45.0713H36.6967C38.8574 45.0713 40.9295 44.213 42.4574 42.6851C43.9852 41.1573 44.8435 39.0851 44.8435 36.9245V8.41051C44.8435 6.24984 43.9852 4.17766 42.4574 2.64983C40.9295 1.122 38.8574 0.263672 36.6967 0.263672H8.18273ZM36.6967 4.33709H8.18273C7.10239 4.33709 6.0663 4.76626 5.30239 5.53017C4.53847 6.29408 4.10931 7.33018 4.10931 8.41051V36.9245C4.10931 38.0048 4.53847 39.0409 5.30239 39.8048C6.0663 40.5687 7.10239 40.9979 8.18273 40.9979H36.6967C37.777 40.9979 38.8131 40.5687 39.577 39.8048C40.3409 39.0409 40.7701 38.0048 40.7701 36.9245V8.41051C40.7701 7.33018 40.3409 6.29408 39.577 5.53017C38.8131 4.76626 37.777 4.33709 36.6967 4.33709Z" fill="#0D0D0D"/>
</svg>
