<svg width="80" height="100" viewBox="0 0 80 100" fill="none" xmlns="http://www.w3.org/2000/svg">
<path d="M9.73036 10.4349C12.0317 13.8045 14.7715 15.2175 21.3468 16.8479C23.7578 17.5001 26.7167 18.3697 27.9221 18.8045L30.1139 19.674L27.9221 17.8262C25.7304 15.9784 25.7304 15.9784 28.4701 16.5219C30.0043 16.8479 31.5386 17.174 32.0865 17.174C32.5249 17.174 32.8536 18.0436 32.8536 19.1306C32.8536 20.2175 33.4016 21.6306 34.1687 22.3914C35.155 23.3697 34.8262 23.9132 32.7441 24.5653C30.1139 25.5436 30.1139 25.6523 34.1687 28.0436C36.4701 29.3479 38.1139 30.761 37.7852 31.3045C37.566 31.7393 38.5523 31.9566 40.1961 31.7393C43.9221 31.4132 49.9495 34.2393 51.2646 37.174C51.9221 38.4784 52.4701 38.8045 52.4701 38.0436C52.5797 37.3914 53.3468 36.7393 54.2235 36.7393C55.2098 36.7393 55.5386 37.3914 55.1002 38.4784C54.7715 39.348 55.429 41.1958 56.7441 42.5001C58.3879 44.2393 58.9358 46.3045 58.9358 50.0001C58.9358 52.8262 59.2646 55.6523 59.703 56.3045C60.6893 57.9349 62.4427 57.6088 62.4427 55.761C62.4427 54.8914 62.9906 54.1306 63.5386 54.1306C65.292 54.1306 64.8536 57.6088 62.7715 59.7827C61.7852 60.8697 61.4564 61.7393 62.0043 61.7393C62.5523 61.7393 63.6482 60.761 64.4153 59.4566C65.1824 58.1523 66.1687 57.5001 66.4975 57.8262C66.8262 58.1523 68.5797 57.6088 70.2235 56.7393C72.9632 55.4349 73.292 54.7827 72.3057 53.0436C71.5386 51.6306 71.429 47.9349 71.8673 43.4784L72.5249 36.0871L64.4153 27.8262C57.0728 20.2175 55.7578 19.4566 48.5249 17.2827C41.8399 15.3262 40.1961 15.2175 38.3331 16.3045C36.3605 17.5001 35.8125 17.3914 34.6071 15.8697C33.8399 14.7827 32.9632 14.2393 32.6345 14.4566C32.3057 14.7827 30.6619 14.4566 28.9084 13.8045C27.155 13.1523 23.8673 12.6088 21.566 12.7175C18.9358 12.9349 15.7578 12.0653 12.5797 10.2175L7.53857 7.50012L9.73036 10.4349ZM53.2372 34.674C53.566 35.3262 52.6893 35.0001 51.0454 34.0219C49.5112 32.9349 48.1961 31.9566 48.1961 31.6306C48.1961 30.8697 52.4701 33.4784 53.2372 34.674Z" fill="black"/>
<path d="M10.2784 30.4348C9.84003 33.0435 9.51126 35.5435 9.62085 36.1957C9.73044 36.7392 10.2784 41.1957 10.9359 45.9783C15.8674 82.7174 17.0729 86.6305 24.4154 90.6522C29.1277 93.1522 30.5524 93.4783 35.9222 92.8261C46.6619 91.5218 55.4291 85 61.2373 73.9131C62.5524 71.4131 61.8948 62.8261 60.4702 62.8261C60.0318 62.8261 58.6071 64.5652 57.1825 66.6305C55.8674 68.6957 52.6893 71.7392 50.2784 73.3696C47.7578 75.1087 44.4702 77.2826 42.8263 78.2609C41.2921 79.3479 38.4428 80.2174 36.4702 80.2174C33.0729 80.2174 32.9633 80.1087 33.0729 75C33.1825 71.8479 31.8674 66.4131 29.7852 60.6522C27.3743 54.3479 26.2784 49.4566 26.2784 45.1087C26.2784 38.9131 22.8811 28.4783 20.3606 26.7392C19.703 26.3044 17.4017 25.8696 15.1003 25.8696C11.2647 25.8696 11.0455 26.087 10.2784 30.4348ZM29.7852 76.087C29.1277 76.7392 28.1414 75.2174 26.9359 71.9566C24.4154 64.5652 24.8537 63.587 28.0318 69.7826C29.7852 73.1522 30.4428 75.4348 29.7852 76.087Z" fill="black"/>
<path d="M36.9083 35.3263C36.4699 35.6524 36.1411 37.0654 36.2507 38.2611C36.2507 40.3263 36.3603 40.3263 37.3466 37.935C38.4425 35.3263 38.2233 34.022 36.9083 35.3263Z" fill="black"/>
</svg>
