<svg width="235" height="77" viewBox="0 0 235 77" fill="none" xmlns="http://www.w3.org/2000/svg">
<path d="M63.024 50V48.624H65.872V30.224H63.024V28.848H80.592L79.312 35.472H78.032L77.808 31.632C77.744 30.48 77.552 30.32 76.848 30.32H70.736V38.736H74.832V36.08H76.496V43.28H74.832V40.304H70.736V48.624H73.872V50H63.024ZM81.649 50V48.624H84.497V30.224H81.649V28.848H99.409L98.097 35.472H96.817L96.625 31.632C96.561 30.48 96.401 30.32 95.665 30.32H89.361V38.736H93.297V36.08H94.993V43.28H93.297V40.304H89.361V48.528H94.865C96.145 48.528 96.881 47.984 98.033 43.056H99.377C99.377 43.056 99.121 46.576 99.121 48.336V50H81.649ZM101.805 50V48.624H104.653V30.224H101.805V28.848H112.013C117.741 28.848 119.917 31.056 119.917 34.192C119.917 36.656 118.573 38.64 114.829 39.44V39.568C118.189 40.624 119.149 42.512 119.245 45.296C119.277 46.672 119.405 48.272 120.333 48.272C120.941 48.272 121.421 47.312 121.645 46.736L122.925 47.344C122.381 48.752 121.421 50.288 118.957 50.288C115.213 50.288 114.285 47.76 114.125 44.816C113.901 40.944 113.069 40.24 111.437 40.24H109.517V48.624H112.173V50H101.805ZM109.517 38.672H111.437C113.773 38.672 114.861 37.648 114.861 34.512C114.861 31.408 113.773 30.32 111.437 30.32H109.517V38.672ZM123.963 50V48.624H126.843V30.224H123.611V28.848H132.347L137.403 42.864L142.651 28.848H150.491V30.224H147.771V48.624H150.619V50H140.187V48.624H142.907V32.848L136.507 50H134.907L128.539 32.88V48.624H131.419V50H123.963ZM152.649 50V48.624H155.497V30.224H152.649V28.848H170.409L169.097 35.472H167.817L167.625 31.632C167.561 30.48 167.401 30.32 166.665 30.32H160.361V38.736H164.297V36.08H165.993V43.28H164.297V40.304H160.361V48.528H165.865C167.145 48.528 167.881 47.984 169.033 43.056H170.377C170.377 43.056 170.121 46.576 170.121 48.336V50H152.649ZM173.157 50V48.624H176.005V32.048C175.269 30.992 174.661 30.224 172.837 30.224H172.197V28.848H179.749L190.469 42.384V30.224H187.621V28.848H195.013V30.224H192.165V50.16H190.565L177.701 34.064V48.624H180.549V50H173.157ZM200.934 50V48.624H203.782V30.32H200.646C199.238 30.32 198.95 30.736 197.67 35.536H196.294C196.294 35.536 196.486 32.304 196.486 30.736V28.848H216.294L215.878 35.536H214.598L213.798 32.656C213.222 30.576 212.838 30.32 211.942 30.32H208.646V48.624H211.494V50H200.934ZM218.415 50.16C218.415 50.16 218.607 48.016 218.607 46.032V42.736H220.335V44.624C220.335 46.8 222.607 48.944 225.903 48.944C228.047 48.944 229.647 48.016 229.647 46C229.647 40.72 218.447 43.12 218.447 34.832C218.447 31.248 220.847 28.4 225.615 28.4C229.295 28.4 230.447 30.064 230.447 30.064L231.279 28.688H232.687C232.687 28.688 232.047 31.6 232.047 32.816V35.472H230.319V33.648C230.319 31.6 228.431 29.904 225.583 29.904C222.895 29.904 221.935 31.184 221.935 32.816C221.935 38.192 233.231 35.92 233.231 43.792C233.231 47.664 230.511 50.448 225.935 50.448C222.095 50.448 220.367 48.336 220.367 48.336L219.823 50.16H218.415Z" fill="#0D0D0D"/>
<path d="M7.49236 8.03471C9.26441 10.6293 11.374 11.7173 16.437 12.9728C18.2935 13.4749 20.5718 14.1445 21.5 14.4793L23.1877 15.1488L21.5 13.726C19.8124 12.3032 19.8124 12.3032 21.9219 12.7217C23.1033 12.9728 24.2847 13.2238 24.7066 13.2238C25.0441 13.2238 25.2973 13.8934 25.2973 14.7304C25.2973 15.5673 25.7192 16.6554 26.3099 17.2412C27.0693 17.9945 26.8162 18.413 25.2129 18.9151C23.1877 19.6684 23.1877 19.7521 26.3099 21.5934C28.0819 22.5978 29.3477 23.6858 29.0946 24.1043C28.9258 24.4391 29.6852 24.6065 30.951 24.4391C33.82 24.188 38.4611 26.3641 39.4737 28.6238C39.98 29.6282 40.402 29.8793 40.402 29.2934C40.4863 28.7912 41.077 28.2891 41.7521 28.2891C42.5115 28.2891 42.7647 28.7912 42.4272 29.6282C42.174 30.2978 42.6803 31.7206 43.6929 32.7249C44.9587 34.0641 45.3806 35.6543 45.3806 38.4999C45.3806 40.676 45.6337 42.8521 45.9713 43.3543C46.7307 44.6097 48.0809 44.3586 48.0809 42.9358C48.0809 42.2662 48.5028 41.6804 48.9247 41.6804C50.2748 41.6804 49.9373 44.3586 48.334 46.0325C47.5746 46.8695 47.3214 47.5391 47.7433 47.5391C48.1652 47.5391 49.0091 46.7858 49.5998 45.7815C50.1904 44.7771 50.9499 44.2749 51.203 44.526C51.4562 44.7771 52.8063 44.3586 54.0721 43.6891C56.1817 42.6847 56.4348 42.1825 55.6754 40.8434C55.0847 39.7554 55.0003 36.9097 55.3378 33.4782L55.8441 27.7869L49.5998 21.426C43.9461 15.5673 42.9335 14.9815 37.3641 13.3075C32.2167 11.801 30.951 11.7173 29.5165 12.5543C27.9976 13.4749 27.5756 13.3912 26.6474 12.2195C26.0567 11.3825 25.3817 10.9641 25.1285 11.1315C24.8754 11.3825 23.6096 11.1315 22.2595 10.6293C20.9093 10.1271 18.3778 9.70863 16.6058 9.79232C14.5806 9.95971 12.1335 9.29015 9.68633 7.86732L5.80469 5.77493L7.49236 8.03471ZM40.9926 26.6988C41.2458 27.201 40.5707 26.9499 39.305 26.1967C38.1236 25.3597 37.111 24.6065 37.111 24.3554C37.111 23.7695 40.402 25.7782 40.9926 26.6988Z" fill="#0D0D0D"/>
<path d="M7.91426 23.4349C7.57672 25.4436 7.32357 27.3686 7.40796 27.8708C7.49234 28.2892 7.91426 31.7207 8.42056 35.4034C12.2178 63.6925 13.146 66.7055 18.7997 69.8023C22.4282 71.7273 23.5252 71.9784 27.66 71.4762C35.9296 70.4718 42.6803 65.4501 47.1526 56.9131C48.1652 54.9881 47.6589 48.3762 46.5619 48.3762C46.2244 48.3762 45.1274 49.7153 44.0304 51.3055C43.0178 52.8958 40.5707 55.2392 38.7143 56.4947C36.7734 57.8338 34.2419 59.5077 32.9762 60.261C31.7948 61.0979 29.6008 61.7675 28.0819 61.7675C25.466 61.7675 25.3817 61.6838 25.466 57.7501C25.5504 55.3229 24.5378 51.1381 22.9345 46.7023C21.0781 41.8479 20.2343 38.0816 20.2343 34.7338C20.2343 29.9631 17.6184 21.9284 15.6775 20.5892C15.1712 20.2544 13.3992 19.9197 11.6271 19.9197C8.67371 19.9197 8.50494 20.0871 7.91426 23.4349ZM22.9345 58.5871C22.4282 59.0892 21.6688 57.9175 20.7406 55.4066C18.7997 49.7153 19.1373 48.9621 21.5844 53.7327C22.9345 56.3273 23.4408 58.0849 22.9345 58.5871Z" fill="#0D0D0D"/>
<path d="M28.4196 27.2012C28.0821 27.4523 27.8289 28.5404 27.9133 29.461C27.9133 31.0512 27.9977 31.0512 28.7572 29.2099C29.601 27.2012 29.4322 26.1969 28.4196 27.2012Z" fill="#0D0D0D"/>
</svg>
