<svg width="38" height="39" viewBox="0 0 38 39" fill="none" xmlns="http://www.w3.org/2000/svg">
<path d="M0 5.96228C0 3.20086 2.23858 0.96228 5 0.96228H33C35.7614 0.96228 38 3.20086 38 5.96228V33.1857C38 35.9471 35.7614 38.1857 33 38.1857H5C2.23858 38.1857 0 35.9471 0 33.1857V5.96228ZM7.23893 5.09821C5.14887 5.09821 3.45455 6.79254 3.45455 8.88259L19 18.2918L34.5455 8.88259C34.5455 6.79254 32.8511 5.09821 30.7611 5.09821H7.23893ZM34.5455 13.5148L19 22.9241L3.45455 13.5148V29.0498C3.45455 31.8112 5.69312 34.0498 8.45455 34.0498H29.5454C32.3069 34.0498 34.5455 31.8112 34.5455 29.0498V13.5148Z" fill="#0D0D0D"/>
</svg>
