<svg width="47" height="47" viewBox="0 0 47 47" fill="none" xmlns="http://www.w3.org/2000/svg">
<path d="M18.9897 1.53154C14.3632 2.52491 10.662 4.62716 7.16903 8.27722C3.05148 12.5972 1.10836 17.4255 1.10836 23.4781C1.08523 29.1149 2.5657 33.4118 5.94302 37.6394C9.32034 41.867 13.9468 44.6854 19.3367 45.7943C20.1 45.956 22.0894 46.0715 23.7318 46.0715C29.7925 46.0715 34.6271 44.131 38.9529 40.0189C42.1683 36.9695 44.042 33.9432 45.2911 29.9004C45.8694 28.006 45.9157 27.5902 45.9157 23.5936C45.9157 19.597 45.8695 19.1812 45.268 17.2407C43.0242 9.94054 37.1948 4.14203 29.9313 1.97047C28.1963 1.43914 27.3636 1.34673 24.1944 1.27742C21.6268 1.23122 20.0306 1.30053 18.9897 1.53154ZM26.1607 3.98032C30.6946 4.53476 33.9563 6.19807 37.4955 9.73263C41.1273 13.3596 42.7234 16.5938 43.3018 21.3528C44.0883 28.1446 41.3124 34.821 35.8994 39.1179C32.6146 41.7515 28.9828 43.1376 24.8653 43.3917C17.8793 43.8076 11.8418 40.9661 7.49289 35.26C4.0693 30.7551 2.82015 23.9401 4.41629 18.3264C6.19748 11.9966 11.5179 6.5446 17.7174 4.67336C20.6783 3.7724 23.0378 3.58759 26.1607 3.98032Z" fill="#0D0D0D" stroke="#0D0D0D"/>
<path d="M16.4919 15.5299C14.8495 16.015 14.2481 18.5562 15.4741 19.8961C16.677 21.2591 18.9902 21.005 19.7998 19.4341C20.3781 18.3021 20.2393 17.2163 19.4066 16.3384C18.5507 15.4606 17.6485 15.2065 16.4919 15.5299Z" fill="#0D0D0D"/>
<path d="M28.7524 15.5299C27.11 16.015 26.5085 18.5562 27.7345 19.8961C28.9374 21.2591 31.2507 21.005 32.0603 19.4341C32.6386 18.3021 32.4998 17.2163 31.667 16.3384C30.8111 15.4606 29.909 15.2065 28.7524 15.5299Z" fill="#0D0D0D"/>
<path d="M7.42313 22.4839C7.44626 23.6621 8.09396 26.5729 8.64914 27.8897C10.4535 32.3252 14.8717 36.137 19.5676 37.3383C22.8755 38.193 27.849 37.6155 30.7868 36.0446C35.6909 33.4341 39.3226 27.9359 39.3458 23.0615V21.9757H37.981C36.4774 21.9757 36.3386 22.1143 36.3386 23.4773C36.3386 24.7017 35.4827 27.1042 34.5342 28.5828C32.6143 31.5167 29.3526 33.8037 26.1835 34.4737C24.356 34.8433 20.8168 34.6354 19.105 34.0116C17.3469 33.3879 14.8486 31.7015 13.6457 30.3154C12.2347 28.6983 10.9392 25.8799 10.6154 23.7545L10.3378 21.9757H8.88046C7.51566 21.9757 7.42313 22.0219 7.42313 22.4839Z" fill="#0D0D0D" stroke="#0D0D0D"/>
</svg>
