<svg width="42" height="39" viewBox="0 0 42 39" fill="none" xmlns="http://www.w3.org/2000/svg">
<path d="M36.8333 1.59351H5.16667C4.32681 1.59351 3.52136 1.90356 2.9275 2.45545C2.33363 3.00735 2 3.75588 2 4.53638V33.9651C2 34.7456 2.33363 35.4942 2.9275 36.0461C3.52136 36.598 4.32681 36.908 5.16667 36.908H36.8333C37.6732 36.908 38.4786 36.598 39.0725 36.0461C39.6664 35.4942 40 34.7456 40 33.9651V4.53638C40 3.75588 39.6664 3.00735 39.0725 2.45545C38.4786 1.90356 37.6732 1.59351 36.8333 1.59351Z" stroke="#0D0D0D" stroke-width="3"/>
<path d="M16.1865 9.43982C16.6552 9.43982 17.088 9.67623 17.316 10.0578L18.8951 12.7015C19.102 13.0478 19.1115 13.4667 18.9204 13.8198L17.8332 16.3065C17.8332 16.3065 18.0992 18.5156 19.9443 20.2304C21.7894 21.9451 24.1665 22.1923 24.1665 22.1923L26.8339 21.174C27.2139 20.9975 27.6657 21.0073 28.0383 21.1986L30.8915 22.673C31.301 22.8848 31.5554 23.2861 31.5554 23.7226V26.7665C31.5554 28.3164 30.0059 29.4357 28.4257 28.9403C25.1788 27.9221 20.1396 25.9847 16.9465 23.0153C13.7524 20.0479 11.6677 15.3658 10.572 12.3484C10.039 10.8799 11.2434 9.43982 12.9111 9.43982H16.1865Z" stroke="#0D0D0D" stroke-width="3" stroke-linejoin="round"/>
</svg>
