<svg width="310" height="419" viewBox="0 0 310 419" fill="none" xmlns="http://www.w3.org/2000/svg">
<g clip-path="url(#clip0_756_612)">
<path d="M100.585 29.1911C97.3211 32.6736 95.508 36.301 92.0882 46.2728C89.4113 54.0451 87.9948 57.3674 85.8049 60.6974C81.3422 67.4601 79.6004 70.6484 78.7895 73.5306V73.5306C78.2463 75.4187 76.7124 76.8501 74.8214 77.2336L71.2429 77.9593C61.7558 79.8565 58.7672 80.8518 54.9906 83.3385C52.9563 84.7007 51.2258 86.1617 50.008 87.5866C46.5205 91.6558 44.934 91.8444 34.7424 89.577C24.9806 87.3761 23.2597 87.504 18.2071 90.7652C14.8968 92.9019 14.6264 93.1747 12.755 96.1517C5.47054 107.832 4.48019 125.179 10.2107 141.432C14.6477 154.147 25.0335 171.965 33.8212 182.019C35.2006 183.635 36.5535 185.366 36.7643 185.869V185.869C36.9641 186.304 36.6415 186.808 36.1677 186.801L34.5972 186.776C31.2349 186.686 26.0342 187.88 21.5954 189.763C17.3872 191.545 11.2578 195.747 8.52188 198.742C4.12349 203.546 0.39141 212.294 1.22026 215.789C2.32652 220.53 7.14933 221.496 22.1346 220.08C33.5951 219.022 35.779 219.332 58.9805 225.291C63.5246 226.437 69.2286 227.571 71.6781 227.76C75.9299 228.111 86.1292 227.376 90.6296 226.388V226.388C91.195 226.261 91.546 226.981 91.1103 227.373L90.4059 228.006C84.5157 233.233 81.1198 238.325 79.5627 244.195C78.3008 249.039 78.6635 252.884 80.7568 256.299C82.0733 258.447 82.6144 258.934 84.8119 260.218C91.24 263.883 99.7931 263.08 107.69 258.032L109.442 256.925C110.471 256.274 111.811 256.583 112.444 257.617V257.617C115.034 261.842 120.867 263.188 126.559 260.89C129.936 259.497 131.801 258.097 139.885 250.815C162.226 230.694 178.755 217.912 184.736 216.165C187.18 215.472 187.589 215.503 190.473 216.639C192.191 217.3 194.662 218.555 195.988 219.37C198.251 220.76 198.644 221.243 203.669 228.172C210.422 237.524 227.446 265.063 232.503 274.822C234.396 278.466 241.4 292.275 248.081 305.556C269.554 348.209 283.601 373.985 307.748 415.208C319.731 435.633 340.919 470.362 350.223 484.75L355.6 493.124C356.17 494.012 357.339 494.262 358.229 493.687V493.687V493.687C359.114 493.116 359.388 491.927 358.839 491.033L331.604 446.594C303.634 400.958 298.24 391.761 282.238 362.874C270.778 342.112 264.582 330.337 251.043 303.644C239.159 280.207 234.947 272.065 228.874 261.046C223.176 250.718 210.623 230.711 207.104 226.397C204.951 223.757 204.748 223.348 204.064 220.644C203.265 217.277 203.128 213.484 203.665 209.599C203.938 207.506 204.552 206.127 206.498 202.954C209.545 198.088 211.27 193.682 211.593 190.083C211.969 186.253 211.572 184.494 209.781 181.571C208.939 180.198 208.034 178.325 207.804 177.393C207.217 175.167 208.915 168.813 211.327 164.258C213.013 161.057 213.427 160.544 214.859 159.865C223.926 155.536 241.697 144.066 250.144 137.139C259.537 129.455 262.733 125.623 263.611 121.027C264.268 117.654 263.24 116.057 259.403 114.16C254.009 111.548 251.956 110.023 249.869 107.094C248.815 105.612 246.977 102.376 245.797 99.8944C244.616 97.4129 242.322 93.1933 240.682 90.5171C237.156 84.6845 234.966 82.4611 232.153 81.918V81.918C231.147 81.7258 230.451 80.7962 230.531 79.7524L230.629 78.4789C230.997 73.5241 230.039 66.3284 226.731 49.347C221.83 24.4499 219.788 18.1021 213.669 8.83229C211.277 5.16721 209.781 3.28232 208.629 2.35498C207.022 1.08232 204.835 0.528481 203.894 1.13574C202.535 2.01289 201.389 5.06229 199.353 13.4039C197.494 20.8447 196.698 23.2751 194.802 27.0052C193.537 29.5421 192.399 31.6526 192.294 31.7201C192.155 31.8101 190.993 31.1839 189.645 30.3338C186.022 28.1513 181.684 26.627 174.625 25.1874C167.038 23.5981 161.035 23.2462 152.261 23.8476C148.65 24.0653 143.614 24.4167 141.05 24.5973C134.966 24.9859 132.377 24.8877 123.935 24.0465C111.732 22.7823 105.318 24.2193 100.585 29.1911ZM105.476 30.5063C109.247 29.202 114.236 28.9307 121.784 29.6613C130.578 30.5211 136.238 30.5531 144.982 29.8236C161.614 28.475 170.217 29.2614 181.522 33.267C184.108 34.1534 187.089 35.1289 188.148 35.4283V35.4283C189.156 35.6869 189.659 36.8323 189.183 37.785L188.187 39.7768C185.095 45.9988 183.765 49.462 182.557 54.713C180.949 61.4516 180.904 67.3288 182.285 82.7529C183.647 97.3535 183.615 103.173 182.318 108.04C181.247 111.925 180.5 112.849 177.241 114.118V114.118C176.203 114.547 175.111 113.68 175.271 112.552L175.579 110.374C177.303 98.7454 175.807 88.2116 170.534 75.0052C168.529 69.9103 160.355 56.414 156.291 51.3706C155.555 50.4698 154.854 49.6455 154.303 49.0239C153.594 48.2245 153.369 48.3822 153.892 49.3194C154.968 51.2448 157.14 54.8982 159.688 59.0556C168.99 74.2323 172.085 81.4244 174.057 92.3388C175.268 99.0758 175.414 110.58 174.369 114.35C173.853 116.206 173.383 115.281 173.705 113.108C174.508 107.675 173.632 100.771 171.196 93.9395C169.938 90.3783 169.106 88.7037 165.294 82.564C160.331 74.465 156.908 69.991 149.221 61.7333C139.942 51.751 127.689 42.3122 119.704 38.9643C116.911 37.8187 112.397 36.8009 112.313 37.2978C112.193 37.8171 116.738 41.0267 123.113 44.9221C130.836 49.6676 134.21 52.1581 140.036 57.5382C149.935 66.6285 158.056 76.2282 164.077 86.0525C170.033 95.7712 172.323 102.205 172.853 111.004C173.118 115.403 173.02 115.958 171.928 116.319C171.123 116.592 171.107 116.406 171.702 114.204C174.392 104.31 167.24 93.5938 151.175 83.5686C131.926 71.5205 114.717 69.3099 85.4562 75.1247C82.8475 75.629 80.4695 76.0336 80.2438 75.9828C79.4621 75.8976 80.6678 72.0725 81.9685 70.545C85.4776 66.5109 88.9527 59.0097 93.3095 46.1233C95.3627 40.0313 96.8473 37.0582 98.9113 34.7923C100.975 32.5264 102.334 31.6492 105.476 30.5063ZM23.9426 91.6335C26.4418 91.3472 28.1396 91.5782 33.2346 92.909C39.5926 94.5549 41.5858 94.7919 44.2558 94.1496V94.1496C44.8117 94.0074 45.2482 94.6208 44.9457 95.119L43.9543 96.7522C33.7635 113.846 28.9402 126.051 26.9467 140.016C26.1016 146.017 25.9515 149.898 26.3493 155.784C26.6674 160.984 26.4732 160.667 24.3722 152.637C20.5937 138.22 19.3924 123.565 21.0113 112.003C21.8381 106.211 21.8181 105.782 20.9809 109.811C18.6384 120.906 18.9881 134.489 21.9117 147.591C23.3585 154.077 26.3511 164.038 28.2871 168.784L28.8451 170.146C28.9746 170.463 28.5655 170.725 28.3456 170.466V170.466C24.9294 166.479 15.9097 150.334 12.8513 142.726C7.22911 128.712 6.11774 115.473 9.70841 105.146C11.7699 99.1464 13.9018 96.1978 18.065 93.7072C20.4777 92.2482 21.387 91.907 23.9426 91.6335ZM58.1591 85.1757C63.8591 82.9709 86.0427 78.3827 98.2217 76.9102C110.983 75.3567 118.068 75.6491 127.903 78.0485C139.361 80.8745 152.114 87.8771 161.862 96.7209C170.264 104.32 172.997 110.763 169.932 115.838C168.873 117.602 168.664 117.737 165.151 119.464C159.362 122.316 150.748 128.416 147.375 132.117C139.866 140.256 135.162 149.878 132.098 163.207L131.338 166.512C131.012 167.933 129.194 168.314 128.376 167.133V167.133C125.944 163.641 124.087 162.039 111.059 151.97C100.79 144.101 96.3085 140.36 92.0327 136.239C82.5465 127.03 76.102 116.594 73.916 106.997C73.7598 106.328 73.602 105.707 73.4604 105.2C73.2131 104.315 72.7368 104.287 72.7637 105.211C72.7901 106.12 72.9306 107.454 73.1779 109.046C74.3012 116.036 77.5256 123.44 82.2616 129.818C87.9223 137.467 93.3799 142.643 106.208 152.545C116.478 160.414 122.111 165.083 125.811 168.74C129.425 172.255 130.323 173.641 130.155 175.273V175.273C130.094 175.839 129.478 176.157 129.001 175.869L127.784 175.132C126.111 174.148 122.327 173.052 112.374 170.778C98.3937 167.565 95.174 166.597 88.7559 163.663C81.2973 160.221 71.8399 153.597 67.9224 148.951C66.3355 147.076 65.7265 147.273 66.9782 149.315C69.568 153.54 75.2497 159.161 80.4232 162.603C88.088 167.73 95.4237 170.416 111.575 173.997C121.519 176.178 125.112 177.201 126.729 178.172V178.172C127.181 178.455 126.911 179.172 126.385 179.082L126.143 179.041C124.628 178.791 120.415 178.66 116.795 178.785C102.022 179.278 83.6408 177.137 72.9544 173.665C69.4791 172.518 66.5647 171.254 53.0614 164.932C51.7754 164.33 50.6195 163.836 49.8599 163.545C49.2522 163.313 49.1277 163.535 49.6322 163.949C50.3964 164.576 51.7104 165.57 53.1979 166.662C64.4047 174.712 76.9948 179.068 94.4219 180.842C104.188 181.86 109.423 182.069 115.289 181.723C127.591 181.007 129.715 181.061 130.449 182.258C131.096 183.314 130.395 183.915 126.117 185.742C118.274 189.133 106.914 191.306 95.3303 191.608C80.0362 192.044 66.6415 188.994 55.5196 182.511C52.1387 180.565 51.4317 180.284 52.2318 181.193C53.6112 182.809 57.666 185.695 61.1863 187.551C73.6026 194.083 91.6437 195.511 111.635 191.551C119.896 189.954 124.468 188.526 128.277 186.411C131.264 184.778 131.495 184.679 131.822 185.45C132.222 186.421 129.538 190.61 125.977 194.481C122.404 198.409 116.332 202.23 110.551 204.143C98.0655 208.369 85.8629 208.137 70.5677 203.414C57.4333 199.36 47.8334 193.615 40.7538 185.554C37.3675 181.696 32.583 173.334 30.9174 168.315C27.191 157.157 26.6311 146.166 29.1991 134.091C30.8238 126.506 32.3629 121.876 35.4664 114.959C41.3616 101.964 48.8967 90.6135 53.863 87.2115C54.5732 86.704 56.5014 85.8034 58.1591 85.1757ZM205.694 6.21501C208.461 7.47607 213.084 13.8291 215.908 20.2621C218.668 26.5895 221.659 37.9765 225.251 55.6592C228.347 71.106 229.314 76.9686 229.265 79.5067V79.5067C229.202 81.0057 228.466 82.4011 227.269 83.2906L226.158 84.1169C224.537 85.3598 221.341 88.1595 219.121 90.3296C216.914 92.4419 214.817 94.3361 214.495 94.4457C214.139 94.5776 214.716 92.5835 215.844 89.7424C218.161 83.9222 221.074 72.4099 221.564 67.1793C222.203 60.5256 221.518 54.7267 219.602 50.4103C218.354 47.5796 218.224 48.4001 219.124 54.9454C220.46 65.1399 220.128 72.1359 217.863 81.2149C216.309 87.3286 214.294 92.6098 212.361 95.7247C211.268 97.5115 210.684 97.9868 206.224 100.866C203.506 102.62 200.723 104.269 200.031 104.568C198.8 105.018 198.813 104.961 200.622 102.516C209.24 90.7118 213.19 75.3362 211.726 58.9829C211.094 51.9213 209.114 44.0095 207.194 40.8756C206.201 39.2558 206.307 40.8579 207.896 49.9559C212.603 77.6316 210.753 87.2291 197.661 103.002L195.52 105.559C194.455 106.829 193.103 107.818 191.584 108.435L188.137 109.837L187.967 109.905C185.552 110.869 183.088 108.731 183.642 106.153V106.153C185.338 98.1293 185.407 92.9251 184.061 78.5103C183.449 71.878 182.993 64.3097 183.09 61.6915C183.379 53.5932 185.334 47.0238 189.985 38.665C195.81 28.1731 199.257 20.1495 200.581 13.7415C202.145 6.29475 203.006 5.00188 205.694 6.21501ZM23.4379 191.817C28.1191 190.171 32.5914 189.693 36.981 190.348C40.7715 190.9 40.7715 190.9 44.1094 193.807C48.3437 197.462 54.6275 201.368 60.3003 203.8C64.6934 205.731 64.6935 205.731 62.3318 205.29C61.0208 205.055 56.9315 204.254 53.2505 203.485C35.3749 199.788 30.6153 199.322 25.7051 200.673C22.8824 201.463 19.6035 203.334 19.1258 204.379C18.9417 204.793 19.7764 204.647 21.7428 203.968C28.251 201.733 32.9376 202.001 51.482 205.757C77.9659 211.121 87.5631 212.101 98.8642 210.704C104.515 210.005 108.716 208.767 113.801 206.272C119.172 203.69 125.261 198.629 128.128 194.42C128.283 194.198 128.437 193.985 128.583 193.792C129.12 193.083 129.475 193.274 129.001 194.028C128.198 195.304 126.623 197.4 125.038 199.216C121.86 202.839 117.671 206.477 106.937 214.83L99.4938 220.677C98.3845 221.548 97.1108 222.174 95.7557 222.513L95.1975 222.653C91.4356 223.656 81.5267 224.548 75.8229 224.445C70.7663 224.368 66.9028 223.618 47.6064 218.873C36.2829 216.107 31.8485 215.775 20.6486 216.862C13.7252 217.546 11.2791 217.602 8.50089 217.036C3.49555 216.09 1.98169 214.413 2.83058 210.72C3.57831 207.338 7.33106 202.115 11.4857 198.499C14.0708 196.29 19.6528 193.179 23.4379 191.817ZM165.53 122.463C167.955 121.34 174.191 118.74 179.408 116.7C191.996 111.769 194.925 110.518 200.737 107.306C208.309 103.156 209.032 102.591 220.37 92.1284C227.909 85.149 229.937 84.3316 233.442 86.6392C235.067 87.7036 235.568 88.3628 239.289 94.5123C241.533 98.1745 244.96 103.924 246.919 107.279C250.974 114.293 251.745 115.074 256.295 116.707C261.284 118.499 262.509 119.625 262.148 121.971C261.395 126.536 241.27 142.179 223.214 152.311C216.299 156.184 211.281 158.391 206.762 159.587V159.587C206.069 159.77 205.653 158.842 206.239 158.416L207.618 157.413C219.522 148.747 230.673 135.997 238.252 122.259C240.235 118.669 241.101 116.194 239.294 119.277C237.185 122.898 230.1 132.681 226.345 137.266C219.491 145.523 212.755 151.591 203.642 157.67L200.947 159.465C199.543 160.399 197.936 160.961 196.273 161.098L193.483 161.327C185.813 161.905 184.869 162.268 173.964 168.914C168.86 172.012 164.514 174.522 164.345 174.484C164.006 174.407 165.943 172.568 170.612 168.522C173.232 166.291 179.978 161.985 197.106 151.765C207.588 145.54 214.01 139.675 218.667 132.197C221.247 128.075 223.406 122.553 223.802 119.153C223.983 117.463 223.79 117.784 222.774 121.045C220.464 128.384 215.554 134.894 207.661 141.217C203.83 144.329 200.302 146.508 184.853 155.497C176.845 160.125 172.099 163.729 164.011 171.161C158.394 176.359 156.537 177.852 152.308 180.631C147.917 183.465 146.877 183.989 144.424 184.589C140.745 185.49 138.035 185.273 135.929 183.979C131.375 181.071 130.422 174.756 132.858 163.257C135.501 150.986 141.094 140.594 149.209 133.046C152.493 129.993 160.194 125.023 165.53 122.463ZM137.81 189.35C138.67 189.483 140.434 189.425 141.725 189.231V189.231C143.01 188.983 144.211 189.909 144.321 191.232L144.353 191.614C145.304 202.45 143.804 209.364 136.911 226.443C133.646 234.447 131.567 240.655 131.308 243.328C131.209 244.277 131.577 243.449 132.299 241.214C132.945 239.175 135.317 232.73 137.634 226.91C142.124 215.51 144.32 208.54 145.162 203.328C145.951 198.347 146.235 192.463 145.81 190.182C145.439 188.308 145.5 188.17 146.584 187.716C147.206 187.462 148.735 186.623 149.919 185.859L150.536 185.461C151.49 184.845 152.707 184.875 153.613 185.538V185.538C156.923 187.923 159.998 193.654 161.717 200.505C161.982 201.491 162.245 202.381 162.452 203.004C162.661 203.631 163.021 203.646 163.046 202.981C163.094 201.647 162.912 199.123 162.582 196.998C161.687 191.728 158.504 185.821 155.596 184.013V184.013C154.74 183.486 154.802 182.627 155.568 181.951C155.825 181.724 156.113 181.476 156.415 181.223V181.223C157.611 180.236 159.192 179.891 160.662 180.296L162.534 180.812C167.108 182.086 170.849 184.144 174.268 187.342C176.783 189.7 180.81 196.192 182.116 200.067C182.657 201.585 183.2 202.709 183.374 202.596C183.827 202.304 183.227 198.072 182.357 195.144C181.495 192.31 178.198 186.772 176.173 184.737C173.499 182.04 167.786 178.749 164.535 178.047C159.964 177.016 162.42 176.66 167.391 177.628C171.762 178.493 178.984 179.089 189.523 179.462C200.856 179.863 204.185 180.613 207.353 183.482C208.899 184.893 209.115 185.245 209.693 187.378C210.515 190.386 209.651 194.531 207.302 198.553C203.662 204.834 199.989 207.647 192.072 210.202C182.888 213.23 182.427 213.429 176.751 217.339C171.109 221.226 151.442 237.458 143.236 245.016C140.715 247.33 137.41 250.348 135.862 251.79C128.925 258.085 121.297 260.159 116.304 257.091C114.12 255.749 112.443 253.489 112.307 251.759C112.257 251.202 112.441 249.756 112.663 248.532L112.808 247.815C112.863 247.542 112.503 247.404 112.362 247.645V247.645C111.908 248.331 111.397 250.037 111.157 251.47L111.126 251.647C110.872 253.132 109.933 254.41 108.605 255.082V255.082C102.585 258.034 96.3421 259.115 91.111 258.118C86.8957 257.35 84.0393 255.704 81.9609 252.869C79.9557 250.231 79.4921 247.73 80.3826 244.501C82.0889 238.24 86.3281 234.128 109.569 216.031C121.924 206.434 127.53 200.506 130.878 193.431V193.431C131.051 193.066 131.591 193.248 131.508 193.644L131.467 193.837C130.205 199.713 124.172 211.372 118.004 219.874C116.348 222.172 112.117 227.409 108.574 231.465C105.943 234.521 103.658 237.298 102.618 238.624C102.208 239.147 102.281 239.599 102.864 239.292C103.054 239.192 103.271 239.065 103.509 238.911C109.92 234.773 121.32 219.651 127.57 206.918C130.176 201.649 132.35 195.675 133.149 191.425L133.537 189.426C133.672 188.732 134.377 188.314 135.029 188.541V188.541C135.736 188.821 136.964 189.159 137.81 189.35Z" fill="#742F13"/>
</g>
<defs>
<clipPath id="clip0_756_612">
<rect width="310" height="419" fill="white"/>
</clipPath>
</defs>
</svg>
