<svg width="294" height="436" viewBox="0 0 294 436" fill="none" xmlns="http://www.w3.org/2000/svg">
<path d="M188.359 0.0518951C190.161 0.294334 194.162 1.03895 195.547 1.41991C199.739 2.56282 206.511 5.43739 215.293 9.81852C224.854 14.5979 226.43 15.585 231.487 20.0007C235.696 23.6892 236.285 24.0528 245.344 28.6937C251.025 31.6029 253.051 32.5207 257.208 34.0792C261.573 35.7243 264.327 37.0404 265.071 37.8716C265.747 38.5816 265.834 38.6162 269.419 39.1357C271.982 39.5167 272.589 39.482 273.732 38.9625C274.355 38.6855 274.927 38.5469 275.342 38.5816C275.897 38.6335 276.001 38.7028 276.122 39.1876C276.312 39.8976 276.607 40.0535 277.993 40.2093C280.313 40.4518 281.457 41.6466 280.365 42.6683C279.828 43.1705 279.24 43.361 277.023 43.7419C275.949 43.9151 274.823 44.1922 274.528 44.348C274.234 44.5039 272.727 45.8892 271.186 47.4477C266.665 52.002 257.468 59.0845 252.549 61.8379C247.803 64.4874 242.694 66.6346 233.306 69.9248C226.707 72.2279 225.39 72.5223 218.757 73.0938C217.094 73.2323 214.132 73.544 212.175 73.7691C206.529 74.4445 203.099 74.6176 197.886 74.4964C189.503 74.3059 181.743 73.4747 170.779 71.6045C165.6 70.7387 161.53 69.9075 157.46 68.9377C149.129 66.9463 143.829 66.6519 136.745 67.8122C133.956 68.2797 132.726 68.3836 128.691 68.5048C122.507 68.6953 121.901 68.8512 114.921 71.795C112.721 72.7301 108.911 74.3059 106.434 75.3103C103.957 76.3147 101.03 77.5095 99.9387 77.9598C98.276 78.6524 97.7217 78.791 96.5612 78.8602C95.4181 78.9295 95.1237 78.8775 94.9331 78.6524C94.5521 78.2022 95.1583 77.0939 96.6652 75.5181C97.6178 74.5137 98.1894 73.7172 98.7263 72.6608C100.649 68.7992 103.074 65.9593 109.274 60.2101C117.744 52.3657 119.528 51.1189 125.053 49.0928C127.738 48.1058 129.539 47.188 133.54 44.7809C140.157 40.7981 144.954 38.772 152.09 36.9884C153.649 36.5901 158.326 35.3433 162.465 34.2178C178.885 29.7327 181.414 29.2825 184.618 30.2695C186.264 30.7717 186.298 30.8064 186.385 32.4861L186.454 33.577L184.203 33.9926C180.808 34.5987 173.412 36.4862 169.134 37.8196C167.038 38.4777 162.673 39.8457 159.434 40.8501C147.31 44.6251 145.405 45.439 137.351 50.2357C132.64 53.041 130.7 54.08 128.223 55.1017C124.586 56.6083 122.923 57.6646 117.606 61.9245C115.562 63.5696 113.778 64.9549 113.674 64.9895C113.553 65.0415 113.449 65.1454 113.449 65.2147C113.449 65.2839 114.211 65.0242 115.129 64.6086C119.857 62.5306 122.542 61.9591 128.344 61.734C130.682 61.6474 133.644 61.4569 134.926 61.3184C138.373 60.9201 143.084 60.7989 146.098 61.0413C151.138 61.4396 154.134 61.9937 159.521 63.5003C166.83 65.561 180.271 68.2624 188.619 69.3707C198.042 70.6002 206.044 70.7214 217.025 69.7863C224.109 69.1802 225.702 68.7819 233.566 65.5956C235.661 64.7644 238.433 63.6562 239.714 63.154C242.624 62.0111 246.833 59.9157 249.327 58.3746C251.873 56.8161 253.813 55.3441 257.035 52.5908C258.507 51.3267 260.845 49.4565 262.231 48.4521C265.106 46.3741 267.773 44.2614 267.773 44.0883C267.773 43.9497 267.202 43.8632 260.326 42.9627C251.319 41.7852 248.115 41.1271 239.056 38.6508C232.388 36.8326 229.114 36.088 225.079 35.5165C223.364 35.2741 220.852 34.7892 219.484 34.4602C217.856 34.0446 216.817 33.8714 216.453 33.9407C216.141 33.9926 215.5 34.3563 215.033 34.7373C213.907 35.6377 210.616 37.9928 208.624 39.3262C206.477 40.7462 203.636 42.27 200.137 43.8285C195.669 45.8373 194.058 46.6511 190.005 48.937C184.809 51.8808 183.406 52.5561 177.101 55.171C174.053 56.4351 170.034 58.1494 168.181 58.9806C164.076 60.8335 162.413 61.405 160.82 61.5262C159.798 61.6128 159.538 61.5781 159.296 61.3357C158.863 60.8855 158.915 60.7296 159.833 59.8638C160.37 59.327 161.634 58.5477 163.591 57.526C167.852 55.2922 168.06 55.1883 169.827 54.7381C171.645 54.2532 172.425 53.9761 174.849 52.8332C177.136 51.7596 178.019 51.4132 179.786 50.9111C182.193 50.2011 184.878 49.0582 189.866 46.5992C192.447 45.3178 195.582 43.8632 196.829 43.3783C201.35 41.612 202.943 40.6596 209.265 35.9667L213.37 32.919L212.556 32.7112C209.767 32.0012 202.302 31.88 197.903 32.4861C194.855 32.9017 192.257 32.9363 191.252 32.59C190.871 32.4515 189.814 31.9146 188.896 31.3951C187.996 30.8756 187.112 30.3908 186.922 30.3388C186.731 30.2695 186.541 30.0964 186.489 29.9232C186.437 29.7674 186.35 29.4903 186.281 29.3171C186.177 29.0747 186.264 29.0227 186.818 29.0227C188.221 29.0227 187.961 28.763 185.207 27.4123C181.345 25.5421 178.608 24.5377 174.867 23.568C167.991 21.8017 160.023 21.6112 154.152 23.0658C152.61 23.4468 147.83 25.1265 143.759 26.7023C142.201 27.3084 141.179 27.9145 137.87 30.1483C136.294 31.2047 134.424 32.3822 133.714 32.7632C132.64 33.3173 131.964 33.8887 129.73 36.1399C126.959 38.9279 125.313 40.2786 124.274 40.6249C123.494 40.8847 123.321 40.7462 123.321 39.863C123.321 38.5469 124.187 37.404 129.557 31.5683C130.284 30.7717 130.89 30.3561 132.172 29.7154C133.073 29.2479 134.77 28.2608 135.931 27.4989C140.607 24.4511 146.202 22.2519 152.593 20.9878C156.022 20.3124 158.135 20.1046 162.032 20.1046C165.306 20.122 165.895 20.1566 167.921 20.5722C169.151 20.8319 171.143 21.1263 172.321 21.2302C174.815 21.4553 176.114 21.767 181.847 23.568C186.575 25.0399 187.493 25.4555 189.225 26.8408C189.884 27.3777 190.854 28.0184 191.356 28.2608C192.257 28.711 192.274 28.711 193.954 28.5032C196.067 28.2262 205.472 28.2262 208.105 28.4859C210.841 28.763 213.422 29.2479 217.319 30.2176C219.605 30.789 221.926 31.222 224.299 31.5337C229.911 32.261 232.561 32.7285 237.22 33.8541C242.486 35.1182 243.958 35.4472 243.75 35.2568C243.681 35.1702 242.434 34.5987 241.013 33.958C237.671 32.4688 234.293 30.789 233.011 29.9578C231.418 28.9362 230.309 28.0357 226.984 25.0572C223.347 21.7844 221.892 20.7454 218.237 18.8059C216.765 18.0093 213.959 16.4681 212.002 15.3772C203.653 10.667 195.703 7.16906 191.096 6.1647C186.645 5.19496 179.041 4.91789 173.81 5.52398C164.63 6.59761 157.269 8.32928 150.462 11.0307C148.574 11.7753 148.436 11.8099 148.436 11.4463C148.436 10.9787 147.743 9.36829 147.327 8.84879L146.912 8.32928L146.461 9.2817C145.786 10.719 145.872 11.2731 146.929 11.9485L147.397 12.2602L144.764 13.5936C141.179 15.4118 131.67 20.8839 129.695 22.2692C128.656 22.9792 126.924 24.5377 124.863 26.5984C119.875 31.5683 116.722 35.1355 113.189 39.8457C109.811 44.348 108.46 46.5992 104.91 53.699C103.576 56.3658 101.948 59.5521 101.272 60.7989C97.9815 66.929 96.9423 68.9377 96.0416 70.9292C93.6514 76.1588 92.8547 77.6827 91.9194 78.6524C90.8802 79.7087 90.3605 79.83 89.7543 79.1892C87.9703 77.2844 90.5511 69.9421 97.7737 56.3831C106.053 40.8327 107.525 38.824 119.286 26.9101C125.227 20.8839 126.768 19.7064 136.052 14.1131C145.422 8.46782 153.06 5.10838 161.686 2.87452C168.822 1.00432 179.284 -0.38102 181.258 0.277016C181.639 0.398232 182.644 0.95237 183.492 1.5065C184.324 2.07795 185.086 2.52818 185.172 2.52818C185.242 2.52818 185.328 1.95673 185.363 1.26407L185.415 0.0172653L186.627 -5.34058e-05C187.286 -5.34058e-05 188.065 0.0172653 188.359 0.0518951Z" fill="#BD0200"/>
<path d="M349.561 15.0133C350.704 15.6713 348.833 17.1606 339.567 22.9616C337.177 24.4682 333.331 26.9099 330.993 28.4164C328.655 29.923 325.468 31.9663 323.892 32.9707C314.504 38.9623 306.675 44.5209 301.15 49.1099C299.747 50.2701 299.487 50.5645 299.643 50.7723C299.955 51.1359 299.73 52.0364 299.02 53.1966C297.617 55.4651 296.422 58.5648 295.66 61.803C295.452 62.6342 295.348 63.4827 295.4 63.6732C295.469 63.8637 295.833 64.1754 296.231 64.3832C300.665 66.6344 308.892 74.8598 314.781 82.9467C317.708 86.9642 318.505 88.5919 320.722 95.0857C321.519 97.4581 322.627 100.35 323.147 101.493C325.416 106.376 326.005 107.762 326.732 109.77C328.586 114.879 330.023 120.178 332.206 130.065C332.881 133.113 334.163 138.637 335.063 142.36C338.857 158.119 340.883 168.162 343.014 181.929C343.966 188.024 343.983 188.25 344.157 194.484C344.295 199.298 344.416 201.116 344.832 204.441C345.629 210.709 346.062 216.51 345.819 217.498C345.664 218.138 344.936 218.415 343.031 218.554L341.472 218.675L341.455 213.774C341.455 209.982 341.351 208.025 341.056 205.22C340.814 202.848 340.623 199.54 340.519 195.696C340.398 190.882 340.294 189.254 339.93 186.778C338.233 175.158 334.7 159.729 330.162 144.092C329.019 140.178 327.633 135.07 327.096 132.75C324.1 119.918 323.441 117.909 318.453 106.723C315.353 99.7612 314.764 98.3932 313.517 95.1203C311.906 90.8951 311.109 89.5617 307.039 84.1242C305.775 82.4445 304.233 80.3492 303.627 79.5007C303.021 78.6349 301.427 76.4529 300.094 74.652C298.76 72.8338 296.993 70.4094 296.162 69.2319C295.33 68.0717 294.603 67.1712 294.568 67.2404C294.516 67.3271 294.43 67.9158 294.361 68.5565C293.979 72.2277 294.586 82.964 295.763 93.6138C296.422 99.6227 296.785 101.458 298.344 106.601C299.747 111.26 300.163 112.87 300.423 114.879C300.942 118.775 301.323 119.537 303.523 121.009C304.095 121.407 305.705 122.689 307.074 123.866C308.442 125.044 310.936 127.035 312.616 128.316C316.08 130.949 316.202 131.07 317.622 133.131C318.211 133.962 318.973 135.018 319.337 135.468C319.7 135.936 320.497 137.39 321.121 138.724C322.056 140.75 322.246 141.339 322.298 142.274C322.472 145.166 321.034 145.529 319.718 142.949C319.527 142.568 318.99 141.702 318.522 141.01C317.864 140.04 317.639 139.52 317.501 138.672C317.293 137.425 317.31 137.46 316.271 136.213C315.82 135.693 315.284 134.949 315.058 134.585C313.915 132.663 309.793 128.49 306.173 125.563C304.683 124.368 302.692 123.018 302.622 123.191C302.553 123.399 305.671 131.156 307.749 135.953C310.936 143.347 313.205 148.213 317.57 156.993C321.969 165.859 323.268 168.838 325.537 175.262C327.65 181.236 329.209 185.098 331.946 191.107C334.821 197.427 335.029 198.085 335.929 203.471C336.518 207.073 337.159 209.826 338.198 213.307C338.857 215.523 339.463 218.156 339.48 218.762C339.48 219.039 339.342 219.195 339.03 219.264C338.06 219.506 334.613 221.48 334.042 222.104L333.47 222.744L333.141 221.255C332.812 219.627 332.188 217.446 330.855 213.134C329.954 210.276 329.504 207.973 329.001 203.575C328.551 199.834 328.17 198.57 325.537 191.973C322.679 184.856 321.519 181.635 319.562 175.522C318.782 173.097 317.882 170.448 317.553 169.651C317.223 168.838 316.964 168.128 316.964 168.041C316.964 167.972 317.223 167.799 317.518 167.677C317.83 167.539 318.245 167.262 318.419 167.054C318.73 166.708 318.73 166.673 318.436 166.344C318.089 165.946 317.379 165.894 316.687 166.205C316.115 166.465 315.924 166.257 315.284 164.491C315.024 163.798 314.729 163.227 314.643 163.227C314.192 163.227 312.651 164.491 310.798 166.379C308.407 168.838 308.182 169.253 307.576 172.595C307.23 174.431 307.212 174.743 307.42 175.764C307.593 176.647 307.593 177.028 307.437 177.513C307.264 178.033 307.282 178.206 307.507 178.552C307.922 179.176 307.87 180.63 307.437 181.063C306.71 181.79 305.584 181.323 304.943 179.99C303.956 177.963 303.956 176.128 304.943 172.665C305.792 169.721 306.45 168.457 308.165 166.586C308.962 165.721 310.122 164.353 310.763 163.521C311.785 162.205 312.945 161.132 313.534 160.941C313.655 160.889 313.067 159.383 312.114 157.235C307.247 146.257 302.518 134.499 299.938 126.931C299.505 125.684 298.829 123.347 298.448 121.736C298.05 120.126 297.426 117.528 297.045 115.952C296.681 114.377 295.919 111.727 295.4 110.065C294.187 106.307 292.559 99.9171 291.918 96.471C291.659 95.0338 291.416 93.8389 291.399 93.8043C291.364 93.7697 291.018 94.0121 290.602 94.3411C290.186 94.6701 289.511 95.155 289.078 95.432C287.588 96.3672 284.644 98.7742 283.535 99.9517C281.543 102.082 280.348 104.246 279.829 106.688C278.841 111.346 278.824 111.485 279.032 115C279.136 116.801 279.257 118.758 279.309 119.329C279.413 120.559 279.205 121.251 278.616 121.528C278.27 121.684 278.097 121.667 277.733 121.424C277.092 121.009 276.676 120.247 276.087 118.429C275.62 116.957 275.585 116.749 275.741 115.571C275.828 114.879 275.914 113.511 275.914 112.524C275.914 110.879 275.984 110.55 276.711 108.281C278.356 103.242 279.032 102.116 283.414 97.181C286.791 93.3887 288.835 91.8821 290.602 91.8821C291 91.8821 291.174 91.8128 291.104 91.657C290.862 90.999 290.446 88.7305 290.498 88.2456C290.55 87.7434 290.654 87.6569 291.451 87.3452C291.936 87.172 292.386 86.8949 292.455 86.7218C292.68 86.2022 293.044 83.3623 293.061 82.1328C293.061 80.1414 292.351 79.2409 290.758 79.2409C290.394 79.2409 290.048 79.1197 289.875 78.9119C289.407 78.4097 289.216 76.4703 289.199 72.2277C289.182 66.9288 289.736 63.4135 291.226 59.2574C291.572 58.3051 291.814 57.5085 291.78 57.4738C291.607 57.3007 278.512 69.2146 275.464 72.3489C273.23 74.6174 273.351 74.3057 272.71 78.808C271.584 86.6525 271.324 92.1592 271.844 96.904C272.329 101.372 272.416 103.571 272.277 107.554C272.052 114.532 272.502 117.199 275.654 127.122C276.174 128.732 277.335 132.715 278.253 135.936C281.526 147.486 282.912 151.071 288.125 161.513C290.792 166.812 294.638 174.119 299.349 182.795C304.874 192.942 306.693 196.596 308.477 200.977C310.191 205.203 310.901 206.623 313.465 210.9C316.375 215.714 317.622 218.242 320.67 225.377C327.321 240.944 329.729 247.629 331.08 254.33C332.292 260.408 332.552 268.235 331.599 270.088C331.27 270.712 330.837 270.729 330.144 270.158C328.967 269.153 328.776 268.478 326.317 256.027C324.481 246.728 324.117 245.603 317.085 228.511C313.603 220.008 311.923 216.372 308.996 210.848C306.849 206.813 304.545 201.964 304.389 201.151C304.285 200.683 304.372 200.51 304.961 199.886C305.896 198.917 306.052 198.57 306.052 197.497C306.052 195.575 304.683 194.414 302.345 194.345C301.271 194.31 301.254 194.31 300.613 193.497C300.249 193.029 299.401 191.592 298.708 190.293C298.015 188.977 295.278 184.128 292.611 179.505C284.8 165.98 282.479 161.807 279.396 155.642C275.914 148.698 274.182 143.953 270.562 131.624C269.904 129.338 268.848 125.909 268.224 124.005C265.643 116.022 265.505 115.225 265.539 108.16C265.557 104.714 265.487 102.757 265.28 101.095C264.465 94.4969 264.535 92.4189 265.782 85.3884L265.886 84.8689L265.626 85.3018C265.228 86.0118 262.855 92.4362 261.746 95.865C257.849 107.779 255.043 120.68 252.618 137.65C250.99 149.183 250.592 155.019 250.938 162.517C251.181 167.695 251.406 169.877 252.445 177.253C254.316 190.535 255.009 197.358 255.286 205.272C255.909 222.762 252.895 241.498 246.296 261.24C240.459 278.729 233.098 293.726 223 308.774C215.102 320.532 206.511 330.853 195.218 342.109C184.255 353.07 176.079 359.841 164.198 367.841C161.149 369.885 155.485 373.573 153.857 374.543C153.719 374.629 153.494 374.387 153.217 373.815C152.974 373.348 152.472 372.707 152.073 372.378C151.536 371.911 151.432 371.72 151.588 371.599C151.71 371.495 153.719 370.231 156.057 368.776C163.591 364.066 168.701 360.551 172.944 357.157C177.517 353.52 185.259 346.559 188.533 343.165C193.764 337.71 194.283 337.277 195.963 337C196.847 336.862 197.453 336.238 197.453 335.459C197.453 335.13 197.349 334.784 197.21 334.714C197.037 334.61 197.349 334.143 198.544 332.844C214.202 315.545 226.066 297.362 234.189 278.175C241.083 261.898 246.539 241.776 248.271 226.26C249.518 215.09 249.431 203.194 248.011 191.453C247.699 188.821 247.388 186.795 245.707 176.37C244.391 168.145 243.941 162.396 244.097 155.348C244.218 150.101 244.46 147.088 245.344 140.196C247.838 120.749 251.406 105.493 256.411 92.8519C256.758 91.986 257 91.276 256.966 91.2414C256.862 91.1375 253.294 94.9991 250.8 97.9257C247.232 102.064 243.421 106.896 234.778 118.204C233.358 120.056 229.651 124.732 226.568 128.594C223.468 132.455 220.125 136.698 219.138 138.031C215.674 142.672 205.524 158.222 198.405 169.79C194.959 175.383 194.993 175.262 195.877 177.998C196.171 178.933 196.725 181.375 197.124 183.453C197.505 185.514 197.972 187.799 198.146 188.509C198.717 190.83 199.168 193.445 199.895 198.692C200.276 201.514 200.778 204.96 201.004 206.346C201.921 211.887 202.424 216.199 203.428 226.952C203.775 230.624 204.242 235.368 204.468 237.516C205.143 243.819 205.334 246.832 205.593 254.573C205.68 257.239 205.853 261.136 205.957 263.231C206.148 267.041 206.009 270.92 205.593 273.223C205.507 273.725 205.23 276.115 204.987 278.539C204.312 285.206 203.619 288.202 201.852 291.838C201.021 293.587 200.519 294.072 200.103 293.518C199.808 293.137 199.895 291.977 200.415 289.466C200.813 287.544 201.177 284.496 201.437 280.981C201.766 276.305 202.216 272.565 202.909 268.686C202.995 268.166 202.718 253.464 202.476 245.828C202.268 239.784 202.095 237.273 201.09 225.654C199.704 209.792 199.427 207.783 196.327 192.146C195.426 187.626 194.456 182.604 194.162 180.994C193.885 179.383 193.608 178.033 193.573 177.981C193.504 177.912 191.581 181.115 188.186 186.951C187.165 188.717 186.316 190.189 186.281 190.206C186.247 190.241 185.692 189.964 185.034 189.583C184.393 189.202 183.493 188.752 183.042 188.596C182.28 188.319 182.245 188.267 182.419 187.921C182.921 186.985 188.481 177.86 191.443 173.097C197.522 163.365 205.23 151.521 210.686 143.572L213.059 140.109L212.314 139.901C211.829 139.745 210.097 139.676 206.91 139.676C202.995 139.659 200.952 139.763 194.682 140.282C187.355 140.871 185.831 141.062 182.384 141.772C181.483 141.962 179.093 142.395 177.101 142.724C169.619 143.988 162.725 146.083 155.208 149.391C151.554 151.001 138.685 157.46 136.398 158.829C135.151 159.573 132.848 161.166 131.272 162.361C129.678 163.556 127.548 165.011 126.543 165.617C124.43 166.881 122.871 168.076 120.048 170.639C114.557 175.626 111.111 178.119 109.725 178.119C108.218 178.119 110.591 175.002 116.047 169.859C117.71 168.283 119.702 166.5 120.464 165.911C121.711 164.941 126.682 161.495 132.068 157.893C134.528 156.248 138.304 154.378 149.215 149.426C154.117 147.192 160.006 145.027 165.583 143.399C170.052 142.101 171.975 141.65 175.369 141.148C176.98 140.906 180.254 140.317 182.609 139.832C186.818 138.984 193.504 138.066 199.462 137.494C201.575 137.304 203.671 137.235 206.979 137.287L211.569 137.356L212.833 137.91C213.526 138.222 214.167 138.429 214.254 138.377C214.358 138.308 214.756 137.789 215.154 137.2C216.332 135.451 219.294 131.572 222.55 127.485C227.781 120.957 231.383 116.368 234.345 112.489C243.387 100.644 250.436 92.1419 258.178 83.7433C262.248 79.3275 264.535 76.3491 266.596 72.8338C267.947 70.5306 268.155 70.3748 269.869 70.2362C271.134 70.1497 271.324 70.0977 271.688 69.6648C272.19 69.076 272.208 68.8163 271.74 67.9851C271.238 67.0846 271.394 66.6171 272.485 65.6819C274.494 63.9849 278.218 61.855 279.413 61.7164C279.742 61.6818 281.249 60.3657 284.696 57.1448C301.15 41.6983 309.55 35.4124 328.395 24.3989C336.796 19.4983 344.572 15.7579 347.794 15.0652C349.128 14.7881 349.18 14.7881 349.561 15.0133ZM265.851 80.2107C265.539 80.886 265.522 81.0765 265.713 81.5094C265.938 82.0809 266.076 82.1674 267.427 82.7043L268.328 83.0679L268.207 82.2367C268.068 81.2843 267.774 80.5224 267.15 79.4487C266.717 78.7041 266.7 78.7041 266.457 79.0504C266.301 79.2583 266.042 79.7778 265.851 80.2107Z" fill="#BD0200"/>
<path d="M239.022 72.4532C240.078 72.7822 239.316 73.8038 237.584 74.3753C236.995 74.5658 235.661 74.9294 234.622 75.1719C231.401 75.9165 222.307 78.514 218.15 79.882C206.355 83.7436 196.587 87.7265 189.225 91.6574C183.025 94.9822 159.937 108.489 156.836 110.602C152.056 113.857 148.263 117.182 140.053 125.304C129.21 136.04 124.707 141.079 118.038 149.911C102.242 170.916 92.1791 193.532 83.848 226.866C81.7868 235.144 79.1195 247.733 78.3747 252.668C78.011 255.127 77.6473 256.72 77.3875 257.032C77.2835 257.17 76.7293 257.517 76.175 257.794C74.9626 258.4 74.6335 258.937 75.0665 259.577C75.2744 259.906 75.5515 260.045 76.227 260.132C77.0064 260.235 77.093 260.287 77.0064 260.616C76.9718 260.807 76.2097 265.777 75.3437 271.63C72.6763 289.657 71.3773 297.328 69.6972 305.086C65.6096 323.978 61.1582 335.84 45.8124 368.777C37.5332 386.543 34.658 391.981 27.574 403.323C19.3295 416.501 14.4797 423.116 8.76401 428.917C7.75941 429.956 6.92804 430.822 6.92804 430.84C6.92804 430.874 8.5042 430.389 10.4268 429.783C14.0121 428.658 23.3651 425.939 32.9953 423.238C40.5989 421.108 46.6611 419.255 51.9611 417.454C58.5948 415.203 83.5362 405.834 86.1343 404.605C88.9229 403.289 89.3905 403.202 90.1006 403.86C90.3778 404.137 90.9147 404.795 91.2958 405.332C91.6595 405.869 92.1618 406.458 92.4216 406.648L92.8719 406.977L89.6157 408.345C68.4848 417.125 58.3004 420.969 46.5052 424.588C41.7767 426.06 37.7237 427.168 26.8465 430.008C8.29636 434.874 7.25713 435.1 0.900543 435.879L-0.00012207 436L0.363602 435.359C0.588776 434.996 0.848572 434.303 0.952499 433.818C1.1257 433.073 1.22963 432.918 1.66263 432.779C2.75381 432.45 2.97899 432.294 3.16951 431.757C3.74109 430.147 3.55055 430.476 18.1863 408.259C23.4863 400.206 25.0625 397.73 27.4874 393.626C33.9479 382.682 40.6855 369.331 49.5882 349.815C58.82 329.554 61.7298 321.727 65.2805 307.545C68.1384 296.133 69.9397 286.228 71.8796 271.457C72.3645 267.786 73.0747 262.417 73.4557 259.508C74.7721 249.395 75.9152 242.52 77.5953 234.399C81.1287 217.273 85.3549 202.207 90.3431 189.012C91.5209 185.878 94.4134 178.726 94.7079 178.172C94.8118 178.016 95.0716 178.172 95.6951 178.812C96.1628 179.297 96.6304 179.678 96.7344 179.678C96.9769 179.678 98.3105 178.102 99.1765 176.786C99.8694 175.73 100.562 174.189 100.424 174.05C100.389 173.998 99.7135 173.79 98.9167 173.565C98.1373 173.323 97.4099 173.063 97.3059 172.959C97.202 172.855 97.6697 171.73 98.7955 169.531C105.308 156.612 114.834 143.123 126.595 130.152C130.111 126.273 139.966 116.143 142.807 113.476C149.492 107.19 153.805 104.125 163.972 98.3589C167.073 96.61 170.329 94.6532 172.927 93.0081C173.585 92.5925 174.538 92.1422 175.04 92.0383C175.75 91.8825 175.975 91.744 176.045 91.4496C176.183 90.9128 178.4 89.5794 184.722 86.2026C193.365 81.579 209.386 76.055 220.662 73.8038C225.893 72.7475 228.508 72.4705 233.825 72.4012C236.441 72.3492 238.779 72.3839 239.022 72.4532ZM112.496 153.097C111.976 153.599 111.959 153.946 112.409 154.396C112.79 154.777 113.449 154.846 113.76 154.534C114.089 154.205 114.003 153.391 113.622 153.01C113.171 152.56 112.998 152.578 112.496 153.097Z" fill="#BD0200"/>
<path d="M181.726 195.921L182.904 196.216L181.934 197.947C176.946 206.917 170.624 218.693 160.162 238.572C155.919 246.625 151.883 254.227 151.207 255.456C148.921 259.525 147.051 262.608 146.756 262.781C146.548 262.885 146.185 262.833 145.526 262.591C145.024 262.4 144.574 262.279 144.539 262.313C144.504 262.348 144.591 262.85 144.73 263.404C145.093 264.755 144.972 266.192 144.401 267.162C144.175 267.578 143.309 268.963 142.495 270.245C141.664 271.526 140.867 272.963 140.711 273.431C140.278 274.695 140.451 276.098 141.837 282.972C143.032 288.947 143.673 292.687 145.215 302.54C146.237 309.069 146.479 311.268 146.808 316.913C147.293 325.19 147.293 325.675 146.912 328.256C146.704 329.537 146.496 331.182 146.444 331.892C146.046 336.568 144.071 341.676 142.928 340.966C142.478 340.672 142.339 339.598 142.443 337.26C142.547 335.044 142.824 331.719 142.98 330.732L143.084 330.195L143.483 330.593C144.418 331.528 145.474 331.286 145.942 330.074C146.185 329.398 146.185 329.295 145.925 328.671C145.578 327.84 145.041 327.234 144.383 326.957L143.881 326.749L143.916 322.437C143.933 320.065 144.02 317.138 144.106 315.909C144.314 313.034 143.95 308.151 143.24 304.012C143.136 303.493 142.79 300.757 142.461 297.951C141.681 291.475 141.266 288.635 140.625 285.483C139.949 282.106 138.685 277.691 138.408 277.691C138.356 277.691 138.027 278.176 137.715 278.764C137.386 279.37 135.55 282.661 133.627 286.089C128.223 295.717 126.509 298.886 122.854 305.9C116.965 317.225 114.384 321.744 110.816 327.113C108.824 330.074 105.031 335.407 102.814 338.317C102 339.39 100.996 340.897 100.597 341.676L99.8525 343.061L99.9044 348.516C99.9391 351.789 99.8525 356.222 99.6966 359.599C99.5407 362.698 99.4195 366.508 99.4195 368.084C99.4195 371.617 99.2289 373.244 98.4668 376.136C98.1377 377.366 97.7394 379.167 97.6008 380.102C97.0985 383.271 96.2498 384.968 95.0028 385.331C94.6217 385.435 93.8943 385.556 93.392 385.608L92.4567 385.695L92.5606 385.193C92.6125 384.916 92.8724 384.206 93.1148 383.617C93.3573 383.028 93.7557 382.11 93.9809 381.556C94.206 381.02 94.5178 379.929 94.6737 379.132C94.8122 378.353 95.3145 376.205 95.7822 374.405C96.6655 370.924 96.7521 370.352 97.4276 363.928C98.0858 357.677 98.259 354.889 98.1551 352.222C98.0511 349.832 97.774 347.425 97.5315 346.992C97.4623 346.871 96.423 348.36 94.8296 350.888C84.0043 368.222 74.097 381.556 63.9646 392.414C61.2106 395.375 52.9142 403.497 52.1867 403.947C51.9096 404.103 51.4419 404.293 51.1129 404.362L50.524 404.484L50.6452 403.739C50.8357 402.596 51.2687 401.748 52.6717 399.86C53.3992 398.908 54.8541 396.882 55.9453 395.358C57.0191 393.834 60.258 389.383 63.1332 385.487C69.282 377.123 71.4297 374.145 71.3431 374.076C71.3084 374.041 70.8062 374.076 70.2346 374.162C69.663 374.231 68.0176 374.422 66.5973 374.578C64.8653 374.768 63.5316 375.011 62.5963 375.322L61.2106 375.79L61.4531 374.924C61.7995 373.712 62.2845 373.279 63.6875 372.933C64.3283 372.759 65.5581 372.413 66.4241 372.153C68.2427 371.599 70.581 371.513 71.88 371.963C72.313 372.101 72.7114 372.171 72.7634 372.101C73.0751 371.755 76.9895 366.127 78.7909 363.443C80.8347 360.361 82.4628 357.763 88.04 348.672C92.3874 341.589 93.5305 339.858 93.5305 340.343C93.5305 340.983 93.8596 341.416 94.5005 341.693C95.0028 341.901 95.176 341.901 95.6436 341.711C96.527 341.33 96.908 340.793 96.908 339.927C96.908 338.94 96.2672 338.23 95.3492 338.23C95.0201 338.23 94.743 338.195 94.743 338.161C94.743 338.039 96.3018 335.806 100.632 329.727C108.339 318.922 109.067 317.727 115.527 306.004C123.27 291.925 127.53 284.392 136.832 268.34C148.887 247.542 151.311 243.334 156.265 234.416C157.876 231.524 159.158 229.135 159.123 229.083C158.898 228.875 156.646 228.684 155.451 228.788C153.788 228.927 152.524 229.187 146.444 230.641C140.555 232.061 139.135 232.529 135.065 234.33C125.539 238.555 120.879 241.603 114.228 247.923C112.981 249.084 110.643 251.283 109.015 252.772C105.655 255.889 104.806 256.824 103.126 259.248C101.931 260.98 101.636 261.309 99.2289 263.612C98.5015 264.305 97.3064 265.742 96.5616 266.816C93.6691 270.972 93.2361 271.561 91.937 272.842C89.7547 275.024 88.3517 275.526 88.854 273.933C89.1831 272.963 90.4821 270.4 91.6772 268.426C94.0155 264.547 95.4877 262.556 97.7221 260.235C98.9345 258.971 100.667 257.067 101.55 255.993C103.455 253.707 104.91 252.304 107.699 250.088C108.807 249.205 110.972 247.369 112.496 246.001C115.77 243.109 118.264 241.187 121.243 239.3C129.055 234.347 135.688 231.438 146.011 228.425C151.45 226.832 152.593 226.589 155.26 226.485C157.443 226.399 157.772 226.416 158.932 226.78C160.041 227.126 160.231 227.143 160.491 226.935C160.664 226.797 161.201 225.827 161.704 224.788C162.899 222.243 169.48 210.173 172.771 204.441C177.431 196.354 177.604 196.06 178.054 195.835C178.643 195.54 180.323 195.575 181.726 195.921Z" fill="#BD0200"/>
<path d="M105.776 317.623C106.14 317.779 106.036 318.645 105.603 319.026C104.996 319.597 104.598 319.736 102.502 320.186C97.7565 321.19 92.3179 323.13 87.4855 325.554C79.8645 329.381 72.2262 336.1 65.9735 344.447C63.618 347.598 61.6954 349.382 60.6562 349.382C60.2578 349.382 60.2405 349.347 60.3098 348.533C60.3964 347.685 60.8294 346.698 62.6653 343.234C63.7565 341.139 63.8604 341.018 65.2461 339.979C65.9042 339.477 66.9435 338.49 67.5497 337.78C69.3337 335.667 70.3209 334.68 71.7066 333.676C72.4167 333.139 74.0622 331.875 75.3439 330.853C78.9465 327.996 81.6485 326.316 85.5976 324.463C86.5848 324.013 89.1656 322.766 91.3652 321.727C95.7473 319.614 97.8258 318.783 100.406 318.125C102.035 317.692 105.291 317.398 105.776 317.623Z" fill="#BD0200"/>
<path d="M150.498 372.794C151.104 374.37 151.312 374.803 151.606 375.236C151.779 375.513 151.918 375.756 151.883 375.773C151.849 375.808 149.441 377.383 146.531 379.254C131.324 389.107 126.336 391.877 110.921 398.977C106.244 401.125 105.898 401.194 104.789 400.189C104.096 399.566 102.78 397.904 102.901 397.8C102.936 397.782 103.663 397.453 104.529 397.09C115.216 392.57 124.361 387.998 134.147 382.284C137.698 380.206 145.388 375.513 148.194 373.695C150.342 372.327 150.324 372.327 150.498 372.794Z" fill="#BD0200"/>
<path d="M47.6312 386.024C46.6785 387.462 45.0504 390.579 44.5135 391.981C44.2017 392.778 43.2837 394.232 42.8161 394.648C42.3484 395.064 41.569 395.064 41.2746 394.648C40.8935 394.129 41.0148 392.535 41.5863 390.457C42.0886 388.674 42.2099 388.414 42.972 387.583C43.4396 387.063 44.0112 386.249 44.2364 385.747L44.6521 384.829L46.107 384.812C46.9037 384.795 47.7871 384.708 48.0988 384.639L48.6531 384.5L47.6312 386.024Z" fill="#BD0200"/>
<path d="M91.7813 390.422C92.0758 390.786 92.3182 391.236 92.3182 391.426C92.3182 392.171 90.9326 392.691 90.6901 392.033C90.5516 391.704 90.8806 389.955 91.0885 389.816C91.1751 389.781 91.4695 390.041 91.7813 390.422Z" fill="#BD0200"/>
<path d="M100.788 403.462C100.701 403.566 97.4798 405.038 96.6484 405.35C96.2847 405.488 96.302 405.436 96.8216 404.986C97.7916 404.155 98.9867 403.583 99.9739 403.462C100.476 403.41 100.857 403.41 100.788 403.462Z" fill="#BD0200"/>
</svg>
